<svg width="1920" height="771" viewBox="0 0 1920 771" fill="none" xmlns="http://www.w3.org/2000/svg">
<path d="M303.473 1291.33C303.473 1291.33 15.5573 1228.62 0.880051 1007.09C-16.0138 752.121 216.343 749.309 180.699 564.49C130.949 306.528 228.239 152.875 446.227 163.472C630.038 172.407 777.465 326.499 887.305 201.338C1001.47 71.2441 1187.87 -60.8934 1384.19 30.132C1580.5 121.157 1551.58 416.943 1687.35 479.794C1823.12 542.644 1970.15 708.412 1946.47 937.73C1924.26 1152.87 1744.07 1295.81 1577.11 1293.64C1495.29 1292.58 1177.72 1294.83 892.338 1293.64C595.354 1292.41 303.473 1291.33 303.473 1291.33Z" fill="#5277FF" fill-opacity="0.2"/>
</svg>
