<svg width="508" height="400" viewBox="0 0 508 400" fill="none" xmlns="http://www.w3.org/2000/svg">
<g clip-path="url(#clip0_195_50330)">
<rect x="0.666992" width="506.667" height="400" rx="20" fill="#F3F8FF"/>
<path d="M193.969 56.9102C198.041 56.9102 200.985 60.5869 201 66.4023C200.985 72.2617 198.041 75.9238 193.969 75.9238C189.882 75.9238 186.923 72.2617 186.938 66.4023C186.923 60.5869 189.882 56.9102 193.969 56.9102ZM190.541 66.4023C190.541 70.3721 191.933 72.54 193.969 72.5254C196.049 72.54 197.411 70.3721 197.426 66.4023C197.411 62.4473 196.049 60.2793 193.969 60.2793C191.933 60.2793 190.541 62.4473 190.541 66.4023ZM204.076 81.6953V55.0352H207.826V65.084H211.752V68.1895H207.826V81.6953H204.076ZM227.324 57.4961V60.4844H224.951V72.1152C226.035 72.0273 227.089 71.9248 228.115 71.793L228.32 74.4883C222.856 75.4404 216.762 75.543 212.177 75.5723L211.767 72.5254C212.719 72.5254 213.745 72.5254 214.814 72.5107V60.4844H212.441V57.4961H227.324ZM218.418 72.4521C219.384 72.4229 220.366 72.3789 221.347 72.335V60.4844H218.418V72.4521ZM229.404 81.6953V55.0352H233.154V65.1719H237.08V68.2188H233.154V81.6953H229.404ZM259.185 68.8047V71.7637H240.318V56.998H258.98V60.0156H244.126V62.8281H258.364V65.7578H244.126V68.8047H259.185ZM237.446 78.5898V75.543H261.851V78.5898H237.446ZM279.108 57.7891V79H274.684V61.9785H274.567L269.704 65.0254V61.1289L274.948 57.7891H279.108ZM292.57 57.7891V79H288.146V61.9785H288.029L283.166 65.0254V61.1289L288.41 57.7891H292.57ZM320.33 68.1602V71.1777H296.013V68.1602H320.33ZM297.039 64.2637C302.722 63.9268 305.432 62.2129 305.96 60.3672H298.357V57.4082H306.296V55.123H309.988V57.4082H317.986V60.3672H310.31C310.823 62.2129 313.547 63.9268 319.246 64.2637L318.132 67.1055C313.211 66.7539 309.812 65.333 308.142 63.1797C306.458 65.333 303.059 66.7539 298.181 67.1055L297.039 64.2637ZM298.796 77.1543C298.796 74.2393 302.268 72.6279 308.142 72.6426C313.987 72.6279 317.4 74.2393 317.429 77.1543C317.4 80.0986 313.987 81.71 308.142 81.6953C302.268 81.71 298.796 80.0986 298.796 77.1543ZM302.605 77.1543C302.59 78.3848 304.407 78.9414 308.142 78.9414C311.79 78.9414 313.665 78.3848 313.679 77.1543C313.665 75.9531 311.79 75.3965 308.142 75.3965C304.407 75.3965 302.59 75.9531 302.605 77.1543Z" fill="#5277FF"/>
<path d="M118.332 100.371C120.988 100.371 122.902 102.793 122.922 106.602C122.902 110.439 120.988 112.852 118.332 112.852C115.646 112.852 113.732 110.439 113.742 106.602C113.732 102.793 115.646 100.371 118.332 100.371ZM115.832 106.602C115.822 109.316 116.848 110.889 118.332 110.898C119.826 110.889 120.822 109.316 120.832 106.602C120.822 103.906 119.826 102.324 118.332 102.324C116.848 102.324 115.822 103.906 115.832 106.602ZM125.246 116.738V99.082H127.414V105.859H130.129V107.695H127.414V116.738H125.246ZM145.178 99.1211V111.895H142.952V99.1211H145.178ZM130.569 108.047C132.688 106.426 133.586 104.756 133.821 102.305H131.155V100.527H135.92C135.901 104.316 135.032 107.051 132.014 109.375L130.569 108.047ZM133.323 116.387V110.898H135.491V114.629H145.627V116.387H133.323ZM135.725 108.848C137.932 106.982 138.752 105.01 138.938 102.305H136.565V100.527H140.979C140.969 104.453 140.295 107.52 137.209 110.176L135.725 108.848ZM166.312 99.5898V101.23H163.89V103.906H166.214V105.547H153.245V103.906H155.57V101.23H153.148V99.5898H166.312ZM151.702 108.379V106.66H167.796V108.379H151.702ZM153.597 111.152V109.57H165.784V113.77H155.745V114.961H166.273V116.582H153.616V112.266H163.655V111.152H153.597ZM157.737 103.906H161.702V101.23H157.737V103.906ZM182.416 99.082V105.859H185.13V107.676H182.416V116.758H180.267V99.082H182.416ZM169.291 102.383V100.625H177.416V107.285H171.478V110.801C174.281 110.781 176.459 110.664 178.92 110.234L179.115 111.992C176.39 112.48 173.988 112.598 170.775 112.598H169.33V105.547H175.248V102.383H169.291ZM194.594 101.504C194.594 104.229 197.26 106.973 200.961 107.617L199.984 109.434C197.025 108.818 194.604 107.021 193.451 104.648C192.289 107.002 189.867 108.809 186.918 109.434L185.961 107.617C189.604 106.953 192.279 104.219 192.289 101.504V100.195H194.594V101.504ZM185.473 114.492V112.695H201.605V114.492H185.473ZM217.065 110.547V116.738H214.877V112.305H205.014V110.547H217.065ZM203.334 108.984V100.273H211.87V102.012H205.541V103.75H211.362V105.43H205.541V107.266C208.842 107.256 210.854 107.168 213.178 106.797L213.393 108.516C210.864 108.916 208.647 108.994 204.838 108.984H203.334ZM214.877 109.805V99.082H217.065V109.805H214.877ZM238.374 99.082V108.809H236.206V105.273H232.788V103.516H236.206V99.082H238.374ZM223.902 103.379L230.21 103.145C230.376 102.676 230.493 102.188 230.552 101.68H224.8V99.9219H232.886C232.876 104.658 230.445 107.822 224.78 109.492L223.941 107.754C226.538 107.021 228.267 105.996 229.302 104.717L224.234 105.098L223.902 103.379ZM226.792 116.523V109.609H228.921V111.367H236.226V109.609H238.374V116.523H226.792ZM228.921 114.766H236.226V113.047H228.921V114.766ZM248.502 99.3555C252.525 99.3652 254.859 100.43 254.869 102.383C254.859 104.355 252.525 105.42 248.502 105.43C244.488 105.42 242.134 104.355 242.134 102.383C242.134 100.43 244.488 99.3652 248.502 99.3555ZM240.474 108.105V106.367H256.568V108.105H240.474ZM242.369 110.898V109.297H254.556V113.613H244.517V114.922H255.045V116.582H242.388V112.07H252.427V110.898H242.369ZM244.42 102.383C244.41 103.359 245.816 103.809 248.502 103.809C251.226 103.809 252.623 103.359 252.623 102.383C252.623 101.475 251.226 100.957 248.502 100.957C245.816 100.957 244.41 101.475 244.42 102.383ZM267.213 103.711C267.223 106.562 268.2 109.531 270.592 111.035L269.401 112.695C267.809 111.738 266.774 110.098 266.188 108.174C265.553 110.293 264.42 112.09 262.76 113.105L261.413 111.484C263.981 109.932 265.114 106.816 265.123 103.809V100.645H267.213V103.711ZM268.698 106.953V105.156H271.217V99.3945H273.268V115.879H271.217V106.953H268.698ZM274.85 116.738V99.082H276.94V116.738H274.85ZM294.704 109.023V110.82H287.673V116.738H285.524V110.82H278.571V109.023H294.704ZM280.27 103.672C280.261 101.25 282.839 99.7168 286.598 99.707C290.358 99.7168 292.956 101.25 292.966 103.672C292.956 106.064 290.358 107.588 286.598 107.578C282.839 107.588 280.261 106.064 280.27 103.672ZM282.497 103.672C282.487 105.049 284.108 105.859 286.598 105.859C289.098 105.859 290.72 105.049 290.72 103.672C290.72 102.285 289.098 101.465 286.598 101.465C284.108 101.465 282.487 102.285 282.497 103.672ZM304.538 100.566V101.973H308.093V99.1016H310.261V111.953H308.093V107.5H304.538V109.023H296.238V100.566H304.538ZM298.405 107.324H302.39V102.285H298.405V107.324ZM298.62 116.387V110.762H300.827V114.629H310.652V116.387H298.62ZM304.538 105.762H308.093V103.75H304.538V105.762ZM317.293 115V113.164L322.293 108.34C323.719 106.914 324.461 106.074 324.461 104.883C324.461 103.564 323.416 102.734 322.039 102.734C320.584 102.734 319.646 103.643 319.656 105.078H317.234C317.225 102.402 319.236 100.664 322.059 100.664C324.949 100.664 326.893 102.393 326.902 104.766C326.893 106.357 326.131 107.646 323.348 110.273L320.828 112.773V112.871H327.117V115H317.293ZM329.471 115L335.604 103.086V102.988H328.495V100.859H338.241V103.027L332.108 115H329.471ZM339.911 115V104.395H342.294V106.191H342.43C342.87 104.98 343.934 104.258 345.341 104.258C346.776 104.258 347.811 104.99 348.212 106.191H348.329C348.788 105.02 349.97 104.258 351.512 104.258C353.456 104.258 354.823 105.508 354.813 107.871V115H352.333V108.262C352.333 106.943 351.532 106.348 350.516 106.348C349.296 106.348 348.583 107.178 348.583 108.379V115H346.161V108.164C346.151 107.061 345.429 106.348 344.364 106.348C343.29 106.348 342.411 107.236 342.411 108.555V115H339.911ZM371.425 99.082V116.738H369.335V99.082H371.425ZM356.366 106.719C356.366 102.832 357.87 100.42 360.175 100.43C362.314 100.42 363.769 102.422 364.023 105.723H365.722V99.3945H367.792V115.879H365.722V107.48H364.042C363.837 110.928 362.363 113.037 360.175 113.027C357.87 113.037 356.366 110.615 356.366 106.719ZM358.378 106.719C358.368 109.482 359.052 110.967 360.175 110.957C361.347 110.967 362.04 109.482 362.05 106.719C362.04 103.965 361.347 102.471 360.175 102.48C359.052 102.471 358.368 103.965 358.378 106.719ZM389.209 112.812V114.59H373.076V112.812H376.806V108.35C375.4 107.539 374.55 106.27 374.56 104.707C374.55 101.895 377.304 100.039 381.103 100.039C384.921 100.039 387.695 101.895 387.685 104.707C387.695 106.25 386.865 107.49 385.498 108.301V112.812H389.209ZM376.689 104.707C376.679 106.514 378.466 107.666 381.103 107.656C383.73 107.666 385.556 106.514 385.556 104.707C385.556 102.871 383.73 101.748 381.103 101.758C378.466 101.748 376.679 102.871 376.689 104.707ZM378.955 112.812H383.291V109.131C382.617 109.277 381.884 109.355 381.103 109.355C380.341 109.355 379.619 109.277 378.955 109.141V112.812ZM392.109 115.156C391.27 115.156 390.576 114.473 390.586 113.633C390.576 112.812 391.27 112.139 392.109 112.129C392.92 112.139 393.613 112.812 393.613 113.633C393.613 114.473 392.92 115.156 392.109 115.156Z" fill="#444444"/>
<path d="M347.412 387.346C347.412 387.346 333.816 340.716 352.51 292.35C352.51 292.35 368.938 334.44 358.742 387.346H347.412Z" fill="#466922"/>
<path d="M146.47 387.346C146.47 387.346 132.874 347.223 151.568 305.605C151.568 305.605 167.996 341.822 157.8 387.346H146.47Z" fill="#466922"/>
<path d="M357.709 387.346C357.709 387.346 345.696 353.916 362.213 319.24C362.213 319.24 376.729 349.415 367.72 387.346H357.709Z" fill="#527A28"/>
<path d="M375.035 387.345V345.8C373.653 345.226 372.071 344.899 370.284 344.899C363.73 344.899 359.917 349.263 358.817 354.355C357.854 353.799 356.693 353.468 355.322 353.468C351.021 353.468 348.731 356.688 348.455 360.112H304.868C304.87 357.752 303.393 355.391 300.437 355.391C297.483 355.391 296.005 357.752 296.005 360.112H294.985C295.461 355.333 292.696 350.146 286.67 350.146C280.655 350.146 277.885 355.333 278.356 360.112H257.697C257.288 354.711 253.694 349.621 246.902 349.621C244.771 349.621 242.964 350.133 241.461 350.991C240.899 349.588 240.091 348.332 239.028 347.232C238.858 347.056 238.689 346.882 238.518 346.707C237.502 345.581 236.299 344.785 234.909 344.321C233.573 343.599 232.132 343.268 230.588 343.326C229.044 343.266 227.602 343.597 226.266 344.321C224.875 344.787 223.672 345.582 222.657 346.707C222.072 347.486 221.488 348.265 220.903 349.044C219.889 350.843 219.379 352.784 219.372 354.869L219.773 357.937C219.983 358.706 220.28 359.425 220.622 360.114H183.182C182.457 356.991 180.078 354.344 176.035 354.344C173.94 354.344 172.294 355.061 171.09 356.185C170.605 352.731 168.179 349.623 163.797 349.623C157.762 349.623 155.429 355.538 156.794 360.114H147.712C147.943 356.013 145.494 351.72 140.345 351.72C135.204 351.72 132.75 356.011 132.977 360.114V387.347H375.035V387.345Z" fill="#64942F"/>
<path d="M161.87 372.328C166.133 372.328 166.14 379.146 161.87 379.146C157.607 379.146 157.6 372.328 161.87 372.328Z" fill="#5B872B"/>
<path d="M144.136 371.278C146.556 371.278 146.56 375.147 144.136 375.147C141.716 375.148 141.712 371.278 144.136 371.278Z" fill="#5B872B"/>
<path d="M240.948 356.592H241.202C242.534 356.592 243.812 357.799 243.752 359.216C243.689 360.637 242.632 361.84 241.202 361.84H240.948C239.615 361.84 238.337 360.633 238.398 359.216C238.46 357.793 239.519 356.592 240.948 356.592Z" fill="#5B872B"/>
<path d="M227.902 354.493C229.542 354.493 229.545 357.116 227.902 357.116C226.262 357.116 226.26 354.493 227.902 354.493Z" fill="#5B872B"/>
<path d="M228.457 364.986C231.737 364.986 231.742 370.231 228.457 370.231C225.175 370.231 225.169 364.986 228.457 364.986Z" fill="#5B872B"/>
<path d="M324.623 368.657H324.756C325.454 368.657 326.124 369.289 326.091 370.03C326.059 370.774 325.504 371.405 324.756 371.405H324.623C323.924 371.405 323.255 370.772 323.288 370.03C323.32 369.286 323.875 368.657 324.623 368.657Z" fill="#5B872B"/>
<path d="M368.661 359.738C371.942 359.738 371.947 364.984 368.661 364.984C365.381 364.986 365.376 359.738 368.661 359.738Z" fill="#5B872B"/>
<path d="M363.801 364.46C366.426 364.46 366.43 368.656 363.801 368.656C361.177 368.656 361.172 364.46 363.801 364.46Z" fill="#5B872B"/>
<path d="M375.037 387.346H132.965V400.753H375.037V387.346Z" fill="#80B407"/>
<path d="M274.835 162.959H162.885V387.346H274.835V162.959Z" fill="#C0D9E8"/>
<path d="M274.835 177.917H184.21V387.345H274.835V177.917Z" fill="#2A75AE"/>
<path d="M274.835 194.028H184.21V198.055H274.835V194.028Z" fill="#4298C7"/>
<path d="M274.835 218.768H184.21V222.795H274.835V218.768Z" fill="#4298C7"/>
<path d="M274.835 243.509H184.21V247.536H274.835V243.509Z" fill="#4298C7"/>
<path d="M274.835 268.248H184.21V272.275H274.835V268.248Z" fill="#4298C7"/>
<path d="M274.835 292.988H184.21V297.015H274.835V292.988Z" fill="#4298C7"/>
<path d="M274.835 317.728H184.21V321.755H274.835V317.728Z" fill="#4298C7"/>
<path d="M274.835 342.468H184.21V346.496H274.835V342.468Z" fill="#4298C7"/>
<path d="M274.835 367.208H184.21V371.235H274.835V367.208Z" fill="#4298C7"/>
<path opacity="0.2" d="M274.835 177.917H193.687H184.21V184.055V387.345H193.687V184.055H274.835V177.917Z" fill="#204152"/>
<path d="M274.835 148H162.885V154.329H274.835V148Z" fill="#EEF7FC"/>
<path d="M270.837 154.329H166.883V162.959H270.837V154.329Z" fill="#B4D4E9"/>
<path opacity="0.1" d="M274.835 230.946L184.21 260.002V177.917H274.835V230.946Z" fill="white"/>
<path opacity="0.1" d="M274.835 297.064L184.21 326.119V310.585L274.835 281.53V297.064Z" fill="white"/>
<path opacity="0.1" d="M274.835 336.763L184.21 365.818V335.037L274.835 305.982V336.763Z" fill="white"/>
<path d="M232.187 177.917H226.856V387.345H232.187V177.917Z" fill="#EEF7FC"/>
<path d="M347.141 186.089H274.835V387.345H347.141V186.089Z" fill="#B4D4E9"/>
<path d="M347.141 201.864H301.52V208.734H347.141V201.864Z" fill="#365784"/>
<path d="M347.141 218.403H301.52V225.273H347.141V218.403Z" fill="#365784"/>
<path d="M347.141 234.94H301.52V241.81H347.141V234.94Z" fill="#365784"/>
<path d="M347.141 251.479H301.52V258.348H347.141V251.479Z" fill="#365784"/>
<path d="M347.141 268.018H301.52V274.887H347.141V268.018Z" fill="#365784"/>
<path d="M347.141 284.555H301.52V291.425H347.141V284.555Z" fill="#365784"/>
<path d="M347.141 301.093H301.52V307.963H347.141V301.093Z" fill="#365784"/>
<path d="M347.141 317.632H301.52V324.502H347.141V317.632Z" fill="#365784"/>
<path d="M347.141 334.17H301.52V341.04H347.141V334.17Z" fill="#365784"/>
<path d="M347.141 350.708H301.52V357.578H347.141V350.708Z" fill="#365784"/>
<path d="M347.141 367.247H301.52V374.117H347.141V367.247Z" fill="#365784"/>
<path opacity="0.2" d="M288.162 186.089H274.835V387.345H288.162V186.089Z" fill="#335582"/>
</g>
<rect x="1.16699" y="0.5" width="505.667" height="399" rx="19.5" stroke="#E2E2E2"/>
<defs>
<clipPath id="clip0_195_50330">
<rect x="0.666992" width="506.667" height="400" rx="20" fill="white"/>
</clipPath>
</defs>
</svg>
