<svg width="507" height="400" viewBox="0 0 507 400" fill="none" xmlns="http://www.w3.org/2000/svg">
<rect x="0.833008" y="0.5" width="505.667" height="399" rx="19.5" fill="#F3F8FF"/>
<path d="M201.072 55.0352V81.6953H197.498V55.0352H201.072ZM178.191 66.5781C178.191 60.6162 180.462 56.9248 183.992 56.9395C187.2 56.9248 189.397 59.9277 189.808 64.9082H191.99V55.416H195.506V80.4648H191.99V67.8672H189.837C189.515 73.0967 187.273 76.2754 183.992 76.2754C180.462 76.2754 178.191 72.5693 178.191 66.5781ZM181.648 66.5781C181.619 70.6797 182.498 72.7012 183.992 72.6719C185.53 72.7012 186.438 70.6797 186.424 66.5781C186.438 62.4912 185.53 60.4551 183.992 60.4551C182.498 60.4551 181.619 62.4912 181.648 66.5781ZM210.638 56.9102C214.242 56.9102 216.937 59.8691 217.464 64.6738H222.093V55.0352H225.785V81.7539H222.093V67.6621H217.508C217.113 72.7891 214.359 75.9238 210.638 75.9238C206.595 75.9238 203.695 72.2617 203.724 66.4023C203.695 60.5869 206.595 56.9102 210.638 56.9102ZM207.298 66.4023C207.284 70.3721 208.646 72.54 210.638 72.5254C212.645 72.54 213.978 70.3721 213.978 66.4023C213.978 62.4473 212.645 60.2793 210.638 60.2793C208.646 60.2793 207.284 62.4473 207.298 66.4023ZM242.675 57.0566C242.675 64.5127 239.482 69.5664 230.487 72.4375L229.052 69.5664C232.875 68.3359 235.321 66.8125 236.801 64.9668L229.579 65.5527L229.052 62.5938L238.266 62.2715C238.5 61.583 238.647 60.8359 238.735 60.0742H230.4V57.0566H242.675ZM233.534 81.2266V72.8184H237.314V78.2383H251.757V81.2266H233.534ZM242.529 66.1387V63.1211H247.362V55.0645H251.083V74.7227H247.362V66.1387H242.529ZM268.985 79.293C264.327 79.293 260.987 76.7295 260.899 73.0234H265.352C265.425 74.6055 266.963 75.6455 269.014 75.6602C271.123 75.6455 272.632 74.4736 272.618 72.7598C272.632 71.0312 271.094 69.8154 268.604 69.8008H266.641V66.5488H268.604C270.699 66.5488 272.163 65.4062 272.149 63.7363C272.163 62.1104 270.918 60.9971 269.043 61.0117C267.168 60.9971 265.63 62.0518 265.557 63.6777H261.338C261.412 60.0303 264.693 57.4961 269.043 57.4961C273.467 57.4961 276.412 60.1182 276.397 63.4727C276.412 65.8457 274.756 67.5303 272.383 67.9551V68.1309C275.503 68.5117 277.217 70.4014 277.188 73.0527C277.217 76.6855 273.775 79.293 268.985 79.293ZM289.186 61.0703C289.171 65.9629 291.397 70.8701 295.924 72.7891L293.727 75.7773C290.68 74.4004 288.57 71.7344 287.354 68.4385C286.153 72.042 283.971 74.9424 280.719 76.4219L278.463 73.3164C283.121 71.3535 285.392 66.2412 285.406 61.0703V57.0859H289.186V61.0703ZM297.359 81.7539V55.0352H301.139V81.7539H297.359ZM325.295 55.0352V62.5059H328.898V65.582H325.295V74.1367H321.515V55.0352H325.295ZM303.966 68.5703C309.943 66.915 313.327 63.8242 313.913 60.0742H305.138V57.0273H318.029C318.014 64.2344 313.517 69.2734 305.519 71.5293L303.966 68.5703ZM307.951 81.2266V72.1738H311.73V78.2383H326.203V81.2266H307.951Z" fill="#5277FF"/>
<path d="M134.037 99.1016V111.992H131.869V105.527H128.744V103.77H131.869V99.1016H134.037ZM119.213 108.184C122.025 107.256 123.529 104.951 123.529 102.598V102.129H119.857V100.371H129.389V102.129H125.736V102.617C125.736 104.736 127.162 106.934 129.896 107.832L128.803 109.57C126.83 108.896 125.434 107.549 124.662 105.879C123.891 107.734 122.416 109.219 120.326 109.941L119.213 108.184ZM122.455 116.387V110.859H124.623V114.629H134.486V116.387H122.455ZM150.883 99.082V116.738H148.696V99.082H150.883ZM136.254 111.875C140.883 109.678 143.012 106.689 143.403 102.676H137.153V100.957H145.61C145.61 106.211 143.569 110.674 137.387 113.613L136.254 111.875ZM163.696 100.859V115H161.138V103.34H161.06L157.759 105.449V103.125L161.255 100.859H163.696ZM171.871 115.195C168.716 115.195 166.49 113.516 166.5 111.211C166.49 109.414 167.828 107.949 169.527 107.676V107.598C168.043 107.285 167.037 105.996 167.027 104.453C167.037 102.266 169.078 100.664 171.871 100.664C174.644 100.664 176.695 102.266 176.695 104.453C176.695 106.006 175.66 107.285 174.195 107.598V107.676C175.884 107.949 177.232 109.414 177.242 111.211C177.232 113.516 174.996 115.195 171.871 115.195ZM169.117 110.977C169.107 112.285 170.191 113.184 171.871 113.184C173.531 113.184 174.615 112.285 174.625 110.977C174.615 109.648 173.463 108.662 171.871 108.672C170.279 108.662 169.107 109.639 169.117 110.977ZM169.507 104.688C169.517 105.928 170.494 106.777 171.871 106.777C173.228 106.777 174.214 105.928 174.214 104.688C174.214 103.486 173.257 102.656 171.871 102.656C170.455 102.656 169.517 103.486 169.507 104.688ZM180.084 115.156C179.244 115.156 178.551 114.473 178.561 113.633C178.551 112.812 179.244 112.139 180.084 112.129C180.895 112.139 181.588 112.812 181.588 113.633C181.588 114.473 180.895 115.156 180.084 115.156ZM188.239 115.195C185.221 115.195 183.063 113.555 183.004 111.172H185.563C185.631 112.305 186.764 113.057 188.239 113.047C189.791 113.057 190.914 112.197 190.914 110.938C190.914 109.668 189.821 108.76 187.985 108.75H186.715V106.797H187.985C189.489 106.797 190.534 105.957 190.524 104.727C190.534 103.535 189.635 102.734 188.258 102.734C186.93 102.734 185.787 103.477 185.739 104.668H183.297C183.356 102.295 185.514 100.664 188.278 100.664C191.149 100.664 193.004 102.422 192.985 104.59C193.004 106.172 191.95 107.314 190.407 107.637V107.754C192.399 108.018 193.532 109.297 193.512 111.074C193.532 113.467 191.295 115.195 188.239 115.195ZM200.358 100.664C203.122 100.684 205.876 102.334 205.886 107.5C205.886 112.373 203.679 115.195 200.202 115.195C197.477 115.195 195.593 113.496 195.28 111.152H197.8C198.054 112.275 198.923 112.988 200.202 112.988C202.253 112.988 203.405 111.182 203.425 108.145H203.268C202.555 109.375 201.188 110.107 199.636 110.098C197.106 110.107 195.153 108.184 195.143 105.508C195.143 102.744 197.223 100.645 200.358 100.664ZM197.624 105.449C197.624 106.973 198.757 108.164 200.339 108.164C201.911 108.164 203.122 106.895 203.112 105.43C203.112 103.994 201.96 102.725 200.378 102.715C198.786 102.725 197.604 103.936 197.624 105.449ZM207.614 115V100.859H210.114V108.652H210.29L214.099 104.395H217.009L212.898 108.965L217.263 115H214.294L211.032 110.449L210.114 111.426V115H207.614ZM221.199 115L217.214 100.859H219.949L222.507 111.27H222.644L225.359 100.859H227.859L230.593 111.289H230.711L233.269 100.859H236.004L232.019 115H229.5L226.668 105.059H226.57L223.718 115H221.199ZM252.615 107.09V108.73H236.482V107.09H252.615ZM238.357 111.309V109.785H250.662V113.809H240.545V115.039H251.189V116.543H238.377V112.402H248.514V111.309H238.357ZM238.475 100.977V99.4727H250.623V103.457H240.682V104.609H250.936V106.094H238.533V102.051H248.455V100.977H238.475ZM263.241 102.363C263.251 104.268 264.364 106.191 266.679 107.07L265.526 108.73C263.954 108.135 262.86 107.002 262.225 105.635C261.581 107.207 260.429 108.555 258.749 109.258L257.577 107.598C260.009 106.523 261.141 104.316 261.151 102.363V100.176H263.241V102.363ZM260.819 113.457C260.809 111.426 263.153 110.215 266.874 110.215C270.565 110.215 272.919 111.426 272.929 113.457C272.919 115.498 270.565 116.719 266.874 116.719C263.153 116.719 260.809 115.498 260.819 113.457ZM262.987 113.457C262.977 114.502 264.423 115.068 266.874 115.059C269.286 115.068 270.731 114.502 270.741 113.457C270.731 112.422 269.286 111.855 266.874 111.855C264.423 111.855 262.977 112.422 262.987 113.457ZM266.971 109.375V99.4336H269.003V103.555H270.761V99.1016H272.831V109.922H270.761V105.332H269.003V109.375H266.971ZM280.946 102.207C280.927 104.521 282.392 106.738 285.165 107.637L284.032 109.355C282.079 108.691 280.683 107.363 279.911 105.664C279.13 107.539 277.675 109.004 275.614 109.727L274.404 108.008C277.304 107.061 278.759 104.697 278.759 102.188V100.176H280.946V102.207ZM277.236 116.387V110.781H279.462V114.629H289.247V116.387H277.236ZM286.376 112.051V99.082H288.544V104.297H291.005V106.133H288.544V112.051H286.376ZM305.429 99.043V103.027H307.91V104.785H305.429V108.672H303.261V99.043H305.429ZM291.523 102.168V100.508H295.683V98.9453H297.851V100.508H301.992V102.168H291.523ZM292.421 105.605C292.421 103.848 294.15 102.725 296.757 102.715C299.375 102.725 301.064 103.848 301.074 105.605C301.064 107.412 299.375 108.496 296.757 108.496C294.15 108.496 292.421 107.412 292.421 105.605ZM293.886 111.035V109.453H305.429V113.711H296.054V114.961H305.976V116.582H293.906V112.207H303.261V111.035H293.886ZM294.531 105.605C294.521 106.475 295.39 106.924 296.757 106.934C298.125 106.924 299.004 106.475 299.004 105.605C299.004 104.766 298.125 104.268 296.757 104.277C295.39 104.268 294.521 104.766 294.531 105.605ZM321.934 100.547C321.924 102.764 324.414 105.02 328.184 105.508L327.325 107.266C324.327 106.816 321.944 105.342 320.791 103.35C319.639 105.342 317.266 106.816 314.297 107.266L313.438 105.508C317.168 105.02 319.649 102.783 319.649 100.547V99.6484H321.934V100.547ZM312.735 110.586V108.789H328.829V110.586H321.817V116.738H319.668V110.586H312.735ZM340.236 110.566C340.236 112.041 340.909 113.574 342.423 114.551C343.966 113.506 344.679 111.904 344.689 110.566V109.844H346.818V110.566C346.808 112.412 347.902 114.15 350.216 114.883L349.161 116.465C347.443 115.889 346.31 114.766 345.695 113.35C345.118 114.746 344.083 115.977 342.482 116.621C340.802 116.006 339.747 114.814 339.191 113.418C338.556 114.775 337.433 115.879 335.802 116.465L334.728 114.883C337.013 114.082 338.116 112.285 338.126 110.566V109.844H340.236V110.566ZM334.279 104.238C334.279 101.758 336.31 100.039 339.044 100.039C341.769 100.039 343.8 101.758 343.79 104.238C343.8 106.689 341.769 108.428 339.044 108.418C336.31 108.428 334.279 106.689 334.279 104.238ZM336.407 104.238C336.398 105.684 337.501 106.611 339.044 106.621C340.558 106.611 341.661 105.684 341.661 104.238C341.661 102.793 340.558 101.865 339.044 101.875C337.501 101.865 336.398 102.793 336.407 104.238ZM346.486 109.102V99.1016H348.673V109.102H346.486ZM355.675 100.371C358.058 100.371 359.826 102.363 360.138 105.586H363.507V99.082H365.656V116.758H363.507V107.344H360.158C359.923 110.752 358.127 112.852 355.675 112.852C353.019 112.852 351.134 110.439 351.144 106.602C351.134 102.793 353.019 100.371 355.675 100.371ZM353.234 106.602C353.224 109.316 354.22 110.889 355.675 110.898C357.14 110.889 358.127 109.316 358.136 106.602C358.127 103.906 357.14 102.324 355.675 102.324C354.22 102.324 353.224 103.906 353.234 106.602ZM383.869 112.812V114.59H367.736V112.812H371.467V108.35C370.061 107.539 369.211 106.27 369.221 104.707C369.211 101.895 371.965 100.039 375.764 100.039C379.582 100.039 382.355 101.895 382.346 104.707C382.355 106.25 381.525 107.49 380.158 108.301V112.812H383.869ZM371.35 104.707C371.34 106.514 373.127 107.666 375.764 107.656C378.391 107.666 380.217 106.514 380.217 104.707C380.217 102.871 378.391 101.748 375.764 101.758C373.127 101.748 371.34 102.871 371.35 104.707ZM373.615 112.812H377.951V109.131C377.277 109.277 376.545 109.355 375.764 109.355C375.002 109.355 374.279 109.277 373.615 109.141V112.812ZM386.77 115.156C385.93 115.156 385.237 114.473 385.246 113.633C385.237 112.812 385.93 112.139 386.77 112.129C387.58 112.139 388.274 112.812 388.274 113.633C388.274 114.473 387.58 115.156 386.77 115.156Z" fill="#444444"/>
<path d="M433.879 197.807H394.318H110.802H96.2324C88.4678 197.807 82.1314 203.493 81.9838 210.595C81.4918 234.251 82.511 301.622 82.511 301.622C84.9295 334.429 105.889 332.032 105.889 332.032L418.323 332.032H433.88C440.662 332.032 446.161 327.002 446.161 320.797V209.043C446.161 202.837 440.662 197.807 433.879 197.807Z" fill="#00558D"/>
<path d="M423.993 322.225H99.7168V188H423.993C430.114 188 435.076 192.54 435.076 198.139V312.086C435.076 317.685 430.114 322.225 423.993 322.225Z" fill="#6DABC6"/>
<path d="M85.1474 188C77.3828 188 71.0464 193.686 70.8988 200.788C70.4069 224.443 71.426 291.815 71.426 291.815C73.8445 324.622 94.8044 322.225 94.8044 322.225L407.238 322.225C407.238 322.225 395.429 315.125 394.793 294.961C394.208 276.416 395.812 236.554 394.528 198.022C394.342 192.438 389.34 188 383.234 188H85.1474Z" fill="#ADD1E9"/>
<path d="M86.125 291.815C86.125 291.815 86.78 307.544 94.8037 310.241H376.453C376.453 310.241 371.704 307.095 371.376 291.815H86.125Z" fill="#1A4765"/>
<path d="M95.248 188C95.248 188 94.3193 221.644 94.7907 248.905C94.9289 256.905 101.14 263.317 108.76 263.317H354.991C361.456 263.317 366.72 257.86 366.803 251.071C366.933 240.377 367.072 221.189 367.072 188H95.248V188Z" fill="#829DAF"/>
<path d="M92.8389 188C92.8389 188 91.9102 220.522 92.3814 246.874C92.5197 254.608 98.7307 260.805 106.35 260.805H352.582C359.047 260.805 364.311 255.53 364.394 248.968C364.524 238.631 364.663 220.083 364.663 188L92.8389 188Z" fill="#CEE3F2"/>
<path d="M96.9324 291.815V310.241C96.9324 310.241 86.125 312.937 86.125 291.815H96.9324Z" fill="#266693"/>
<path d="M371.622 296.87L370.353 304.997H90.1074L96.9327 295.859L371.622 296.87Z" fill="#5CA4D4"/>
<path d="M371.163 299.11L370.353 304.998H90.1074L94.7668 298.759L371.163 299.11Z" fill="#85BBDF"/>
<path d="M371.623 296.87C371.623 296.87 371.94 299.844 372.35 301.342L370.354 304.997C370.354 304.997 370.856 300.016 371.623 296.87Z" fill="#266693"/>
<path opacity="0.74" d="M346.819 230.245H112.321C107.349 230.245 103.319 226.558 103.319 222.01V200.729C103.319 196.181 107.349 192.494 112.321 192.494H346.82C351.791 192.494 355.821 196.181 355.821 200.729V222.01C355.821 226.558 351.791 230.245 346.819 230.245Z" fill="#EBF4FA"/>
<path d="M344.464 202.918H160.739C157.65 202.918 155.146 200.627 155.146 197.802C155.146 194.976 157.65 192.686 160.739 192.686H344.464C347.553 192.686 350.057 194.976 350.057 197.802C350.057 200.627 347.553 202.918 344.464 202.918Z" fill="white"/>
<path d="M141.28 202.918H121.717C118.629 202.918 116.125 200.627 116.125 197.802C116.125 194.976 118.629 192.686 121.717 192.686H141.28C144.369 192.686 146.873 194.976 146.873 197.802C146.873 200.627 144.369 202.918 141.28 202.918Z" fill="white"/>
<path d="M116.49 322.225C116.49 322.225 118.27 314.414 132.605 310.241H125.512C125.512 310.241 114.116 314.793 112.724 322.264C112.724 322.264 114.855 322.198 116.49 322.225Z" fill="#829DAF"/>
<path d="M151.217 322.225C151.217 322.225 151.804 314.461 170.049 310.24H160.238C160.238 310.24 147.082 314.683 145.689 322.155C145.689 322.155 149.582 322.197 151.217 322.225Z" fill="#829DAF"/>
<path d="M135.067 310.107C135.067 310.107 120.843 304.336 111.425 317.88C107.816 323.071 105.175 332.486 91.5297 334.979C78.2525 337.405 68.2601 333.385 68.2601 333.385L54.9316 333.954C54.9316 333.954 72.1926 338.861 84.0381 338.861C104.101 338.861 108.232 331.812 114.373 321.026C117.496 315.54 120.941 310.146 135.701 310.363L135.067 310.107Z" fill="white"/>
<path d="M108.231 338.861C108.231 338.861 125.916 338.104 131.32 334.808C135.973 331.971 139.606 328.302 141.309 323.873C147.531 307.694 161.45 309.482 161.45 309.482L171.439 310.363C171.439 310.363 149.676 309.874 146.161 323.069C143.377 333.516 136.145 341.55 122.641 340.052L108.231 338.861Z" fill="white"/>
<path d="M92.7802 322.225C92.7802 322.225 94.5603 314.413 108.894 310.24H101.801C101.801 310.24 90.9913 314.242 89.5986 321.713C89.5986 321.713 91.1451 322.197 92.7802 322.225Z" fill="#829DAF"/>
<path d="M103.134 309.755C103.134 309.755 95.3158 306.707 85.2405 320.983C81.5946 326.149 76.597 324.804 54.9311 322.974C30.5324 320.912 23 339.003 23 339.003L36.496 338.361C36.496 338.361 37.5796 330.727 49.118 328.067C67.3196 323.872 74.8266 332.262 86.8627 324.448C92.2751 320.935 90.84 313.053 105.175 310.363L103.134 309.755Z" fill="white"/>
<path d="M369.495 301.879L92.7495 301.742L90.6055 304.331H369.495V301.879Z" fill="#ADD1E9"/>
<path d="M383.275 302.759H380.27C379.617 302.759 379.088 302.275 379.088 301.678V299.669C379.088 299.072 379.617 298.587 380.27 298.587H383.275C383.928 298.587 384.457 299.072 384.457 299.669V301.678C384.457 302.275 383.928 302.759 383.275 302.759Z" fill="#6DABC6"/>
<path d="M382.129 297.009H379.125C378.472 297.009 377.942 296.525 377.942 295.928V293.919C377.942 293.322 378.472 292.837 379.125 292.837H382.129C382.782 292.837 383.312 293.322 383.312 293.919V295.928C383.312 296.525 382.782 297.009 382.129 297.009Z" fill="#6DABC6"/>
<path d="M382.13 297.01H379.618C378.965 297.01 378.436 296.526 378.436 295.929V294.441C378.436 293.844 378.965 293.36 379.618 293.36H382.13C382.783 293.36 383.312 293.844 383.312 294.441V295.929C383.312 296.526 382.783 297.01 382.13 297.01Z" fill="#00A99D"/>
<path d="M383.274 302.759H380.762C380.109 302.759 379.58 302.275 379.58 301.678V300.19C379.58 299.593 380.109 299.109 380.762 299.109H383.274C383.927 299.109 384.457 299.593 384.457 300.19V301.678C384.457 302.275 383.927 302.759 383.274 302.759Z" fill="#FBB03B"/>
<rect x="0.833008" y="0.5" width="505.667" height="399" rx="19.5" stroke="#E2E2E2"/>
</svg>
