<svg width="507" height="400" viewBox="0 0 507 400" fill="none" xmlns="http://www.w3.org/2000/svg">
<g clip-path="url(#clip0_195_50239)">
<rect width="506.667" height="400" rx="20" fill="#F3F8FF"/>
<path d="M208.595 55.0352V81.6953H204.874V68.3359H199.571V65.2891H204.874V55.0352H208.595ZM185.86 74.1367C192.599 70.8115 195.396 66.5928 195.953 60.748H187.12V57.8184H199.718C199.703 65.8604 197.096 72.4521 187.794 77.0664L185.86 74.1367ZM233.805 55.0352V81.7539H230.085V55.0352H233.805ZM212.858 60.2793V57.2617H225.544V67.5449H216.754V72.4375C220.827 72.4082 224.269 72.2031 228.18 71.5586L228.503 74.5762C224.123 75.3525 220.153 75.5137 215.29 75.5137H212.887V64.5859H221.735V60.2793H212.858ZM251.765 79.293C247.342 79.293 244.104 76.6855 244.031 73.0234H248.308C248.411 74.6787 249.92 75.8213 251.765 75.8066C253.963 75.8213 255.53 74.2686 255.515 72.0566C255.53 69.8008 253.933 68.2334 251.707 68.2188C250.11 68.2188 248.997 68.8193 248.367 70.0059H244.383L245.525 57.7891H258.592V61.3926H249.158L248.572 66.7539H248.748C249.524 65.7139 251.136 64.9521 252.996 64.9668C256.892 64.9521 259.793 67.8672 259.793 71.9395C259.793 76.2314 256.541 79.293 251.765 79.293ZM262.181 79L262.152 75.8066L269.769 68.8047C271.746 66.915 272.816 65.7432 272.816 64.0586C272.816 62.1689 271.395 60.9971 269.447 61.0117C267.454 60.9971 266.151 62.2568 266.165 64.293H261.976C261.961 60.1475 265.037 57.4961 269.505 57.4961C274.046 57.4961 277.064 60.0889 277.064 63.7656C277.064 66.1826 275.892 68.1602 271.527 72.1152L268.304 75.25V75.3672H277.357V79H262.181ZM279.921 79V57.7891H284.257V69.1855H284.491L289.647 63.0918H294.628L288.695 69.9766L294.95 79H289.853L285.473 72.5254L284.257 73.9023V79H279.921ZM296.049 79V63.0918H300.18V65.875H300.356C301.03 64.0146 302.641 62.8867 304.78 62.8867C306.963 62.8867 308.588 64.0439 309.116 65.875H309.262C309.921 64.0732 311.738 62.8867 314.067 62.8867C317.011 62.8867 319.077 64.835 319.077 68.3066V79H314.741V69.1562C314.755 67.3398 313.671 66.4609 312.251 66.4609C310.625 66.4609 309.658 67.5889 309.672 69.2734V79H305.454V69.0391C305.468 67.4717 304.472 66.4609 302.993 66.4609C301.513 66.4609 300.371 67.6475 300.385 69.4492V79H296.049Z" fill="#5277FF"/>
<path d="M141.579 100.02C141.579 102.012 144.021 104.043 147.653 104.473L146.853 106.191C143.933 105.781 141.608 104.443 140.476 102.617C139.343 104.453 137.019 105.781 134.079 106.191L133.259 104.473C136.911 104.043 139.343 102.031 139.353 100.02V99.375H141.579V100.02ZM132.419 109.023V107.305H148.513V109.023H132.419ZM134.294 113.555C134.294 111.504 136.589 110.371 140.446 110.391C144.245 110.371 146.55 111.504 146.56 113.555C146.55 115.586 144.245 116.729 140.446 116.738C136.589 116.729 134.294 115.586 134.294 113.555ZM136.501 113.555C136.491 114.561 137.878 115.068 140.446 115.059C142.976 115.068 144.372 114.561 144.392 113.555C144.372 112.549 142.976 112.041 140.446 112.031C137.878 112.041 136.491 112.549 136.501 113.555ZM165.398 107.578V109.316H149.304V107.578H153.054V105.342C151.716 104.775 150.964 103.887 150.964 102.734C150.964 100.615 153.435 99.375 157.331 99.375C161.218 99.375 163.689 100.615 163.699 102.734C163.689 103.896 162.927 104.785 161.589 105.342V107.578H165.398ZM151.179 113.535C151.179 111.504 153.474 110.371 157.331 110.391C161.13 110.371 163.435 111.504 163.445 113.535C163.435 115.586 161.13 116.699 157.331 116.699C153.474 116.699 151.179 115.586 151.179 113.535ZM153.23 102.734C153.21 103.809 154.724 104.385 157.331 104.375C159.929 104.385 161.453 103.809 161.453 102.734C161.453 101.65 159.929 101.045 157.331 101.055C154.724 101.045 153.21 101.65 153.23 102.734ZM153.386 113.535C153.376 114.531 154.763 115.068 157.331 115.059C159.861 115.068 161.257 114.531 161.277 113.535C161.257 112.549 159.861 112.041 157.331 112.031C154.763 112.041 153.376 112.549 153.386 113.535ZM155.242 107.578H159.421V105.898C158.787 105.986 158.083 106.035 157.331 106.035C156.579 106.035 155.876 105.986 155.242 105.898V107.578ZM172.4 104.688C172.4 107.305 173.875 110.156 176.599 111.445L175.388 113.086C173.474 112.207 172.097 110.449 171.355 108.389C170.584 110.615 169.129 112.49 167.107 113.398L165.916 111.719C168.699 110.469 170.252 107.461 170.252 104.688V103.77H166.482V102.031H170.252V99.4531H172.42V102.031H176.131V103.77H172.4V104.688ZM177.849 116.738V99.082H180.017V106.074H182.732V107.891H180.017V116.738H177.849ZM199.207 112.891V114.688H183.074V112.891H190.028V110.02H184.988V104.238H195.145V102.051H184.949V100.293H197.293V105.957H187.156V108.242H197.703V110.02H192.176V112.891H199.207ZM218.993 99.082V116.758H216.806V99.082H218.993ZM204.872 106.602C204.862 102.793 206.806 100.371 209.481 100.371C212.128 100.371 214.081 102.793 214.091 106.602C214.081 110.439 212.128 112.852 209.481 112.852C206.806 112.852 204.862 110.439 204.872 106.602ZM206.962 106.602C206.962 109.316 207.987 110.889 209.481 110.898C210.966 110.889 211.981 109.316 211.981 106.602C211.981 103.906 210.966 102.324 209.481 102.324C207.987 102.324 206.962 103.906 206.962 106.602ZM230.156 100.605V108.945H221.796V100.605H230.156ZM223.808 116.387V110.723H225.976V114.629H235.82V116.387H223.808ZM223.925 107.227H228.027V102.344H223.925V107.227ZM232.949 111.973V99.082H235.117V104.258H237.578V106.074H235.117V111.973H232.949ZM252.236 99.7656V101.289C252.246 102.852 252.246 104.609 251.777 106.992H254.17V108.77H238.076V106.992H249.58C249.746 106.182 249.853 105.439 249.931 104.766L239.873 105.215L239.619 103.418L250.039 103.164C250.068 102.578 250.068 102.031 250.068 101.504H240.068V99.7656H252.236ZM240.01 116.523V110.391H252.217V116.523H240.01ZM242.138 114.766H250.068V112.129H242.138V114.766ZM267.901 100.039V101.777H262.139V105.703C265.352 105.684 267.276 105.557 269.463 105.117L269.698 106.797C267.325 107.334 265.176 107.412 261.417 107.402H259.991V100.039H267.901ZM261.69 110.41V108.672H273.233V113.359H263.858V114.766H273.78V116.523H261.71V111.719H271.065V110.41H261.69ZM271.065 107.91V99.082H273.233V102.559H275.694V104.336H273.233V107.91H271.065ZM285.294 99.9219V104.551H279.239V106.152C282.54 106.133 284.562 106.055 286.954 105.684L287.169 107.324C284.562 107.754 282.345 107.832 278.575 107.832H277.091V103.008H283.146V101.582H277.032V99.9219H285.294ZM279.181 110.664V109.004H290.899V113.496H281.407V114.902H291.427V116.582H279.22V111.914H288.673V110.664H279.181ZM288.712 108.32V99.082H290.899V108.32H288.712ZM306.623 100.547C306.613 102.764 309.103 105.02 312.873 105.508L312.013 107.266C309.015 106.816 306.633 105.342 305.48 103.35C304.328 105.342 301.955 106.816 298.986 107.266L298.127 105.508C301.857 105.02 304.338 102.783 304.338 100.547V99.6484H306.623V100.547ZM297.424 110.586V108.789H313.517V110.586H306.506V116.738H304.357V110.586H297.424ZM324.924 110.566C324.924 112.041 325.598 113.574 327.112 114.551C328.655 113.506 329.368 111.904 329.378 110.566V109.844H331.506V110.566C331.497 112.412 332.59 114.15 334.905 114.883L333.85 116.465C332.131 115.889 330.999 114.766 330.383 113.35C329.807 114.746 328.772 115.977 327.171 116.621C325.491 116.006 324.436 114.814 323.879 113.418C323.245 114.775 322.122 115.879 320.491 116.465L319.417 114.883C321.702 114.082 322.805 112.285 322.815 110.566V109.844H324.924V110.566ZM318.967 104.238C318.967 101.758 320.999 100.039 323.733 100.039C326.458 100.039 328.489 101.758 328.479 104.238C328.489 106.689 326.458 108.428 323.733 108.418C320.999 108.428 318.967 106.689 318.967 104.238ZM321.096 104.238C321.087 105.684 322.19 106.611 323.733 106.621C325.247 106.611 326.35 105.684 326.35 104.238C326.35 102.793 325.247 101.865 323.733 101.875C322.19 101.865 321.087 102.793 321.096 104.238ZM331.174 109.102V99.1016H333.362V109.102H331.174ZM340.364 100.371C342.747 100.371 344.515 102.363 344.827 105.586H348.196V99.082H350.345V116.758H348.196V107.344H344.847C344.612 110.752 342.815 112.852 340.364 112.852C337.708 112.852 335.823 110.439 335.833 106.602C335.823 102.793 337.708 100.371 340.364 100.371ZM337.923 106.602C337.913 109.316 338.909 110.889 340.364 110.898C341.829 110.889 342.815 109.316 342.825 106.602C342.815 103.906 341.829 102.324 340.364 102.324C338.909 102.324 337.913 103.906 337.923 106.602ZM368.558 112.812V114.59H352.425V112.812H356.156V108.35C354.749 107.539 353.9 106.27 353.91 104.707C353.9 101.895 356.654 100.039 360.453 100.039C364.271 100.039 367.044 101.895 367.035 104.707C367.044 106.25 366.214 107.49 364.847 108.301V112.812H368.558ZM356.038 104.707C356.029 106.514 357.816 107.666 360.453 107.656C363.079 107.666 364.906 106.514 364.906 104.707C364.906 102.871 363.079 101.748 360.453 101.758C357.816 101.748 356.029 102.871 356.038 104.707ZM358.304 112.812H362.64V109.131C361.966 109.277 361.234 109.355 360.453 109.355C359.691 109.355 358.968 109.277 358.304 109.141V112.812ZM371.459 115.156C370.619 115.156 369.926 114.473 369.935 113.633C369.926 112.812 370.619 112.139 371.459 112.129C372.269 112.139 372.963 112.812 372.963 113.633C372.963 114.473 372.269 115.156 371.459 115.156Z" fill="#444444"/>
<path d="M-36.3414 273.129L-19.3662 317.56L-26.9399 319.644L-18.0601 321.869L-7.09169 347.474L-21.7165 345.375L-6.04646 351.361L2.57156 361.991L-71.4834 360.666L-65.2148 344.686L-48.355 339.55L-64.5477 341.171L-51.5705 308.703L-36.864 303.818L-50.1837 303.642L-36.3414 273.129Z" fill="#A3C53A"/>
<path d="M522.297 211.853L545.782 288.87L535.304 292.482L547.589 296.34L562.765 340.723L542.531 337.083L564.21 347.461L576.133 365.888L473.679 363.59L482.35 335.892L505.676 326.987L483.274 329.798L501.228 273.517L521.574 265.049L503.147 264.744L522.297 211.853Z" fill="#A3C53A"/>
<path d="M503.341 276.306L514.662 267.925L501.228 273.517L483.274 329.798L486.427 329.403L503.341 276.306Z" fill="#74B843"/>
<path d="M484.996 337.004L507.664 328.339L499.423 329.375L482.35 335.892L473.679 363.59L476.663 363.657L484.996 337.004Z" fill="#74B843"/>
<path d="M523.727 216.544L522.298 211.853L503.147 264.744L506.281 264.796L523.727 216.544Z" fill="#74B843"/>
<path d="M628.642 354.984H-121.976V377.435H628.642V354.984Z" fill="#A3C53A"/>
<path d="M628.642 367.383H-121.976V377.434H628.642V367.383Z" fill="#87AA36"/>
<path d="M628.642 373.389H-121.976V400.067H628.642V373.389Z" fill="#3D5963"/>
<path d="M251.793 384.025C355.166 384.025 438.966 382.165 438.966 379.871C438.966 377.577 355.166 375.718 251.793 375.718C148.42 375.718 64.6201 377.577 64.6201 379.871C64.6201 382.165 148.42 384.025 251.793 384.025Z" fill="#2B4349"/>
<path d="M-121.976 386.728H628.642" stroke="#E9F6FE" stroke-width="4" stroke-miterlimit="10" stroke-dasharray="161 151"/>
<path d="M87.5123 244.37H40.093C31.3868 244.37 24.3291 237.913 24.3291 229.948C24.3291 221.984 31.3868 215.527 40.093 215.527H87.5123C96.2185 215.527 103.276 221.984 103.276 229.948C103.276 237.913 96.2185 244.37 87.5123 244.37Z" fill="#B3E3FB"/>
<path d="M67.5814 228.566H60.0227C51.3165 228.566 44.2588 222.109 44.2588 214.144C44.2588 206.179 51.3165 199.723 60.0227 199.723H67.5814C76.2876 199.723 83.3453 206.179 83.3453 214.144C83.3453 222.109 76.2876 228.566 67.5814 228.566Z" fill="#B3E3FB"/>
<path d="M474.37 194.79H409.353C402.282 194.79 396.549 189.545 396.549 183.075C396.549 176.606 402.282 171.361 409.353 171.361H474.37C481.442 171.361 487.175 176.606 487.175 183.075C487.175 189.545 481.442 194.79 474.37 194.79Z" fill="#B3E3FB"/>
<path d="M456.345 184.325H450.206C443.134 184.325 437.401 179.081 437.401 172.611C437.401 166.142 443.134 160.897 450.206 160.897H456.345C463.417 160.897 469.15 166.142 469.15 172.611C469.15 179.081 463.417 184.325 456.345 184.325Z" fill="#B3E3FB"/>
<path d="M435.062 184.325H426.33C416.271 184.325 408.116 176.865 408.116 167.663C408.116 158.46 416.271 151 426.33 151H435.062C445.122 151 453.276 158.46 453.276 167.663C453.276 176.865 445.122 184.325 435.062 184.325Z" fill="#B3E3FB"/>
<path d="M420.376 339.88L422.497 325.85V313.597C422.497 311.164 424.299 309.19 426.522 309.19C428.745 309.19 430.547 311.164 430.547 313.597V327.098L428.315 341.344C427.984 343.459 426.308 345.005 424.348 345.005C421.862 345.006 419.971 342.564 420.376 339.88Z" fill="#D0D9DE"/>
<path d="M86.4997 336.688C86.4997 336.139 83.9129 307.979 82.3779 291.312C81.7567 284.569 86.0634 278.477 92.1819 277.44L161.872 265.624L187.971 229.357C191.165 224.919 194.862 220.943 198.972 217.527L200.614 216.161C203.862 213.462 207.828 212 211.906 212H347.302C352.815 212 358.277 213.171 363.383 215.449C366.727 216.941 369.648 219.381 371.845 222.519L407.836 273.914C409.472 276.494 411.722 278.536 414.342 279.816C420.005 282.584 423.652 288.739 423.652 295.529V346.582H116.695L86.4997 336.688Z" fill="#EF6123"/>
<path d="M86.2832 334.097C86.4202 335.65 86.499 336.592 86.499 336.688L116.695 346.58H423.651V334.098H86.2832V334.097Z" fill="#CA531E"/>
<path d="M165.31 299.771C147.1 299.771 132.339 315.933 132.339 335.868C132.339 339.597 132.856 343.194 133.815 346.579H212.879C211.627 326.785 198.064 299.771 165.31 299.771Z" fill="#CA531E"/>
<path d="M165.395 370.419C181.852 370.419 195.193 355.814 195.193 337.796C195.193 319.779 181.852 305.173 165.395 305.173C148.938 305.173 135.598 319.779 135.598 337.796C135.598 355.814 148.938 370.419 165.395 370.419Z" fill="#18161B"/>
<path d="M165.396 359.984C176.588 359.984 185.661 350.05 185.661 337.797C185.661 325.543 176.588 315.609 165.396 315.609C154.203 315.609 145.13 325.543 145.13 337.797C145.13 350.05 154.203 359.984 165.396 359.984Z" fill="#C9C9C9"/>
<path d="M178.505 352.154C185.748 344.225 185.748 331.37 178.505 323.441C171.263 315.512 159.521 315.512 152.279 323.441C145.037 331.37 145.037 344.225 152.279 352.154C159.521 360.083 171.263 360.083 178.505 352.154Z" fill="#4C565B"/>
<path d="M165.395 355.469C174.31 355.469 181.537 347.557 181.537 337.797C181.537 328.036 174.31 320.124 165.395 320.124C156.48 320.124 149.253 328.036 149.253 337.797C149.253 347.557 156.48 355.469 165.395 355.469Z" fill="white"/>
<path d="M171.903 344.926C175.499 340.989 175.499 334.606 171.903 330.669C168.307 326.732 162.477 326.732 158.881 330.669C155.285 334.606 155.285 340.989 158.881 344.926C162.477 348.863 168.307 348.863 171.903 344.926Z" fill="#18161B"/>
<path d="M170.724 337.797C170.724 341.019 168.338 343.631 165.395 343.631C162.451 343.631 160.065 341.019 160.065 337.797C160.065 334.574 162.451 331.962 165.395 331.962C168.338 331.962 170.724 334.574 170.724 337.797Z" fill="#4C565B"/>
<path d="M164.166 353.054C164.166 352.304 164.726 351.691 165.411 351.691C166.097 351.691 166.656 352.291 166.656 353.054C166.656 353.803 166.097 354.417 165.411 354.417C164.726 354.416 164.166 353.803 164.166 353.054ZM157.819 352.195C157.221 351.827 157.022 350.996 157.358 350.342C157.707 349.688 158.465 349.47 159.064 349.838C159.661 350.22 159.859 351.051 159.524 351.705C159.287 352.141 158.865 352.386 158.442 352.386C158.229 352.386 158.017 352.331 157.819 352.195ZM171.299 351.691C170.95 351.036 171.15 350.205 171.747 349.823C172.344 349.455 173.104 349.673 173.451 350.328C173.788 350.968 173.588 351.813 172.991 352.181C172.792 352.317 172.58 352.372 172.369 352.372C171.945 352.373 171.522 352.127 171.299 351.691ZM152.255 346.131C151.906 345.477 152.118 344.645 152.715 344.264C153.3 343.883 154.06 344.114 154.407 344.768C154.756 345.408 154.556 346.24 153.959 346.621C153.761 346.744 153.548 346.812 153.337 346.812C152.901 346.812 152.49 346.567 152.255 346.131ZM176.849 346.595C176.252 346.227 176.04 345.396 176.389 344.741C176.738 344.087 177.496 343.869 178.095 344.237C178.679 344.619 178.891 345.45 178.543 346.105C178.318 346.54 177.895 346.786 177.46 346.786C177.248 346.785 177.037 346.73 176.849 346.595ZM150.213 337.831C150.213 337.069 150.773 336.468 151.458 336.468C152.144 336.455 152.703 337.068 152.703 337.818C152.703 338.581 152.156 339.181 151.458 339.194C150.773 339.194 150.213 338.581 150.213 337.831ZM178.082 337.831C178.082 337.805 178.082 337.763 178.082 337.736C178.082 336.987 178.643 336.373 179.327 336.373C180.011 336.373 180.573 336.972 180.573 337.736C180.573 337.736 180.573 337.75 180.573 337.763C180.573 337.778 180.573 337.791 180.573 337.791C180.573 338.554 180.012 339.154 179.327 339.154C178.655 339.153 178.107 338.568 178.082 337.831ZM152.69 331.373C152.093 331.005 151.882 330.174 152.229 329.52C152.566 328.865 153.324 328.633 153.923 329.015C154.52 329.383 154.731 330.229 154.384 330.869V330.883C154.158 331.319 153.736 331.564 153.301 331.564C153.089 331.564 152.877 331.495 152.69 331.373ZM176.364 330.801C176.015 330.146 176.215 329.315 176.812 328.948C177.41 328.566 178.169 328.784 178.518 329.424C178.855 330.079 178.655 330.91 178.069 331.292C177.871 331.414 177.646 331.483 177.435 331.483C177.011 331.482 176.601 331.236 176.364 330.801ZM157.319 325.281C156.972 324.641 157.171 323.796 157.768 323.428C158.366 323.047 159.125 323.265 159.474 323.918C159.81 324.559 159.611 325.404 159.025 325.772C158.825 325.908 158.614 325.963 158.391 325.963C157.968 325.963 157.545 325.717 157.319 325.281ZM171.697 325.73C171.112 325.363 170.9 324.532 171.249 323.877C171.585 323.223 172.344 323.005 172.943 323.373C173.539 323.741 173.75 324.586 173.402 325.24C173.179 325.676 172.756 325.921 172.32 325.921C172.107 325.921 171.895 325.854 171.697 325.73ZM164.104 322.542C164.104 321.793 164.664 321.18 165.349 321.18C166.033 321.18 166.594 321.78 166.594 322.528C166.594 323.292 166.047 323.905 165.361 323.905C164.664 323.905 164.104 323.292 164.104 322.542Z" fill="#4C565B"/>
<path d="M359.789 299.771C377.998 299.771 392.76 315.933 392.76 335.868C392.76 339.597 392.243 343.194 391.284 346.579H312.22C313.471 326.785 327.035 299.771 359.789 299.771Z" fill="#CA531E"/>
<path d="M357.963 370.42C374.419 370.42 387.76 355.814 387.76 337.797C387.76 319.78 374.419 305.174 357.963 305.174C341.506 305.174 328.165 319.78 328.165 337.797C328.165 355.814 341.506 370.42 357.963 370.42Z" fill="#18161B"/>
<path d="M357.963 359.985C369.155 359.985 378.229 350.051 378.229 337.797C378.229 325.543 369.155 315.61 357.963 315.61C346.771 315.61 337.697 325.543 337.697 337.797C337.697 350.051 346.771 359.985 357.963 359.985Z" fill="#C9C9C9"/>
<path d="M375.134 345.452C379.006 335.07 374.459 323.218 364.977 318.978C355.495 314.738 344.669 319.717 340.796 330.098C336.923 340.479 341.471 352.332 350.953 356.572C360.435 360.811 371.261 355.833 375.134 345.452Z" fill="#4C565B"/>
<path d="M357.962 355.47C366.877 355.47 374.104 347.557 374.104 337.797C374.104 328.037 366.877 320.125 357.962 320.125C349.047 320.125 341.82 328.037 341.82 337.797C341.82 347.557 349.047 355.47 357.962 355.47Z" fill="white"/>
<path d="M366.474 341.642C368.408 336.493 366.164 330.602 361.461 328.484C356.758 326.366 351.377 328.823 349.442 333.972C347.508 339.121 349.752 345.012 354.455 347.13C359.158 349.248 364.539 346.791 366.474 341.642Z" fill="#18161B"/>
<path d="M352.634 337.797C352.634 341.02 355.02 343.632 357.962 343.632C360.906 343.632 363.292 341.02 363.292 337.797C363.292 334.575 360.906 331.962 357.962 331.962C355.02 331.962 352.634 334.575 352.634 337.797Z" fill="#4C565B"/>
<path d="M357.949 354.416C357.263 354.416 356.704 353.803 356.704 353.053C356.704 352.29 357.263 351.69 357.949 351.69C358.633 351.69 359.194 352.303 359.194 353.053C359.193 353.803 358.633 354.416 357.949 354.416ZM364.918 352.387C364.495 352.387 364.072 352.141 363.835 351.706C363.499 351.051 363.698 350.22 364.296 349.838C364.894 349.47 365.653 349.688 366.002 350.342C366.337 350.997 366.139 351.828 365.541 352.196C365.341 352.331 365.129 352.387 364.918 352.387ZM350.989 352.373C350.778 352.373 350.566 352.319 350.367 352.182C349.771 351.815 349.571 350.969 349.908 350.329C350.255 349.675 351.015 349.457 351.612 349.825C352.209 350.206 352.409 351.038 352.06 351.692C351.837 352.128 351.414 352.373 350.989 352.373ZM370.021 346.813C369.81 346.813 369.598 346.744 369.399 346.622C368.803 346.241 368.603 345.409 368.952 344.769C369.299 344.114 370.059 343.883 370.643 344.264C371.241 344.645 371.453 345.477 371.104 346.132C370.869 346.567 370.458 346.813 370.021 346.813ZM345.898 346.785C345.463 346.785 345.04 346.54 344.816 346.104C344.468 345.45 344.68 344.619 345.264 344.237C345.862 343.869 346.621 344.087 346.97 344.741C347.319 345.395 347.107 346.226 346.509 346.594C346.322 346.731 346.11 346.785 345.898 346.785ZM371.902 339.195C371.204 339.182 370.657 338.582 370.657 337.818C370.657 337.07 371.216 336.455 371.902 336.469C372.586 336.469 373.147 337.068 373.147 337.832C373.146 338.582 372.586 339.195 371.902 339.195ZM344.032 339.154C343.348 339.154 342.787 338.554 342.787 337.791C342.787 337.791 342.787 337.777 342.787 337.763C342.787 337.75 342.787 337.735 342.787 337.735C342.787 336.972 343.347 336.372 344.032 336.372C344.716 336.372 345.277 336.985 345.277 337.735C345.277 337.763 345.277 337.804 345.277 337.831C345.252 338.568 344.704 339.154 344.032 339.154ZM370.059 331.565C369.624 331.565 369.2 331.319 368.976 330.883V330.869C368.629 330.229 368.84 329.384 369.437 329.016C370.035 328.634 370.794 328.866 371.13 329.52C371.478 330.175 371.266 331.006 370.67 331.373C370.482 331.496 370.27 331.565 370.059 331.565ZM345.925 331.482C345.714 331.482 345.488 331.414 345.29 331.291C344.705 330.91 344.505 330.078 344.842 329.424C345.191 328.784 345.949 328.565 346.548 328.947C347.144 329.314 347.344 330.146 346.995 330.8C346.758 331.237 346.347 331.482 345.925 331.482ZM364.968 325.963C364.745 325.963 364.532 325.909 364.334 325.773C363.748 325.405 363.549 324.56 363.885 323.919C364.234 323.264 364.992 323.047 365.591 323.429C366.188 323.797 366.387 324.642 366.039 325.282C365.814 325.717 365.391 325.963 364.968 325.963ZM351.039 325.922C350.604 325.922 350.181 325.676 349.957 325.241C349.608 324.587 349.82 323.742 350.417 323.373C351.015 323.006 351.775 323.223 352.111 323.878C352.46 324.532 352.248 325.363 351.662 325.731C351.463 325.854 351.25 325.922 351.039 325.922ZM357.998 323.905C357.312 323.905 356.765 323.292 356.765 322.529C356.765 321.78 357.326 321.18 358.011 321.18C358.695 321.18 359.256 321.793 359.256 322.542C359.255 323.292 358.695 323.905 357.998 323.905Z" fill="#4C565B"/>
<path d="M189.543 263.059L217.582 222.431L195.822 220.33C193.018 222.754 189.571 227.132 187.969 229.357L165.219 260.97L182.581 265.744C185.184 266.46 187.925 265.403 189.543 263.059Z" fill="#0792C8"/>
<path d="M190.56 236.94C190.576 236.917 190.591 236.895 190.608 236.872C194.718 231.183 201.202 228.181 207.802 228.818L212.838 229.304L217.582 222.43L195.822 220.328C193.018 222.752 189.571 227.13 187.969 229.355L165.219 260.969L171.936 262.816L190.56 236.94Z" fill="#006798"/>
<path opacity="0.3" d="M195.822 220.33C193.307 222.504 190.286 226.238 188.531 228.593C187.662 240.862 187.077 253.151 186.639 265.45C187.766 264.967 188.781 264.162 189.543 263.059L205.247 240.302C205.748 233.989 206.195 227.675 206.433 221.354L195.822 220.33Z" fill="white"/>
<path d="M197.733 266.926L222.415 223.044H288.404C291.248 223.044 293.553 225.568 293.553 228.681V260.569C293.553 264.079 290.954 266.926 287.747 266.926H197.733Z" fill="#0792C8"/>
<path d="M222.413 223.044L218.688 229.667H267.267C276.906 229.667 284.721 238.222 284.721 248.776V266.926H287.747C290.953 266.926 293.553 264.08 293.553 260.569V228.681C293.553 225.568 291.248 223.044 288.404 223.044H222.413Z" fill="#006798"/>
<path d="M298.647 228.681V259.019C298.647 263.385 301.881 266.925 305.868 266.925H368.949C374.809 266.925 378.229 259.687 374.844 254.451L356.074 225.424C355.109 223.931 353.542 223.044 351.872 223.044H303.797C300.953 223.044 298.647 225.568 298.647 228.681Z" fill="#0792C8"/>
<path d="M374.843 254.451L356.074 225.425C355.109 223.932 353.542 223.044 351.872 223.044H303.796C297.159 223.044 298.647 227.301 298.847 229.831H343.233C344.904 229.831 346.471 230.719 347.435 232.212L366.205 258.617C367.924 261.274 367.882 264.444 366.665 266.926H368.949C374.809 266.925 378.229 259.687 374.843 254.451Z" fill="#006798"/>
<path d="M287.671 284.757H271.339C270.433 284.757 269.697 283.952 269.697 282.959V281.087C269.697 280.095 270.433 279.29 271.339 279.29H287.671C288.578 279.29 289.313 280.095 289.313 281.087V282.959C289.313 283.952 288.578 284.757 287.671 284.757Z" fill="#CA531E"/>
<path d="M287.671 282.023H271.339C270.433 282.023 269.697 281.218 269.697 280.225V278.353C269.697 277.361 270.433 276.556 271.339 276.556H287.671C288.578 276.556 289.313 277.361 289.313 278.353V280.225C289.313 281.218 288.578 282.023 287.671 282.023Z" fill="#EA1D26"/>
<path d="M86.9994 335.447L99.8143 337.768H111.006C113.229 337.768 115.031 339.741 115.031 342.175C115.031 344.609 113.229 346.582 111.006 346.582H98.6743L85.6624 344.138C83.7305 343.775 82.3184 341.941 82.3184 339.795C82.3174 337.073 84.5477 335.002 86.9994 335.447Z" fill="#D0D9DE"/>
<path d="M429.549 331.756L416.734 334.077H405.543C403.32 334.077 401.518 336.051 401.518 338.484C401.518 340.918 403.319 342.891 405.543 342.891H417.874L430.886 340.447C432.818 340.085 434.23 338.25 434.23 336.104C434.231 333.382 432.001 331.312 429.549 331.756Z" fill="#D0D9DE"/>
<path d="M409.859 299.771C409.859 304.973 415.315 309.19 422.045 309.19C422.59 309.19 423.123 309.153 423.65 309.099V295.527C423.65 293.753 423.396 292.025 422.927 290.386C422.634 290.37 422.343 290.353 422.045 290.353C415.315 290.353 409.859 294.57 409.859 299.771Z" fill="#DA5C4F"/>
<path d="M413.552 302.293C413.552 306.102 417.547 309.191 422.476 309.191C422.875 309.191 423.266 309.163 423.651 309.124V299.185C423.651 297.886 423.465 296.62 423.121 295.421C422.907 295.409 422.693 295.396 422.476 295.396C417.547 295.395 413.552 298.483 413.552 302.293Z" fill="#F48B1F"/>
<path d="M86.9481 317.819L73.1846 294.087L80.4646 293.091C85.3258 292.425 89.4495 296.969 88.8115 302.287L86.9481 317.819Z" fill="#D0D9DE"/>
<path d="M90.1746 319.906H85.001V336.022H90.1746V319.906Z" fill="#F48B1F"/>
<path d="M277.408 340.388H225.799C218.691 340.388 212.31 335.464 209.922 328.132L198 291.544C197.35 289.549 197.02 287.463 197.02 285.344V266.926H198.447V285.344C198.447 287.284 198.748 289.194 199.344 291.02L211.265 327.608C213.451 334.318 219.292 338.828 225.8 338.828H277.409C285.918 338.828 292.841 331.249 292.841 321.933V269.269H294.268V321.933C294.267 332.109 286.704 340.388 277.408 340.388Z" fill="#CA531E"/>
<path d="M204.368 273.485L198.173 271.797C197.318 271.563 196.719 270.723 196.719 269.76V259.39C196.719 258.426 197.318 257.586 198.173 257.353L204.368 255.664C205.578 255.334 206.749 256.336 206.749 257.701V271.447C206.75 272.813 205.579 273.814 204.368 273.485Z" fill="#EA1D26"/>
<path opacity="0.3" d="M275.047 266.926H253.411L235.816 223.044H257.453L275.047 266.926Z" fill="white"/>
<path opacity="0.3" d="M351.451 266.926H329.814L312.22 223.044H333.856L351.451 266.926Z" fill="white"/>
</g>
<rect x="0.5" y="0.5" width="505.667" height="399" rx="19.5" stroke="#E2E2E2"/>
<defs>
<clipPath id="clip0_195_50239">
<rect width="506.667" height="400" rx="20" fill="white"/>
</clipPath>
</defs>
</svg>
