<svg width="374" height="137" viewBox="0 0 374 137" fill="none" xmlns="http://www.w3.org/2000/svg">
<g clip-path="url(#clip0_56_10108)">
<ellipse cx="189" cy="153" rx="132" ry="116" fill="#FFF5F5"/>
<ellipse cx="289" cy="137" rx="132" ry="116" fill="#E4EAFF"/>
<path d="M303.59 107.109C303.199 107.242 302.99 107.666 303.123 108.057C303.256 108.448 303.681 108.657 304.072 108.524L303.59 107.109ZM321.349 78.8346C319.229 78.2355 317.025 79.4681 316.426 81.5877C315.827 83.7073 317.059 85.9113 319.179 86.5104C321.298 87.1096 323.502 85.877 324.102 83.7574C324.701 81.6378 323.468 79.4338 321.349 78.8346ZM304.072 108.524C312.401 105.689 319.761 95.9066 321.008 82.7431L319.519 82.602C318.311 95.3512 311.215 104.513 303.59 107.109L304.072 108.524Z" fill="#5277FF"/>
<path d="M261.286 108.106C261.677 108.239 261.886 108.664 261.753 109.055C261.62 109.445 261.195 109.655 260.804 109.521L261.286 108.106ZM243.528 79.8317C245.647 79.2326 247.851 80.4651 248.45 82.5847C249.05 84.7044 247.817 86.9084 245.697 87.5075C243.578 88.1067 241.374 86.8741 240.775 84.7545C240.176 82.6349 241.408 80.4309 243.528 79.8317ZM260.804 109.521C252.476 106.686 245.115 96.9037 243.868 83.7401L245.357 83.5991C246.565 96.3482 253.662 105.51 261.286 108.106L260.804 109.521Z" fill="#5277FF"/>
<path d="M311.076 117.258C310.797 122.989 310.749 128.729 310.929 134.457C311.109 140.184 311.517 145.898 312.154 151.577C312.374 153.539 311.876 155.394 310.931 156.759C309.986 158.124 308.593 158.999 307.021 158.999L283.189 158.999L259.358 159C257.823 159 256.456 158.165 255.512 156.849C254.567 155.533 254.045 153.737 254.199 151.813C254.58 147.075 255.056 140.572 255.38 134.114C255.704 127.655 255.876 121.241 255.649 116.681L254.581 95.2237L253.513 73.7663L253.411 71.7122L253.309 69.6582H283.351H313.393L313.294 71.7122L313.194 73.7663L312.135 95.512L311.076 117.258Z" fill="#EAEAEA"/>
<path d="M260.637 121.316C259.904 121.316 259.311 120.568 259.311 119.645V79.2171C259.311 78.2941 259.904 77.5459 260.637 77.5459C261.369 77.5459 261.963 78.2941 261.963 79.2171V119.645C261.963 120.568 261.369 121.316 260.637 121.316Z" fill="white"/>
<path d="M260.637 132.747C259.904 132.747 259.311 131.998 259.311 131.075V126.148C259.311 125.225 259.904 124.477 260.637 124.477C261.369 124.477 261.963 125.225 261.963 126.148V131.075C261.963 131.998 261.369 132.747 260.637 132.747Z" fill="white"/>
<path d="M282.311 69.6572V114.328V158.999H274.64H266.969L266.9 114.328L266.832 69.6572H274.571H282.311Z" fill="white"/>
<path opacity="0.43" d="M313.394 69.6582L313.294 71.7122L313.194 73.7663H283.354H253.514L253.412 71.7122L253.31 69.6582H283.352H313.394Z" fill="#B7B7B7"/>
<path d="M313.204 69.6579H282.394H251.584C250.31 69.6579 249.191 68.36 248.448 66.357C247.704 64.354 247.336 61.6459 247.563 58.8254L248.177 51.1788L248.792 43.5321C249.029 40.5787 249.719 38.0269 250.684 36.2136C251.648 34.4003 252.887 33.3252 254.221 33.3252H282.394H310.567C311.901 33.3252 313.14 34.4002 314.104 36.2136C315.069 38.027 315.759 40.5787 315.997 43.5321L316.611 51.1788L317.225 58.8254C317.452 61.6459 317.084 64.354 316.34 66.357C315.597 68.3601 314.478 69.6579 313.204 69.6579Z" fill="#37434D"/>
<path d="M288.566 34.1557L293.981 28.0114C294.522 27.3638 295.254 27 296.018 27H303.859C305.45 27 306.739 28.546 306.739 30.4533V33.6571C306.739 33.6571 288.566 33.8566 288.566 34.1557Z" fill="#37434D"/>
<path d="M313.204 69.658H297.84H282.477V51.4916V33.3252H296.522H310.567C311.901 33.3252 313.14 34.4002 314.105 36.2136C315.069 38.027 315.759 40.5787 315.997 43.5321L316.611 51.1788L317.225 58.8254C317.452 61.6459 317.084 64.354 316.34 66.357C315.597 68.3603 314.478 69.658 313.204 69.658Z" fill="#577D9A"/>
<path opacity="0.18" d="M311.076 117.258C310.797 122.989 310.748 128.73 310.928 134.457C311.108 140.184 311.517 145.898 312.154 151.577C312.374 153.539 311.876 155.394 310.931 156.759C309.986 158.124 308.593 158.999 307.021 158.999H294.666H282.311V114.328V69.6582H297.852H313.393L313.293 71.7122L313.194 73.7663L312.135 95.512L311.076 117.258Z" fill="#91C1E5"/>
<g filter="url(#filter0_d_56_10108)">
<rect x="261.954" y="75.2461" width="19.4429" height="27.4195" rx="9.72144" fill="white"/>
</g>
<rect x="268.435" y="81.7275" width="9.97071" height="13.959" rx="4.98536" fill="black"/>
<g filter="url(#filter1_d_56_10108)">
<rect x="283.391" y="75.2461" width="19.4429" height="27.4195" rx="9.72144" fill="white"/>
</g>
<rect x="285.385" y="81.7275" width="9.97071" height="13.959" rx="4.98536" fill="black"/>
<path fill-rule="evenodd" clip-rule="evenodd" d="M276.226 110.376C275.642 110.96 275.642 111.907 276.226 112.491L280.403 116.668L275.751 121.319C275.388 121.682 275.237 122.205 275.35 122.705L280.992 147.771C281.342 149.327 283.559 149.327 283.91 147.771L289.552 122.705C289.664 122.205 289.513 121.682 289.15 121.319L284.498 116.668L288.675 112.491C289.259 111.907 289.259 110.96 288.675 110.376L283.508 105.209C282.924 104.625 281.977 104.625 281.393 105.209L276.226 110.376Z" fill="#397DAF"/>
<path d="M226.59 113.109C226.199 113.242 225.99 113.666 226.123 114.057C226.256 114.448 226.681 114.657 227.072 114.524L226.59 113.109ZM244.349 84.8346C242.229 84.2355 240.025 85.4681 239.426 87.5877C238.827 89.7073 240.059 91.9113 242.179 92.5104C244.298 93.1096 246.502 91.877 247.102 89.7574C247.701 87.6378 246.468 85.4338 244.349 84.8346ZM227.072 114.524C235.401 111.689 242.761 101.907 244.008 88.7431L242.519 88.602C241.311 101.351 234.215 110.513 226.59 113.109L227.072 114.524Z" fill="#5277FF"/>
<path d="M184.286 114.106C184.677 114.239 184.886 114.664 184.753 115.055C184.62 115.445 184.195 115.655 183.804 115.521L184.286 114.106ZM166.528 85.8317C168.647 85.2326 170.851 86.4651 171.45 88.5847C172.05 90.7044 170.817 92.9084 168.697 93.5075C166.578 94.1067 164.374 92.8741 163.775 90.7545C163.176 88.6349 164.408 86.4309 166.528 85.8317ZM183.804 115.521C175.476 112.686 168.115 102.904 166.868 89.7401L168.357 89.5991C169.565 102.348 176.662 111.51 184.286 114.106L183.804 115.521Z" fill="#5277FF"/>
<path d="M234.076 123.258C233.797 128.989 233.749 134.729 233.929 140.457C234.109 146.184 234.517 151.898 235.154 157.577C235.374 159.539 234.876 161.394 233.931 162.759C232.986 164.124 231.593 164.999 230.021 164.999L206.189 164.999L182.358 165C180.823 165 179.456 164.165 178.512 162.849C177.567 161.533 177.045 159.737 177.199 157.813C177.58 153.075 178.056 146.572 178.38 140.114C178.704 133.655 178.876 127.241 178.649 122.681L177.581 101.224L176.513 79.7663L176.411 77.7122L176.309 75.6582H206.351H236.393L236.294 77.7122L236.194 79.7663L235.135 101.512L234.076 123.258Z" fill="#EAEAEA"/>
<path d="M183.637 127.316C182.904 127.316 182.311 126.568 182.311 125.645V85.2171C182.311 84.2941 182.904 83.5459 183.637 83.5459C184.369 83.5459 184.963 84.2941 184.963 85.2171V125.645C184.963 126.568 184.369 127.316 183.637 127.316Z" fill="white"/>
<path d="M183.637 138.747C182.904 138.747 182.311 137.998 182.311 137.075V132.148C182.311 131.225 182.904 130.477 183.637 130.477C184.369 130.477 184.963 131.225 184.963 132.148V137.075C184.963 137.998 184.369 138.747 183.637 138.747Z" fill="white"/>
<path d="M205.311 75.6572V120.328V164.999H197.64H189.969L189.9 120.328L189.832 75.6572H197.571H205.311Z" fill="white"/>
<path opacity="0.43" d="M236.394 75.6582L236.294 77.7122L236.194 79.7663H206.354H176.514L176.412 77.7122L176.31 75.6582H206.352H236.394Z" fill="#B7B7B7"/>
<path d="M236.204 75.6579H205.394H174.584C173.31 75.6579 172.191 74.36 171.448 72.357C170.704 70.354 170.336 67.6459 170.563 64.8254L171.177 57.1788L171.792 49.5321C172.029 46.5787 172.719 44.0269 173.684 42.2136C174.648 40.4003 175.887 39.3252 177.221 39.3252H205.394H233.567C234.901 39.3252 236.14 40.4002 237.104 42.2136C238.069 44.027 238.759 46.5787 238.997 49.5321L239.611 57.1788L240.225 64.8254C240.452 67.6459 240.084 70.354 239.34 72.357C238.597 74.3601 237.478 75.6579 236.204 75.6579Z" fill="#7CA093"/>
<path d="M211.566 40.1557L216.981 34.0114C217.522 33.3638 218.254 33 219.018 33H226.859C228.45 33 229.739 34.546 229.739 36.4533V39.6571C229.739 39.6571 211.566 39.8566 211.566 40.1557Z" fill="#6E9D8C"/>
<path d="M236.204 75.658H220.84H205.477V57.4916V39.3252H219.522H233.567C234.901 39.3252 236.14 40.4002 237.105 42.2136C238.069 44.027 238.759 46.5787 238.997 49.5321L239.611 57.1788L240.225 64.8254C240.452 67.6459 240.084 70.354 239.34 72.357C238.597 74.3603 237.478 75.658 236.204 75.658Z" fill="#558B78"/>
<path opacity="0.18" d="M234.076 123.258C233.797 128.989 233.748 134.73 233.928 140.457C234.108 146.184 234.517 151.898 235.154 157.577C235.374 159.539 234.876 161.394 233.931 162.759C232.986 164.124 231.593 164.999 230.021 164.999H217.666H205.311V120.328V75.6582H220.852H236.393L236.293 77.7122L236.194 79.7663L235.135 101.512L234.076 123.258Z" fill="#91C1E5"/>
<g filter="url(#filter2_d_56_10108)">
<rect x="184.954" y="81.2461" width="19.4429" height="27.4195" rx="9.72144" fill="white"/>
</g>
<rect x="191.435" y="87.7275" width="9.97071" height="13.959" rx="4.98536" fill="black"/>
<g filter="url(#filter3_d_56_10108)">
<rect x="206.391" y="81.2461" width="19.4429" height="27.4195" rx="9.72144" fill="white"/>
</g>
<rect x="208.385" y="87.7275" width="9.97071" height="13.959" rx="4.98536" fill="black"/>
<path fill-rule="evenodd" clip-rule="evenodd" d="M199.226 116.376C198.642 116.96 198.642 117.907 199.226 118.491L203.403 122.668L198.751 127.319C198.388 127.682 198.237 128.205 198.35 128.705L203.992 153.771C204.342 155.327 206.559 155.327 206.91 153.771L212.552 128.705C212.664 128.205 212.513 127.682 212.15 127.319L207.498 122.668L211.675 118.491C212.259 117.907 212.259 116.96 211.675 116.376L206.508 111.209C205.924 110.625 204.977 110.625 204.393 111.209L199.226 116.376Z" fill="#91BBAC"/>
</g>
<defs>
<filter id="filter0_d_56_10108" x="253.479" y="68.7651" width="36.3931" height="44.3701" filterUnits="userSpaceOnUse" color-interpolation-filters="sRGB">
<feFlood flood-opacity="0" result="BackgroundImageFix"/>
<feColorMatrix in="SourceAlpha" type="matrix" values="0 0 0 0 0 0 0 0 0 0 0 0 0 0 0 0 0 0 127 0" result="hardAlpha"/>
<feOffset dy="1.99414"/>
<feGaussianBlur stdDeviation="4.23755"/>
<feComposite in2="hardAlpha" operator="out"/>
<feColorMatrix type="matrix" values="0 0 0 0 0 0 0 0 0 0 0 0 0 0 0 0 0 0 0.1 0"/>
<feBlend mode="normal" in2="BackgroundImageFix" result="effect1_dropShadow_56_10108"/>
<feBlend mode="normal" in="SourceGraphic" in2="effect1_dropShadow_56_10108" result="shape"/>
</filter>
<filter id="filter1_d_56_10108" x="274.916" y="68.7651" width="36.3931" height="44.3701" filterUnits="userSpaceOnUse" color-interpolation-filters="sRGB">
<feFlood flood-opacity="0" result="BackgroundImageFix"/>
<feColorMatrix in="SourceAlpha" type="matrix" values="0 0 0 0 0 0 0 0 0 0 0 0 0 0 0 0 0 0 127 0" result="hardAlpha"/>
<feOffset dy="1.99414"/>
<feGaussianBlur stdDeviation="4.23755"/>
<feComposite in2="hardAlpha" operator="out"/>
<feColorMatrix type="matrix" values="0 0 0 0 0 0 0 0 0 0 0 0 0 0 0 0 0 0 0.1 0"/>
<feBlend mode="normal" in2="BackgroundImageFix" result="effect1_dropShadow_56_10108"/>
<feBlend mode="normal" in="SourceGraphic" in2="effect1_dropShadow_56_10108" result="shape"/>
</filter>
<filter id="filter2_d_56_10108" x="176.479" y="74.7651" width="36.3931" height="44.3701" filterUnits="userSpaceOnUse" color-interpolation-filters="sRGB">
<feFlood flood-opacity="0" result="BackgroundImageFix"/>
<feColorMatrix in="SourceAlpha" type="matrix" values="0 0 0 0 0 0 0 0 0 0 0 0 0 0 0 0 0 0 127 0" result="hardAlpha"/>
<feOffset dy="1.99414"/>
<feGaussianBlur stdDeviation="4.23755"/>
<feComposite in2="hardAlpha" operator="out"/>
<feColorMatrix type="matrix" values="0 0 0 0 0 0 0 0 0 0 0 0 0 0 0 0 0 0 0.1 0"/>
<feBlend mode="normal" in2="BackgroundImageFix" result="effect1_dropShadow_56_10108"/>
<feBlend mode="normal" in="SourceGraphic" in2="effect1_dropShadow_56_10108" result="shape"/>
</filter>
<filter id="filter3_d_56_10108" x="197.916" y="74.7651" width="36.3931" height="44.3701" filterUnits="userSpaceOnUse" color-interpolation-filters="sRGB">
<feFlood flood-opacity="0" result="BackgroundImageFix"/>
<feColorMatrix in="SourceAlpha" type="matrix" values="0 0 0 0 0 0 0 0 0 0 0 0 0 0 0 0 0 0 127 0" result="hardAlpha"/>
<feOffset dy="1.99414"/>
<feGaussianBlur stdDeviation="4.23755"/>
<feComposite in2="hardAlpha" operator="out"/>
<feColorMatrix type="matrix" values="0 0 0 0 0 0 0 0 0 0 0 0 0 0 0 0 0 0 0.1 0"/>
<feBlend mode="normal" in2="BackgroundImageFix" result="effect1_dropShadow_56_10108"/>
<feBlend mode="normal" in="SourceGraphic" in2="effect1_dropShadow_56_10108" result="shape"/>
</filter>
<clipPath id="clip0_56_10108">
<rect width="374" height="137" fill="white"/>
</clipPath>
</defs>
</svg>
