<svg width="1100" height="519" viewBox="0 0 1100 519" fill="none" xmlns="http://www.w3.org/2000/svg">
<g clip-path="url(#clip0_56_21495)">
<g opacity="0.4">
<path d="M1100 0H0V611H1100V0Z" fill="#FFF1ED"/>
<mask id="mask0_56_21495" style="mask-type:luminance" maskUnits="userSpaceOnUse" x="97" y="-1" width="887" height="588">
<path d="M983.12 -0.0117188H97.0669V586.97H983.12V-0.0117188Z" fill="white"/>
</mask>
<g mask="url(#mask0_56_21495)">
<path opacity="0.24" d="M414.226 168.883H410.164V166.41C410.554 166.058 410.799 165.591 410.799 165.075V156.877C410.799 156.36 410.555 155.894 410.164 155.542V153.068H377.97H314.959H314.181C312.94 153.068 311.935 153.907 311.935 154.939V155.588V156.877V165.075V166.364V167.013C311.935 168.046 312.941 168.883 314.181 168.883H314.959H318.245C317.004 168.883 315.999 169.722 315.999 170.754V171.403V172.692V180.89V182.179V182.828C315.999 183.862 317.005 184.699 318.245 184.699H313.654H312.875C311.634 184.699 310.63 185.537 310.63 186.569V187.218V188.508V196.705V197.994V198.643C310.63 199.677 311.636 200.514 312.875 200.514H313.654H376.665H408.858V198.04C409.248 197.688 409.493 197.222 409.493 196.705V188.508C409.493 187.991 409.25 187.524 408.858 187.172V184.699H414.226V182.225C414.616 181.873 414.861 181.407 414.861 180.89V172.692C414.861 172.176 414.616 171.709 414.226 171.357V168.883Z" fill="#FF8C68"/>
<path opacity="0.24" d="M296.214 168.883H264.021H201.01H200.231C198.99 168.883 197.985 169.721 197.985 170.754V171.403V172.692V180.889V182.178V182.827C197.985 183.861 198.991 184.698 200.231 184.698H194.034H193.255C192.015 184.698 191.01 185.536 191.01 186.569V187.218V188.507V196.704V197.993V198.642C191.01 199.676 192.016 200.513 193.255 200.513H194.034H257.045H289.238V198.04C289.629 197.688 289.873 197.221 289.873 196.704V188.507C289.873 187.99 289.63 187.523 289.238 187.171V184.698H296.212V182.225C296.604 181.873 296.847 181.406 296.847 180.889V172.692C296.847 172.175 296.603 171.708 296.212 171.356V168.883H296.214Z" fill="#FF8C68"/>
<path opacity="0.24" d="M166.316 104.754H150.561C150.094 104.754 149.717 105.068 149.717 105.457V200.678C149.717 201.067 150.094 201.381 150.561 201.381H166.316C166.781 201.381 167.159 201.066 167.159 200.678V105.457C167.159 105.068 166.782 104.754 166.316 104.754Z" fill="#FF8C68"/>
<path opacity="0.24" d="M146.938 104.754H131.183C130.717 104.754 130.34 105.068 130.34 105.457V200.678C130.34 201.067 130.718 201.381 131.183 201.381H146.938C147.404 201.381 147.781 201.066 147.781 200.678V105.457C147.781 105.068 147.403 104.754 146.938 104.754Z" fill="#FF8C68"/>
<path opacity="0.24" d="M535.952 532.181C506.044 532.181 476.872 532.352 448.728 532.676V-91.1963H115.017V555.021H115.034C115.031 555.06 115.007 555.098 115.007 555.137C115.007 567.814 303.471 578.092 535.954 578.092C768.437 578.092 956.9 567.815 956.9 555.137C956.9 542.458 768.435 532.181 535.952 532.181ZM127.934 -77.5307H433.657V76.7029H432.071V-18.2441C432.071 -18.6327 431.694 -18.9468 431.228 -18.9468H415.473C415.007 -18.9468 414.63 -18.6327 414.63 -18.2441V76.7029H412.692V-18.2441C412.692 -18.6327 412.315 -18.9468 411.849 -18.9468H396.094C395.627 -18.9468 395.251 -18.6327 395.251 -18.2441V76.7029H393.313V-18.2441C393.313 -18.6327 392.936 -18.9468 392.47 -18.9468H376.715C376.248 -18.9468 375.871 -18.6327 375.871 -18.2441V76.7029H373.934V7.67207C373.934 7.28347 373.557 6.96941 373.091 6.96941H362.014C361.548 6.96941 361.171 7.28469 361.171 7.67207V76.7029H359.753V7.67207C359.753 7.28347 359.376 6.96941 358.909 6.96941H347.833C347.367 6.96941 346.99 7.28469 346.99 7.67207V76.7029H313.309L323.742 68.0156C324.299 67.5513 324.337 66.7655 323.824 66.2584L253.612 -3.08398C253.1 -3.58989 252.233 -3.62288 251.674 -3.15852L240.847 5.85739C240.29 6.32175 240.252 7.10751 240.765 7.61341L310.724 76.7029H228.568V76.1774C228.958 75.8254 229.203 75.3586 229.203 74.8417V66.6446C229.203 66.1277 228.96 65.6609 228.568 65.3089V62.8356H233.936V60.3623C234.326 60.0103 234.571 59.5435 234.571 59.0266V50.8294C234.571 50.3125 234.326 49.8457 233.936 49.4938V47.0205H229.874V44.5471C230.264 44.1952 230.509 43.7284 230.509 43.2115V35.0143C230.509 34.4974 230.265 34.0306 229.874 33.6787V31.2053H247.418V28.7296C247.808 28.3776 248.053 27.9108 248.053 27.3939V19.1967C248.053 18.6798 247.809 18.213 247.418 17.8611V15.3878H215.225H152.214H151.436C150.195 15.3878 149.191 16.2261 149.191 17.2587V17.9075V19.1967V27.3939V28.6831V29.332C149.191 30.3658 150.197 31.2029 151.436 31.2029H134.669H133.891C132.65 31.2029 131.645 32.0412 131.645 33.0738V33.7227V35.0119V43.209V44.4983V45.1471C131.645 46.181 132.651 47.018 133.891 47.018H134.669H137.955C136.714 47.018 135.709 47.8563 135.709 48.8889V49.5378V50.827V59.0242V60.3134V60.9623C135.709 61.9961 136.715 62.8331 137.955 62.8331H133.364H132.585C131.344 62.8331 130.34 63.6714 130.34 64.704V65.3529V66.6421V74.8393V76.131V76.7029H127.934V-77.5307ZM127.934 88.4169H433.657V201.651H127.934V88.4169ZM127.934 211.412H433.657V322.695H432.071V228.136C432.071 227.747 431.693 227.433 431.228 227.433H415.473C415.007 227.433 414.63 227.748 414.63 228.136V322.695H412.144V228.136C412.144 227.747 411.765 227.433 411.3 227.433H395.545C395.079 227.433 394.702 227.748 394.702 228.136V322.695H392.216V251.031C392.216 250.642 391.838 250.328 391.373 250.328H379.751C379.284 250.328 378.907 250.644 378.907 251.031V322.695H368.072V321.21C368.405 320.871 368.613 320.442 368.613 319.969V313.546C368.613 313.073 368.405 312.644 368.072 312.304V310.006H374.026V307.707C374.361 307.368 374.569 306.939 374.569 306.466V300.043C374.569 299.57 374.361 299.141 374.026 298.8V296.502H346.208H293.173H292.395C291.154 296.502 290.149 297.34 290.149 298.372V299.021V300.043V306.466V307.487V308.136C290.149 309.17 291.155 310.007 292.395 310.007H287.217H286.439C285.198 310.007 284.193 310.845 284.193 311.878V312.527V313.548V319.971V320.993V321.642C284.193 322.034 284.34 322.398 284.588 322.699H271.767C271.842 322.506 271.894 322.304 271.894 322.09V313.893C271.894 313.376 271.65 312.909 271.259 312.557V310.084H276.626V307.611C277.017 307.259 277.262 306.792 277.262 306.275V298.078C277.262 297.561 277.017 297.094 276.626 296.742V294.269H255.967V291.796C256.357 291.444 256.602 290.977 256.602 290.46V282.263C256.602 281.746 256.359 281.279 255.967 280.927V278.454H223.774H160.763H159.984C158.743 278.454 157.739 279.292 157.739 280.325V280.974V282.263V290.46V291.749V292.398C157.739 293.432 158.745 294.269 159.984 294.269H160.763H180.645C179.404 294.269 178.399 295.107 178.399 296.14V296.789V298.078V306.275V307.564V308.213C178.399 309.247 179.406 310.084 180.645 310.084H176.054H175.275C174.035 310.084 173.03 310.922 173.03 311.955V312.604V313.893V322.09V322.699H127.93V211.412H127.934ZM127.934 336.361H433.657V445.691H430.932V351.549C430.932 351.16 430.553 350.846 430.088 350.846H414.333C413.867 350.846 413.49 351.16 413.49 351.549V445.691H411.553V377.465C411.553 377.077 411.174 376.763 410.709 376.763H399.633C399.167 376.763 398.79 377.078 398.79 377.465V445.691H396.395V351.549C396.395 351.16 396.016 350.846 395.551 350.846H379.796C379.33 350.846 378.953 351.16 378.953 351.549V445.691H377.015V377.465C377.015 377.077 376.638 376.763 376.172 376.763H365.096C364.629 376.763 364.253 377.078 364.253 377.465V445.691H361.857V351.549C361.857 351.16 361.479 350.846 361.014 350.846H345.259C344.793 350.846 344.416 351.16 344.416 351.549V445.691H342.478V377.465C342.478 377.077 342.101 376.763 341.635 376.763H330.559C330.092 376.763 329.715 377.078 329.715 377.465V445.691H320.694V445C321.084 444.648 321.329 444.181 321.329 443.665V435.467C321.329 434.95 321.086 434.484 320.694 434.132V431.658H304.767V429.572C305.158 429.221 305.403 428.754 305.403 428.237V420.04C305.403 419.523 305.158 419.056 304.767 418.704V416.231H297.378V414.024C297.768 413.672 298.013 413.205 298.013 412.688V404.491C298.013 403.974 297.768 403.507 297.378 403.155V400.682H317.561V398.209C317.951 397.857 318.196 397.39 318.196 396.873V388.676C318.196 388.159 317.953 387.692 317.561 387.34V384.867H285.368H222.357H221.578C220.337 384.867 219.333 385.704 219.333 386.738V387.387V388.676V396.873V398.162V398.811C219.333 399.845 220.339 400.682 221.578 400.682H202.174H201.395C200.155 400.682 199.15 401.519 199.15 402.553V403.202V404.491V412.688V413.977V414.626C199.15 415.66 200.156 416.497 201.395 416.497H202.174H207.646C206.986 416.823 206.539 417.416 206.539 418.102V418.75V420.04V428.237V429.526V430.175C206.539 431.209 207.545 432.046 208.784 432.046H209.563H223.357C222.819 432.388 222.465 432.922 222.465 433.531V434.178V435.467V443.665V444.954V445.603C222.465 445.633 222.474 445.661 222.476 445.692H165.788V351.55C165.788 351.162 165.411 350.848 164.944 350.848H149.189C148.723 350.848 148.346 351.162 148.346 351.55V445.692H146.409V377.466C146.409 377.078 146.032 376.764 145.565 376.764H134.489C134.023 376.764 133.646 377.079 133.646 377.466V445.692H127.933L127.934 336.361Z" fill="#FF8C68"/>
</g>
<path d="M620.831 122.146C651.152 122.146 675.731 101.411 675.731 75.8331C675.731 50.2554 651.152 29.5205 620.831 29.5205C590.511 29.5205 565.931 50.2554 565.931 75.8331C565.931 101.411 590.511 122.146 620.831 122.146Z" fill="#FEBCA8"/>
<path d="M620.831 117.123C647.864 117.123 669.778 98.6371 669.778 75.8331C669.778 53.0292 647.864 34.543 620.831 34.543C593.798 34.543 571.884 53.0292 571.884 75.8331C571.884 98.6371 593.798 117.123 620.831 117.123Z" fill="#F9FAFA"/>
<path d="M624.931 75.833C624.931 77.743 623.096 79.2901 620.833 79.2901C618.568 79.2901 616.733 77.7418 616.733 75.833C616.733 73.923 618.568 72.376 620.833 72.376C623.096 72.376 624.931 73.923 624.931 75.833Z" fill="#FEBCA8"/>
<path d="M621.873 36.0508H619.903V43.604H621.873V36.0508Z" fill="#FEBCA8"/>
<path d="M621.873 108.106H619.903V115.66H621.873V108.106Z" fill="#FEBCA8"/>
<path d="M668.072 76.6863V75.0244H659.118V76.6863H668.072Z" fill="#FEBCA8"/>
<path d="M582.657 76.6864V75.0244H573.703V76.6864H582.657Z" fill="#FEBCA8"/>
<path d="M619.805 74.6372L620.906 48.4521L622.007 74.6372H619.805Z" fill="#FEBCA8"/>
<path d="M619.631 76.2999L598.479 57.1133L621.191 74.9875L619.631 76.2999Z" fill="#FEBCA8"/>
<path d="M1052.13 29.5264H768.503V345.389H1052.13V29.5264Z" fill="#F9F9F9"/>
<path d="M1070.94 187.585H749.685V200.635H1070.94V187.585Z" fill="#FFE3DB"/>
<path d="M918.045 16.9541H902.585V371.266H918.045V16.9541Z" fill="#FFE3DB"/>
<path d="M829.007 83.5555H756.961C756.961 83.5555 762.24 65.5273 780.872 65.5273C794.678 65.5273 801.844 72.8019 804.632 76.5718C810.078 74.7962 821.803 72.643 829.007 83.5555Z" fill="#FFE3DB"/>
<path d="M955.13 270.983C956.979 270.983 958.712 271.401 960.215 272.125C963.088 267.95 968.387 265.141 974.468 265.141C980.147 265.141 985.153 267.586 988.13 271.309C989.702 266.825 994.566 263.555 1000.33 263.555C1006.87 263.555 1012.26 267.767 1012.98 273.186C1013.51 273.116 1014.04 273.069 1014.59 273.069C1018.58 273.069 1022.04 274.995 1023.78 277.814H945.038C946.114 273.9 950.22 270.983 955.13 270.983Z" fill="#FFE3DB"/>
<path d="M959.637 661.703H948.83C947.204 661.703 945.763 660.891 945.366 659.742L861.747 423.82L856.958 410.294H905.927L909.041 423.82L963.168 658.659C963.541 660.248 961.845 661.703 959.637 661.703Z" fill="#FF8C68"/>
<path d="M302.783 410.294L297.995 423.82L214.377 659.742C213.983 660.891 212.542 661.703 210.914 661.703H200.106C197.899 661.703 196.202 660.249 196.574 658.659L250.7 423.82L253.815 410.294H302.783Z" fill="#FF8C68"/>
<path d="M253.815 410.294H302.783L297.995 423.82H250.702L253.815 410.294Z" fill="#FC5826"/>
<path d="M909.044 423.82H861.749L856.961 410.294H905.929L909.044 423.82Z" fill="#FC5826"/>
<path d="M195.186 410.299H971.96C977.583 410.299 982.141 406.982 982.141 402.892C982.141 398.801 977.581 395.485 971.96 395.485H195.186C189.563 395.485 185.004 398.802 185.004 402.892C185.004 406.984 189.563 410.299 195.186 410.299Z" fill="#FF8C68"/>
<path d="M982.133 402.887C982.133 406.979 977.578 410.292 971.955 410.292H195.181C192.369 410.292 189.813 409.463 187.975 408.127C186.14 406.792 185 404.932 185 402.886H982.133V402.887Z" fill="#FC5826"/>
<path d="M867.417 364.245H582.439C578.728 364.245 575.863 361.871 576.345 359.193L601.422 219.89C601.823 217.664 604.43 216 607.516 216H892.496C896.207 216 899.072 218.374 898.59 221.052L873.513 360.355C873.111 362.581 870.503 364.245 867.417 364.245Z" fill="#6888D5"/>
<path d="M878.101 364.245H593.123C589.412 364.245 586.547 361.871 587.029 359.193L612.106 219.89C612.506 217.664 615.114 216 618.2 216H903.18C906.891 216 909.756 218.374 909.274 221.052L884.197 360.355C883.795 362.581 881.187 364.245 878.101 364.245Z" fill="#FF8C68"/>
<path d="M749.549 395.487H698.701L724.792 250.546C725.133 248.655 727.348 247.24 729.969 247.24H770.285C773.438 247.24 775.872 249.258 775.462 251.532L749.549 395.487Z" fill="#FFDACF"/>
<path d="M756.285 395.487H705.437L731.53 250.546C731.872 248.655 734.086 247.24 736.707 247.24H777.024C780.176 247.24 782.611 249.258 782.201 251.532L756.285 395.487Z" fill="#FC5826"/>
<path d="M809.361 395.488H646.386V390.502C646.386 389.723 647.255 389.091 648.326 389.091H807.422C808.494 389.091 809.363 389.723 809.363 390.502L809.361 395.488Z" fill="#FC5826"/>
<path d="M353.53 383.501L370.461 383.844L374.402 280.739L357.471 280.397L353.53 383.501Z" fill="#DDDDDD"/>
<path d="M357.303 284.804L363.764 284.935L363.797 284.07L357.336 283.939L357.303 284.804Z" fill="#BCBCBC"/>
<path d="M357.216 287.072L363.677 287.203L363.71 286.338L357.249 286.207L357.216 287.072Z" fill="#BCBCBC"/>
<path d="M357.118 289.353L363.579 289.483L363.613 288.618L357.151 288.488L357.118 289.353Z" fill="#BCBCBC"/>
<path d="M356.956 293.879L363.417 294.01L363.45 293.146L356.989 293.015L356.956 293.879Z" fill="#BCBCBC"/>
<path d="M356.868 296.149L363.329 296.279L363.362 295.414L356.901 295.284L356.868 296.149Z" fill="#BCBCBC"/>
<path d="M356.782 298.418L363.243 298.549L363.277 297.684L356.816 297.553L356.782 298.418Z" fill="#BCBCBC"/>
<path d="M356.62 302.947L363.081 303.078L363.114 302.213L356.653 302.082L356.62 302.947Z" fill="#BCBCBC"/>
<path d="M356.533 305.215L362.994 305.346L363.027 304.481L356.566 304.35L356.533 305.215Z" fill="#BCBCBC"/>
<path d="M356.423 307.504L362.884 307.635L362.917 306.77L356.456 306.639L356.423 307.504Z" fill="#BCBCBC"/>
<path d="M356.261 312.031L362.722 312.162L362.755 311.297L356.294 311.166L356.261 312.031Z" fill="#BCBCBC"/>
<path d="M356.185 314.29L362.647 314.421L362.68 313.556L356.219 313.425L356.185 314.29Z" fill="#BCBCBC"/>
<path d="M356.088 316.57L362.549 316.701L362.582 315.836L356.121 315.705L356.088 316.57Z" fill="#BCBCBC"/>
<path d="M355.902 321.116L362.363 321.247L362.396 320.382L355.935 320.251L355.902 321.116Z" fill="#BCBCBC"/>
<path d="M355.838 323.367L362.299 323.498L362.332 322.633L355.871 322.502L355.838 323.367Z" fill="#BCBCBC"/>
<path d="M355.752 325.636L362.214 325.767L362.247 324.902L355.786 324.771L355.752 325.636Z" fill="#BCBCBC"/>
<path d="M355.566 330.185L362.027 330.315L362.061 329.45L355.599 329.32L355.566 330.185Z" fill="#BCBCBC"/>
<path d="M355.479 332.452L361.94 332.583L361.973 331.718L355.512 331.587L355.479 332.452Z" fill="#BCBCBC"/>
<path d="M355.405 334.712L361.866 334.843L361.899 333.979L355.438 333.848L355.405 334.712Z" fill="#BCBCBC"/>
<path d="M355.206 339.27L361.667 339.4L361.7 338.535L355.239 338.405L355.206 339.27Z" fill="#BCBCBC"/>
<path d="M355.133 341.528L361.594 341.659L361.627 340.794L355.166 340.664L355.133 341.528Z" fill="#BCBCBC"/>
<path d="M355.046 343.798L361.507 343.929L361.54 343.064L355.079 342.933L355.046 343.798Z" fill="#BCBCBC"/>
<path d="M354.858 348.345L361.319 348.476L361.352 347.612L354.891 347.481L354.858 348.345Z" fill="#BCBCBC"/>
<path d="M354.772 350.614L361.233 350.745L361.266 349.88L354.805 349.749L354.772 350.614Z" fill="#BCBCBC"/>
<path d="M354.684 352.884L361.145 353.015L361.179 352.15L354.717 352.019L354.684 352.884Z" fill="#BCBCBC"/>
<path d="M354.538 357.402L360.999 357.532L361.032 356.667L354.571 356.537L354.538 357.402Z" fill="#BCBCBC"/>
<path d="M354.439 359.68L360.9 359.811L360.933 358.946L354.472 358.815L354.439 359.68Z" fill="#BCBCBC"/>
<path d="M354.369 361.934L360.83 362.065L360.863 361.2L354.402 361.069L354.369 361.934Z" fill="#BCBCBC"/>
<path d="M354.178 366.486L360.639 366.617L360.672 365.752L354.211 365.622L354.178 366.486Z" fill="#BCBCBC"/>
<path d="M354.105 368.747L360.566 368.878L360.599 368.013L354.138 367.882L354.105 368.747Z" fill="#BCBCBC"/>
<path d="M354.004 371.026L360.465 371.156L360.498 370.291L354.037 370.161L354.004 371.026Z" fill="#BCBCBC"/>
<path d="M353.83 375.564L360.291 375.694L360.324 374.829L353.863 374.699L353.83 375.564Z" fill="#BCBCBC"/>
<path d="M353.759 377.823L360.22 377.954L360.253 377.089L353.792 376.958L353.759 377.823Z" fill="#BCBCBC"/>
<path d="M353.671 380.093L360.132 380.224L360.165 379.359L353.704 379.228L353.671 380.093Z" fill="#BCBCBC"/>
<path d="M353.913 373.298L363.344 373.489L363.377 372.624L353.946 372.434L353.913 373.298Z" fill="#BCBCBC"/>
<path d="M353.565 382.374L362.997 382.564L363.03 381.7L353.598 381.509L353.565 382.374Z" fill="#BCBCBC"/>
<path d="M357.385 282.539L366.817 282.729L366.85 281.865L357.418 281.674L357.385 282.539Z" fill="#BCBCBC"/>
<path d="M357.045 291.608L366.477 291.799L366.51 290.934L357.078 290.743L357.045 291.608Z" fill="#BCBCBC"/>
<path d="M356.706 300.677L366.137 300.868L366.171 300.003L356.739 299.812L356.706 300.677Z" fill="#BCBCBC"/>
<path d="M356.343 309.766L365.774 309.957L365.807 309.092L356.376 308.901L356.343 309.766Z" fill="#BCBCBC"/>
<path d="M355.997 318.842L365.428 319.033L365.462 318.168L356.03 317.977L355.997 318.842Z" fill="#BCBCBC"/>
<path d="M355.658 327.912L365.09 328.103L365.123 327.238L355.691 327.047L355.658 327.912Z" fill="#BCBCBC"/>
<path d="M355.311 336.988L364.742 337.179L364.776 336.314L355.344 336.123L355.311 336.988Z" fill="#BCBCBC"/>
<path d="M354.955 346.07L364.386 346.261L364.419 345.396L354.988 345.205L354.955 346.07Z" fill="#BCBCBC"/>
<path d="M354.626 355.133L364.057 355.324L364.09 354.459L354.659 354.268L354.626 355.133Z" fill="#BCBCBC"/>
<path d="M354.261 364.222L363.692 364.413L363.725 363.548L354.294 363.357L354.261 364.222Z" fill="#BCBCBC"/>
<path d="M362.41 379.006L369.45 379.832L385.569 307.162L378.529 306.336L362.41 379.006Z" fill="#FFD41D"/>
<path d="M378.513 306.344L385.552 307.17L385.764 306.214L378.725 305.388L378.513 306.344Z" fill="#99735E"/>
<path d="M378.709 305.379L385.751 306.205L385.894 305.564C386.206 304.15 384.885 302.819 382.941 302.59C380.997 302.363 379.167 303.324 378.852 304.738L378.709 305.379Z" fill="#FFD41D"/>
<path d="M362.382 378.999L363.451 381.997L364.6 385.285L367.109 382.444L369.423 379.825L362.382 378.999Z" fill="#E59470"/>
<path d="M363.451 381.997L364.6 385.285L367.109 382.443C366.586 382.19 365.976 382.012 365.319 381.936C364.686 381.861 364.053 381.892 363.451 381.997Z" fill="#FFD41D"/>
<path d="M362.398 379.012L365.918 379.425L382.037 306.755L378.517 306.342L362.398 379.012Z" fill="#F7A616"/>
<path d="M364.157 379.219L367.677 379.632L383.796 306.962L380.276 306.549L364.157 379.219Z" fill="#FFB83B"/>
<path d="M328.408 304.758L321.367 305.59L337.598 378.252L344.638 377.42L328.408 304.758Z" fill="#FFD41D"/>
<path d="M344.585 377.393L337.545 378.226L337.758 379.181L344.798 378.349L344.585 377.393Z" fill="#99735E"/>
<path d="M344.826 378.362L337.787 379.194L337.93 379.835C338.246 381.249 340.078 382.209 342.022 381.979C343.967 381.749 345.286 380.416 344.971 379.002L344.826 378.362Z" fill="#E8613D"/>
<path d="M328.384 304.756L326.068 302.157L323.552 299.301L322.404 302.572L321.345 305.589L328.384 304.756Z" fill="#E59470"/>
<path d="M326.068 302.157L323.552 299.301L322.405 302.573C323.011 302.694 323.666 302.722 324.324 302.644C324.957 302.569 325.544 302.394 326.068 302.157Z" fill="#FFD41D"/>
<path d="M328.354 304.741L324.834 305.157L341.064 377.812L344.584 377.396L328.354 304.741Z" fill="#F7A616"/>
<path d="M326.641 304.973L323.121 305.389L339.351 378.051L342.871 377.635L326.641 304.973Z" fill="#FFB83B"/>
<path d="M354.397 293.297L347.274 293.575L352.728 367.084L359.85 366.805L354.397 293.297Z" fill="#FF8C68"/>
<path d="M359.813 366.822L352.692 367.101L352.763 368.067L359.884 367.789L359.813 366.822Z" fill="#99735E"/>
<path d="M359.886 367.758L352.765 368.037L352.813 368.684C352.918 370.115 354.599 371.212 356.564 371.134C358.531 371.058 360.039 369.835 359.934 368.404L359.886 367.758Z" fill="#E8613D"/>
<path d="M354.378 293.292L352.458 290.527L350.377 287.491L348.755 290.654L347.256 293.57L354.378 293.292Z" fill="#E59470"/>
<path d="M352.458 290.527L350.377 287.491L348.755 290.656C349.338 290.823 349.988 290.902 350.651 290.876C351.292 290.85 351.902 290.722 352.458 290.527Z" fill="#92B6EA"/>
<path d="M354.386 293.307L350.824 293.446L356.268 366.955L359.83 366.816L354.386 293.307Z" fill="#82A5D8"/>
<path d="M352.626 293.358L349.065 293.498L354.509 367.007L358.07 366.868L352.626 293.358Z" fill="#92B6EA"/>
<path d="M343.128 299.295L331.721 300.303L335.483 322.826L346.889 321.818L343.128 299.295Z" fill="#362D70"/>
<path d="M346.923 321.794L335.516 322.803L344.185 374.667L355.591 373.659L346.923 321.794Z" fill="#C7D6E2"/>
<path d="M347.116 323.188L335.71 324.196L336.114 326.615L347.52 325.607L347.116 323.188Z" fill="#362D70"/>
<path d="M335.566 299.945L331.746 300.283L344.179 374.673L347.999 374.335L335.566 299.945Z" fill="#C7D6E2"/>
<path d="M380.852 343.275L374.6 391.716L374.125 395.487H335.423L328.697 343.275H380.852Z" fill="#FEBCA8"/>
<path d="M380.852 343.275L374.6 391.716H342.27L336.018 343.275H380.852Z" fill="#FED1C3"/>
<path d="M914.43 372.528C914.43 372.528 894.57 364.07 890.264 347.469C890.264 347.469 908.971 350.288 918.347 372.528" fill="#FFD1C3"/>
<path d="M922.266 372.528C922.266 372.528 942.126 364.07 946.432 347.469C946.432 347.469 927.725 350.288 918.349 372.528" fill="#FFD1C3"/>
<path d="M916.269 371.169C916.269 371.169 901.949 358.065 906.175 341.452C906.175 341.452 922.22 348.996 919.923 372.198" fill="#FFD1C3"/>
<path d="M920.895 371.222C920.895 371.222 934.785 357.875 930.02 341.34C930.02 341.34 914.226 349.158 917.276 372.314" fill="#FFD1C3"/>
<path d="M939.516 369.159H896.244V395.485H939.516V369.159Z" fill="#FF8D6A"/>
<path d="M939.518 369.159H931.015V395.485H939.518V369.159Z" fill="#FF7449"/>
</g>
<g filter="url(#filter0_d_56_21495)">
<path d="M619.021 357.173C617.742 357.609 617.058 358.999 617.493 360.279C617.929 361.558 619.319 362.242 620.599 361.807L619.021 357.173ZM677.141 264.64C670.204 262.68 662.991 266.713 661.03 273.65C659.069 280.587 663.103 287.8 670.04 289.761C676.976 291.722 684.19 287.688 686.15 280.751C688.111 273.814 684.077 266.601 677.141 264.64ZM620.599 361.807C647.856 352.528 671.945 320.512 676.027 277.432L671.154 276.97C667.201 318.695 643.975 348.679 619.021 357.173L620.599 361.807Z" fill="#5277FF"/>
<path d="M480.573 360.436C481.853 360.872 482.537 362.262 482.102 363.542C481.666 364.821 480.276 365.506 478.996 365.07L480.573 360.436ZM422.454 267.904C429.391 265.943 436.604 269.977 438.565 276.914C440.526 283.85 436.492 291.064 429.555 293.024C422.618 294.985 415.405 290.951 413.444 284.015C411.484 277.078 415.517 269.865 422.454 267.904ZM478.996 365.07C451.739 355.791 427.65 323.776 423.568 280.695L428.441 280.233C432.394 321.958 455.62 351.942 480.573 360.436L478.996 365.07Z" fill="#5277FF"/>
<path d="M643.522 390.39C642.609 409.148 642.45 427.934 643.039 446.678C643.628 465.422 644.966 484.122 647.049 502.708C647.768 509.127 646.141 515.199 643.047 519.667C639.954 524.134 635.394 526.997 630.25 526.997L552.255 526.999L474.261 527C469.24 527 464.766 524.268 461.675 519.962C458.584 515.656 456.874 509.776 457.38 503.48C458.625 487.975 460.183 466.692 461.243 445.555C462.303 424.418 462.867 403.426 462.125 388.503L458.63 318.279L455.134 248.055L454.8 241.332L454.466 234.61H552.786H651.106L650.779 241.332L650.452 248.055L646.987 319.222L643.522 390.39Z" fill="#EAEAEA"/>
<path d="M478.448 403.672C476.05 403.672 474.107 401.223 474.107 398.202V265.893C474.107 262.873 476.05 260.424 478.448 260.424C480.845 260.424 482.788 262.873 482.788 265.893V398.202C482.788 401.223 480.845 403.672 478.448 403.672Z" fill="white"/>
<path d="M478.448 441.08C476.05 441.08 474.107 438.631 474.107 435.61V419.484C474.107 416.464 476.05 414.015 478.448 414.015C480.845 414.015 482.788 416.464 482.788 419.484V435.61C482.788 438.631 480.845 441.08 478.448 441.08Z" fill="white"/>
<path d="M549.381 234.607V380.802V526.998H524.276H499.172L498.947 380.802L498.723 234.607H524.052H549.381Z" fill="white"/>
<path opacity="0.43" d="M651.107 234.609L650.78 241.331L650.453 248.053H552.795H455.136L454.802 241.331L454.467 234.609H552.787H651.107Z" fill="#E68E72"/>
<path d="M650.484 234.607H549.652H448.821C444.651 234.607 440.989 230.36 438.556 223.804C436.122 217.249 434.917 208.386 435.661 199.155L437.671 174.13L439.681 149.105C440.457 139.439 442.716 131.088 445.873 125.153C449.029 119.219 453.083 115.7 457.449 115.7H549.652H641.855C646.221 115.7 650.275 119.218 653.432 125.153C656.589 131.088 658.848 139.439 659.624 149.105L661.634 174.13L663.644 199.155C664.388 208.386 663.182 217.249 660.749 223.804C658.315 230.36 654.654 234.607 650.484 234.607Z" fill="#DA7B5D"/>
<path d="M569.853 118.419L587.575 98.3102C589.343 96.1908 591.74 95 594.239 95H619.902C625.108 95 629.327 100.06 629.327 106.302V116.787C629.327 116.787 569.853 117.44 569.853 118.419Z" fill="#C5492E"/>
<path d="M650.485 234.608H600.205H549.926V175.154V115.701H595.891H641.857C646.223 115.701 650.277 119.219 653.433 125.154C656.59 131.089 658.849 139.439 659.625 149.105L661.635 174.131L663.645 199.156C664.389 208.387 663.184 217.249 660.75 223.805C658.316 230.361 654.655 234.608 650.485 234.608Z" fill="#F05625"/>
<path opacity="0.18" d="M643.522 390.389C642.609 409.147 642.449 427.933 643.038 446.677C643.627 465.421 644.965 484.121 647.048 502.707C647.768 509.127 646.14 515.199 643.047 519.666C639.953 524.134 635.393 526.996 630.249 526.996H589.815H549.38V380.802V234.609H600.243H651.105L650.778 241.331L650.451 248.053L646.987 319.221L643.522 390.389Z" fill="#E9B19F"/>
<g filter="url(#filter1_d_56_21495)">
<rect x="482.759" y="252.896" width="63.6312" height="89.7363" rx="31.8156" fill="white"/>
</g>
<rect x="503.969" y="274.107" width="32.6314" height="45.6839" rx="16.3157" fill="black"/>
<g filter="url(#filter2_d_56_21495)">
<rect x="552.916" y="252.896" width="63.6312" height="89.7363" rx="31.8156" fill="white"/>
</g>
<rect x="559.443" y="274.107" width="32.6314" height="45.6839" rx="16.3157" fill="black"/>
<path fill-rule="evenodd" clip-rule="evenodd" d="M535.993 404.497C534.082 406.409 534.082 409.508 535.993 411.419L544.328 419.754L534.438 429.643C533.252 430.83 532.756 432.542 533.124 434.179L544.166 483.233C545.312 488.327 552.57 488.327 553.716 483.233L564.758 434.179C565.126 432.542 564.63 430.83 563.444 429.643L553.554 419.754L561.888 411.419C563.8 409.508 563.8 406.409 561.888 404.497L552.402 395.011C550.49 393.099 547.391 393.099 545.48 395.011L535.993 404.497Z" fill="#F05625"/>
<path d="M538.553 345.876C540.065 332.937 545.397 328.478 550.264 328.596C555.131 328.714 560.199 331.805 561.122 346.424C562.221 363.828 555.672 362.685 549.44 362.534C543.207 362.382 536.465 363.749 538.553 345.876Z" fill="#FF8C68"/>
</g>
</g>
<defs>
<filter id="filter0_d_56_21495" x="369.448" y="57.4994" width="360.698" height="519.002" filterUnits="userSpaceOnUse" color-interpolation-filters="sRGB">
<feFlood flood-opacity="0" result="BackgroundImageFix"/>
<feColorMatrix in="SourceAlpha" type="matrix" values="0 0 0 0 0 0 0 0 0 0 0 0 0 0 0 0 0 0 127 0" result="hardAlpha"/>
<feOffset dy="6.00009"/>
<feGaussianBlur stdDeviation="21.7503"/>
<feComposite in2="hardAlpha" operator="out"/>
<feColorMatrix type="matrix" values="0 0 0 0 0.808333 0 0 0 0 0.719955 0 0 0 0 0.700556 0 0 0 1 0"/>
<feBlend mode="normal" in2="BackgroundImageFix" result="effect1_dropShadow_56_21495"/>
<feBlend mode="normal" in="SourceGraphic" in2="effect1_dropShadow_56_21495" result="shape"/>
</filter>
<filter id="filter1_d_56_21495" x="455.022" y="231.686" width="119.105" height="145.21" filterUnits="userSpaceOnUse" color-interpolation-filters="sRGB">
<feFlood flood-opacity="0" result="BackgroundImageFix"/>
<feColorMatrix in="SourceAlpha" type="matrix" values="0 0 0 0 0 0 0 0 0 0 0 0 0 0 0 0 0 0 127 0" result="hardAlpha"/>
<feOffset dy="6.52628"/>
<feGaussianBlur stdDeviation="13.8683"/>
<feComposite in2="hardAlpha" operator="out"/>
<feColorMatrix type="matrix" values="0 0 0 0 0 0 0 0 0 0 0 0 0 0 0 0 0 0 0.1 0"/>
<feBlend mode="normal" in2="BackgroundImageFix" result="effect1_dropShadow_56_21495"/>
<feBlend mode="normal" in="SourceGraphic" in2="effect1_dropShadow_56_21495" result="shape"/>
</filter>
<filter id="filter2_d_56_21495" x="525.179" y="231.686" width="119.105" height="145.21" filterUnits="userSpaceOnUse" color-interpolation-filters="sRGB">
<feFlood flood-opacity="0" result="BackgroundImageFix"/>
<feColorMatrix in="SourceAlpha" type="matrix" values="0 0 0 0 0 0 0 0 0 0 0 0 0 0 0 0 0 0 127 0" result="hardAlpha"/>
<feOffset dy="6.52628"/>
<feGaussianBlur stdDeviation="13.8683"/>
<feComposite in2="hardAlpha" operator="out"/>
<feColorMatrix type="matrix" values="0 0 0 0 0 0 0 0 0 0 0 0 0 0 0 0 0 0 0.1 0"/>
<feBlend mode="normal" in2="BackgroundImageFix" result="effect1_dropShadow_56_21495"/>
<feBlend mode="normal" in="SourceGraphic" in2="effect1_dropShadow_56_21495" result="shape"/>
</filter>
<clipPath id="clip0_56_21495">
<rect width="1100" height="519" rx="12" fill="white"/>
</clipPath>
</defs>
</svg>
