<svg width="665" height="405" viewBox="0 0 665 405" fill="none" xmlns="http://www.w3.org/2000/svg">
<g opacity="0.5">
<path d="M630.936 154.669C619.88 144.647 606.85 135.58 593.059 126.956C547.477 98.4499 522.987 46.184 475.847 20.0574C432.057 -4.21314 378.329 -5.53244 331.703 11.1181C301.705 21.8301 276.08 38.7777 250.894 57.9092C189.308 104.692 102.879 73.1411 41.7086 121.303C8.87922 147.151 -4.72496 191.311 1.44661 231.781C7.66044 272.529 36.6439 307.834 72.5973 326.71C132.887 358.363 199.096 331.271 261.63 347.578C288.434 354.567 309.363 374.044 333.338 386.893C366.646 404.745 405.29 404.185 438.243 386.287C476.002 365.778 501.649 338.825 544.903 328.907C589.98 318.57 642.843 301.51 658.9 252.768C673.195 209.375 657.963 179.168 630.936 154.669Z" fill="#A7EAEA"/>
<mask id="mask0_318_5061" style="mask-type:luminance" maskUnits="userSpaceOnUse" x="0" y="0" width="665" height="400">
<path d="M630.936 154.669C619.88 144.647 606.85 135.58 593.059 126.956C547.477 98.4499 522.987 46.184 475.847 20.0574C432.057 -4.21314 378.329 -5.53244 331.703 11.1181C301.705 21.8301 276.08 38.7777 250.894 57.9092C189.308 104.692 102.879 73.1411 41.7086 121.303C8.87922 147.151 -4.72496 191.311 1.44661 231.781C7.66044 272.529 36.6439 307.834 72.5973 326.71C132.887 358.363 199.096 331.271 261.63 347.578C288.434 354.567 309.363 374.044 333.338 386.893C366.646 404.745 405.29 404.185 438.243 386.287C476.002 365.778 501.649 338.825 544.903 328.907C589.98 318.57 642.843 301.51 658.9 252.768C673.195 209.375 657.963 179.168 630.936 154.669Z" fill="white"/>
</mask>
<g mask="url(#mask0_318_5061)">
<path d="M654.356 316.102C625.97 295.383 601.69 269.473 573.37 248.666C545.049 227.859 510.694 211.968 475.767 215.848C441.885 219.612 413.032 241.044 384.961 260.387C358.718 278.47 331.225 295.529 300.735 304.807C270.245 314.084 236.15 314.951 207.362 301.278C186.232 291.242 168.424 273.766 145.616 268.571C121.353 263.046 96.4601 272.491 73.3696 281.769C57.1405 288.29 40.9114 294.81 24.6812 301.331L20.0859 440.838L656.06 428.313L654.356 316.102Z" fill="#85B557"/>
</g>
<path d="M183.93 375.66C180.322 374.946 176.879 375.294 173.812 376.439C171.977 364.349 161.54 355.087 148.938 355.087C145.263 355.087 141.774 355.883 138.626 357.301C138.209 349.27 131.807 342.892 123.973 342.892C122.2 342.892 120.499 343.218 118.922 343.817C114.935 337.319 107.762 332.978 99.5778 332.978C92.3568 332.978 85.9258 336.361 81.7718 341.617C80.8708 341.454 79.9458 341.368 78.9928 341.368C70.6788 341.368 63.9368 347.938 63.9368 356.04C63.9368 357.815 64.2588 359.513 64.8498 361.087C64.7598 361.155 64.7748 361.143 64.6858 361.21C64.7358 360.822 60.4338 358.848 59.9418 358.636C57.4708 357.573 54.7728 357.162 52.1008 357.502C39.7828 359.069 33.9908 373.108 37.2698 384.005C39.0838 390.033 44.3288 399.437 50.7078 401.656C51.1938 401.825 52.0808 401.622 52.6268 401.658C57.1488 401.957 61.7948 401.658 66.3258 401.658C83.5288 401.658 100.732 401.658 117.935 401.658C136.214 401.658 154.494 401.658 172.773 401.658C180.553 401.658 188.334 401.658 196.114 401.658C196.111 401.667 196.109 401.675 196.106 401.684H196.604C196.609 401.675 196.613 401.667 196.618 401.658C197.754 399.353 198.415 396.78 198.487 394.058C198.487 393.977 198.492 393.895 198.492 393.818V393.697C198.489 385.008 192.455 377.347 183.93 375.66Z" fill="#A4CC7D"/>
<path d="M198.489 393.751V393.919C198.489 393.967 198.489 394.011 198.484 394.059C198.47 396.771 197.856 399.349 196.773 401.659H196.112C196.582 400.044 196.831 398.337 196.831 396.574C196.831 386.468 188.642 378.28 178.536 378.28C176.289 378.28 174.142 378.681 172.149 379.424C170.314 367.334 159.877 358.073 147.28 358.073C143.605 358.073 140.112 358.872 136.968 360.286C136.546 352.26 130.149 345.878 122.315 345.878C120.537 345.878 118.836 346.208 117.264 346.807C113.272 340.3 106.104 335.964 97.9196 335.964C90.6986 335.964 84.2676 339.347 80.1136 344.608C79.2126 344.445 78.2836 344.349 77.3346 344.349C72.4516 344.349 68.1156 346.615 65.3696 350.122C67.7756 345.143 72.9746 341.699 78.9926 341.699C79.9416 341.699 80.8706 341.785 81.7716 341.953C85.9256 336.696 92.3566 333.312 99.5776 333.312C107.762 333.312 114.936 337.65 118.922 344.152C120.494 343.548 122.2 343.221 123.973 343.221C131.807 343.221 138.209 349.599 138.621 357.63C141.774 356.216 145.262 355.422 148.938 355.422C161.54 355.422 171.977 364.679 173.812 376.768C175.796 376.03 177.947 375.618 180.199 375.618C190.238 375.619 198.398 383.722 198.489 393.751Z" fill="#98BF6F"/>
<path d="M627.755 346.756C623.563 345.326 619.047 345.177 614.764 346.293C613.598 346.597 605.989 348.759 605.848 350.342C608.402 321.821 580.638 324.251 580.638 324.251C576.437 324.482 572.301 325.885 568.953 328.442C562.133 333.651 559.046 343.268 561.56 351.474C555.083 349.537 547.437 354.024 545.97 360.623C546.313 355.076 543.445 349.367 538.619 346.611C533.793 343.855 527.214 344.379 523.089 348.103C516.875 353.715 517.713 363.523 519.052 371.789C513.374 370.6 507.093 373.186 503.898 378.028C500.703 382.87 500.797 389.662 504.124 394.414H580.637L632.299 394.447C632.299 394.447 641.898 384.357 643.862 376.278C646.832 364.061 639.734 350.842 627.755 346.756Z" fill="#A4CC7D"/>
<path d="M545.023 354.077C543.757 351.942 541.989 350.122 539.84 348.894C535.009 346.138 528.433 346.662 524.306 350.384C518.097 355.994 518.936 365.806 520.269 374.068C514.591 372.877 508.315 375.469 505.116 380.307C502.502 384.277 502.09 389.542 503.85 393.932C500.996 389.228 501.064 382.869 504.097 378.27C507.295 373.424 513.572 370.84 519.25 372.031C517.909 363.762 517.078 353.957 523.287 348.347C527.414 344.617 533.99 344.093 538.821 346.849C541.637 348.459 543.787 351.073 545.023 354.077Z" fill="#98BF6F"/>
<path d="M604.292 336.67C597.611 325.15 581.859 326.528 581.859 326.528V326.535C577.657 326.76 573.523 328.168 570.174 330.722C563.351 335.935 560.265 345.545 562.781 353.754C556.302 351.814 548.654 356.301 547.187 362.899C547.269 361.513 547.157 360.12 546.865 358.772C549.299 353.357 555.996 349.986 561.755 351.716C559.246 343.507 562.332 333.889 569.155 328.684C570.825 327.403 572.698 326.414 574.675 325.71C576.652 325.013 578.742 324.602 580.839 324.489C580.841 324.491 598.398 322.955 604.292 336.67Z" fill="#98BF6F"/>
<path d="M642.537 360.585C639.638 355.319 634.904 351.058 628.972 349.035C624.785 347.604 620.269 347.455 615.984 348.571C614.816 348.878 607.206 351.035 607.063 352.623C607.16 351.499 607.213 350.421 607.228 349.387C609.445 348.076 614.074 346.766 614.965 346.533C619.242 345.417 623.758 345.567 627.953 346.997C634.627 349.275 639.788 354.384 642.537 360.585Z" fill="#98BF6F"/>
<path d="M637.033 388.784C636.826 384.441 635.205 380.181 632.104 376.698C630.479 374.873 628.524 373.33 626.339 372.231C624.715 371.414 622.983 370.84 621.203 370.505C621.089 370.483 620.976 370.462 620.857 370.44C615.272 369.493 609.27 370.884 604.815 374.407C604.885 374.256 604.95 374.104 605.01 373.952C607.527 367.961 605.935 360.449 601.151 356.032C598.905 353.959 596.042 352.644 593.033 352.141C591.428 351.871 589.785 351.843 588.174 352.048C586.563 351.844 584.92 351.871 583.315 352.141C580.306 352.644 577.443 353.959 575.197 356.032C570.413 360.448 568.821 367.96 571.338 373.952C571.397 374.103 571.462 374.255 571.533 374.407C567.079 370.884 561.077 369.493 555.491 370.44C555.372 370.462 555.258 370.483 555.145 370.505C553.364 370.841 551.633 371.414 550.009 372.231C543.309 375.614 538.855 383.017 538.974 390.513C538.974 390.621 538.974 390.735 538.979 390.843C533.242 386.118 525.357 384.192 518.061 385.496C516.464 385.783 514.895 386.221 513.385 386.822C506.746 389.448 501.41 395.063 498.887 401.722C499.189 401.725 499.492 401.752 499.789 401.761C500.712 401.789 501.637 401.767 502.575 401.793H633.19C635.941 397.882 637.247 393.288 637.033 388.784Z" fill="#85B557"/>
<path d="M636.98 391.895C637.043 391.495 637.1 391.095 637.147 390.696C637.111 390.725 637.074 390.754 637.039 390.783C637.293 383.168 632.807 375.602 626.009 372.165C624.488 371.397 622.865 370.845 621.203 370.504C621.089 370.482 620.976 370.461 620.857 370.439C615.396 369.416 609.497 370.65 605.01 373.952C604.831 374.076 604.658 374.212 604.485 374.347C607.278 368.285 605.724 360.497 600.816 355.973C598.657 353.976 595.918 352.682 593.033 352.141C591.434 351.839 589.79 351.774 588.174 351.942C586.558 351.774 584.914 351.839 583.315 352.141C580.43 352.682 577.692 353.976 575.532 355.973C570.623 360.497 569.07 368.286 571.863 374.347C571.69 374.212 571.517 374.076 571.338 373.952C566.851 370.65 560.952 369.417 555.491 370.439C555.372 370.461 555.258 370.482 555.145 370.504C553.484 370.845 551.86 371.397 550.339 372.165C543.541 375.602 539.055 383.168 539.309 390.783C539.201 390.691 539.087 390.604 538.974 390.512C533.183 385.917 525.308 384.099 518.061 385.495C516.578 385.776 515.122 386.199 513.715 386.756C507.051 389.4 501.702 395.04 499.192 401.73C499.392 401.74 499.592 401.753 499.789 401.759C500.46 401.78 501.131 401.777 501.802 401.781C504.59 396.092 509.459 391.393 515.354 389.056C523.781 385.722 533.956 387.324 540.954 393.083C540.694 385.468 545.181 377.897 551.979 374.465C558.777 371.034 567.534 371.921 573.503 376.646C570.71 370.579 572.264 362.796 577.172 358.272C579.554 356.074 582.633 354.73 585.836 354.299V354.321C586.609 354.207 587.391 354.154 588.174 354.15C588.957 354.154 589.739 354.207 590.511 354.321V354.3C593.714 354.731 596.794 356.074 599.175 358.273C604.084 362.798 605.637 370.58 602.844 376.647C608.814 371.922 617.571 371.035 624.368 374.466C631.166 377.897 635.652 385.469 635.393 393.084C635.904 392.663 636.437 392.271 636.98 391.895Z" fill="#77A843"/>
<path d="M654.56 403.736H13.4019C12.0209 403.736 10.9019 402.617 10.9019 401.236C10.9019 399.855 12.0209 398.736 13.4019 398.736H654.56C655.941 398.736 657.06 399.855 657.06 401.236C657.06 402.617 655.941 403.736 654.56 403.736Z" fill="#85B557"/>
<path d="M353.456 92.06H247.033C242.633 92.06 239.722 87.501 241.559 83.503C243.833 78.552 248.525 74.197 258.154 79.184C258.154 79.184 262.996 61.878 275.069 61.878C287.142 61.878 290.16 72.14 290.16 72.14C290.16 72.14 291.367 51.616 310.684 51.012C330.001 50.408 332.416 72.744 332.416 72.744C332.416 72.744 342.379 65.969 351.943 72.171C353.85 73.408 355.449 75.022 356.698 76.882C358.452 79.496 359.326 82.603 359.476 85.747C359.639 89.183 356.897 92.06 353.456 92.06Z" fill="#CFFFFF"/>
<path d="M358.682 129.375L413.575 147.706L420.023 118.027L433.322 115.877L424.068 100.252L428.714 80.2275L358.682 129.375Z" fill="#F3F2F9"/>
<path d="M420.65 113.692L420.023 118.026L433.322 115.876L420.65 113.692Z" fill="#EAE8EF"/>
<path d="M420.65 113.692L358.682 129.374L424.068 100.251L433.322 115.876L420.65 113.692Z" fill="#EAE8EF"/>
<path d="M561.882 161.816L529.012 200.097L510.905 180.776L499.991 185.119L499.924 169.286L487.487 156.382L561.882 161.816Z" fill="#F3F2F9"/>
<path d="M508.496 177.814L510.905 180.776L499.991 185.119L508.496 177.814Z" fill="#EAE8EF"/>
<path d="M508.496 177.814L561.882 161.816L499.924 169.286L499.991 185.119L508.496 177.814Z" fill="#EAE8EF"/>
<path d="M405.201 36.2882L408.032 57.3412C408.113 57.9402 408.007 58.5252 407.754 59.0322C407.333 59.8832 406.511 60.5202 405.503 60.6562L369.922 65.4412C369.285 65.5272 368.664 65.4022 368.138 65.1162C367.333 64.6802 366.738 63.8822 366.607 62.9122L363.776 41.8592C363.701 41.3042 363.789 40.7632 364.002 40.2852C364.403 39.3742 365.254 38.6862 366.305 38.5442L401.886 33.7592C402.561 33.6682 403.215 33.8182 403.76 34.1382C404.519 34.5792 405.075 35.3552 405.201 36.2882Z" fill="#EAE8EF"/>
<path opacity="0.42" d="M407.753 59.0324C407.332 59.8834 406.51 60.5204 405.502 60.6564L369.921 65.4414C369.284 65.5274 368.663 65.4024 368.137 65.1164L385.644 49.5454L407.753 59.0324Z" fill="#EAE8EF"/>
<path d="M403.76 34.1372L386.551 55.3232L364.001 40.2842C364.402 39.3732 365.253 38.6852 366.304 38.5432L401.885 33.7582C402.561 33.6682 403.214 33.8182 403.76 34.1372Z" fill="#F3F2F9"/>
<path d="M401.492 37.6374C401 37.2754 401.979 28.5994 407.743 28.6534C413.507 28.7074 428.404 18.5164 430.515 13.0684C430.515 13.0684 432.27 17.2244 429.912 20.7454C429.912 20.7454 433.778 19.4534 433.606 21.2784C433.433 23.1034 427.758 26.0044 427.758 26.0044C427.758 26.0044 432.987 27.1744 431.178 28.7834C429.369 30.3924 422.346 32.6124 422.346 32.6124C422.346 32.6124 428.009 33.0864 426.243 34.8834C424.477 36.6804 417.092 38.1914 413.848 38.7444C410.603 39.2974 405.795 40.8064 401.492 37.6374Z" fill="white"/>
<path d="M366.522 42.7873C366.903 42.3433 364.116 34.4603 358.75 35.7553C353.384 37.0503 337.284 30.7593 334.138 26.1323C334.138 26.1323 333.398 30.3883 336.359 33.1643C336.359 33.1643 332.473 32.7943 333.028 34.4593C333.583 36.1243 339.505 37.6053 339.505 37.6053C339.505 37.6053 334.879 39.8263 336.914 40.9363C338.95 42.0463 345.981 42.6013 345.981 42.6013C345.981 42.6013 340.8 44.2673 342.835 45.5623C344.87 46.8573 352.087 46.6723 355.233 46.4873C358.38 46.3033 363.191 46.6733 366.522 42.7873Z" fill="white"/>
<path d="M202.062 201.492V241.103C202.062 241.191 202.062 241.279 202.057 241.366C201.948 244.097 200.147 246.266 197.942 246.266H150.964V201.962C150.964 185.42 160.836 171.49 173.645 169.662C174.554 169.533 175.473 169.466 176.407 169.461H176.515C183.568 169.461 189.96 173.044 194.581 178.842C199.057 184.459 201.881 192.147 202.052 200.666C202.057 200.94 202.062 201.214 202.062 201.492Z" fill="#A02A2A"/>
<path d="M197.103 197.282V228.41C197.103 229.296 196.835 230.125 196.369 230.812C195.591 231.966 194.274 232.73 192.783 232.73H140.175C139.233 232.73 138.356 232.428 137.648 231.909C136.564 231.119 135.855 229.844 135.855 228.41V197.282C135.855 196.461 136.088 195.692 136.49 195.04C137.25 193.796 138.62 192.962 140.175 192.962H192.783C193.781 192.962 194.701 193.308 195.431 193.878C196.447 194.668 197.103 195.904 197.103 197.282Z" fill="#EAE8EF"/>
<path opacity="0.42" d="M196.369 230.812C195.591 231.966 194.274 232.73 192.783 232.73H140.175C139.233 232.73 138.356 232.428 137.648 231.909L166.114 212.714L196.369 230.812Z" fill="#EAE8EF"/>
<path d="M195.432 193.878L166.301 221.286L136.49 195.041C137.25 193.797 138.62 192.963 140.175 192.963H192.783C193.781 192.962 194.701 193.307 195.432 193.878Z" fill="#F3F2F9"/>
<g opacity="0.75">
<path d="M189.808 204.534V235.662C189.808 236.548 189.54 237.377 189.073 238.064C188.295 239.218 186.978 239.982 185.487 239.982H132.879C131.937 239.982 131.06 239.679 130.352 239.161C129.268 238.37 128.559 237.096 128.559 235.662V204.534C128.559 203.713 128.792 202.944 129.194 202.292C129.954 201.048 131.324 200.214 132.879 200.214H185.487C186.485 200.214 187.405 200.56 188.135 201.13C189.152 201.92 189.808 203.156 189.808 204.534Z" fill="#939393"/>
<path opacity="0.42" d="M189.074 238.064C188.296 239.218 186.979 239.982 185.488 239.982H132.88C131.938 239.982 131.061 239.679 130.353 239.161L158.819 219.966L189.074 238.064Z" fill="#939393"/>
<path d="M188.136 201.13L159.005 228.538L129.194 202.293C129.954 201.049 131.324 200.215 132.879 200.215H185.487C186.486 200.214 187.406 200.56 188.136 201.13Z" fill="#939393"/>
</g>
<path d="M187.648 206.262V237.39C187.648 238.276 187.38 239.105 186.914 239.792C186.136 240.946 184.819 241.71 183.328 241.71H130.72C129.778 241.71 128.901 241.408 128.193 240.889C127.109 240.098 126.4 238.824 126.4 237.39V206.262C126.4 205.441 126.633 204.672 127.035 204.02C127.795 202.776 129.165 201.942 130.72 201.942H183.328C184.326 201.942 185.246 202.288 185.976 202.858C186.991 203.648 187.648 204.884 187.648 206.262Z" fill="#EAE8EF"/>
<path opacity="0.42" d="M186.914 239.792C186.136 240.946 184.819 241.71 183.328 241.71H130.72C129.778 241.71 128.901 241.408 128.193 240.889L156.66 221.694L186.914 239.792Z" fill="#EAE8EF"/>
<path d="M185.976 202.858L156.845 230.266L127.034 204.021C127.794 202.777 129.164 201.943 130.719 201.943H183.327C184.326 201.942 185.246 202.288 185.976 202.858Z" fill="#F3F2F9"/>
<path d="M134.126 245.094H119.917V386.632H134.126V245.094Z" fill="#8C5D2A"/>
<path d="M134.125 286.3V296.229L119.917 311.708V301.784L134.125 286.3Z" fill="#AA733C"/>
<path d="M134.125 267.393V280.373L119.917 295.857V282.877L134.125 267.393Z" fill="#AA733C"/>
<path d="M134.125 339.598V349.527L119.917 365.006V355.082L134.125 339.598Z" fill="#AA733C"/>
<path d="M134.125 320.691V333.671L119.917 349.155V336.175L134.125 320.691Z" fill="#AA733C"/>
<path d="M170.654 169.662C157.844 171.49 147.973 185.42 147.973 201.962V246.266H85.7431C83.6831 246.266 81.8971 245.053 81.0761 243.302C80.7561 242.636 80.5801 241.892 80.5801 241.103V201.492C80.5801 183.804 94.9181 169.461 112.611 169.461H167.045C168.263 169.461 169.471 169.528 170.654 169.662Z" fill="#D84848"/>
<path d="M174.764 169.605C161.733 171.164 151.634 185.223 151.634 201.962V246.266H146.786V201.962C146.786 184.248 158.103 169.533 172.229 169.461H172.337C173.154 169.461 173.964 169.507 174.764 169.605Z" fill="#F75959"/>
<path d="M152.999 246.315C150.899 246.315 149.68 248.691 150.904 250.397L160.699 264.042C164.002 268.643 169.85 272.808 176.64 275.825C183.422 278.841 191.152 280.705 198.206 280.705H198.313C212.416 280.667 218.235 273.013 211.62 263.798L200.618 248.472C199.646 247.118 198.082 246.315 196.415 246.315H152.999Z" fill="#D84848"/>
<path d="M187.421 247.513L167.654 247.925V244.923L187.44 245.02L187.421 247.513Z" fill="#8C8C8C"/>
<path d="M170.266 246.334C170.266 246.774 169.909 247.132 169.468 247.132C169.027 247.132 168.67 246.775 168.67 246.334C168.67 245.893 169.027 245.536 169.468 245.536C169.909 245.536 170.266 245.893 170.266 246.334Z" fill="#C1C1C1"/>
<path d="M185.749 247.038C186.138 247.038 186.453 246.723 186.453 246.334C186.453 245.946 186.138 245.63 185.749 245.63C185.36 245.63 185.045 245.946 185.045 246.334C185.045 246.723 185.36 247.038 185.749 247.038Z" fill="#C1C1C1"/>
<path d="M157.958 169.461L87.4622 246.266H85.7432C83.6832 246.266 81.8972 245.053 81.0762 243.302L148.846 169.46L157.958 169.461Z" fill="#F75959"/>
<path d="M143.403 169.461L80.5791 237.912V224.933L131.492 169.461H143.403Z" fill="#F75959"/>
<path d="M148.494 158.846L153.11 164.179H138.803V188.822C138.803 190.035 137.822 191.022 136.609 191.032C136.604 191.032 136.604 191.032 136.599 191.032C135.375 191.032 134.384 190.041 134.384 188.822V153.239H153.11L148.494 158.846Z" fill="#FFCE00"/>
<path d="M66.122 30.636L67.705 26L69.288 30.636C71.387 36.783 75.712 41.922 81.411 45.039C75.733 48.144 71.504 53.357 69.637 59.553L67.706 65.962L65.774 59.553C63.907 53.357 59.678 48.144 54 45.039C59.699 41.922 64.024 36.784 66.122 30.636Z" fill="#FFCE00"/>
<path d="M630.122 93.636L631.705 89L633.288 93.636C635.387 99.783 639.712 104.922 645.411 108.039C639.733 111.144 635.504 116.357 633.637 122.553L631.706 128.962L629.774 122.553C627.907 116.357 623.678 111.144 618 108.039C623.699 104.922 628.024 99.784 630.122 93.636Z" fill="#FFCE00"/>
</g>
<path d="M415.713 246.333C414.564 245.571 414.254 244.02 415.019 242.868C415.785 241.717 417.337 241.402 418.486 242.165L415.713 246.333ZM428.255 312.16C420.893 312.033 415.044 305.962 415.192 298.6C415.34 291.237 421.428 285.372 428.791 285.498C436.154 285.625 442.002 291.696 441.855 299.058C441.707 306.421 435.618 312.286 428.255 312.16ZM418.486 242.165C426.46 247.455 436.959 256.252 441.725 266.658C444.142 271.933 445.14 277.751 443.438 283.729C441.74 289.691 437.455 295.463 429.982 300.855L427.064 296.803C433.912 291.862 437.326 286.95 438.629 282.372C439.928 277.81 439.231 273.232 437.178 268.75C433.006 259.642 423.474 251.482 415.713 246.333L418.486 242.165Z" fill="#5277FF"/>
<path d="M274.741 247.393C275.89 246.63 276.201 245.079 275.435 243.928C274.669 242.777 273.117 242.462 271.968 243.224L274.741 247.393ZM262.199 313.219C269.561 313.093 275.41 307.022 275.262 299.659C275.114 292.297 269.026 286.431 261.663 286.558C254.3 286.685 248.452 292.756 248.6 300.118C248.747 307.48 254.836 313.346 262.199 313.219ZM271.968 243.224C263.995 248.515 253.495 257.312 248.729 267.717C246.312 272.993 245.314 278.81 247.016 284.788C248.714 290.751 252.999 296.522 260.472 301.914L263.39 297.863C256.542 292.922 253.129 288.009 251.825 283.432C250.526 278.87 251.223 274.291 253.276 269.81C257.448 260.702 266.98 252.542 274.741 247.393L271.968 243.224Z" fill="#5277FF"/>
<path d="M419.458 190.604V371.618C419.458 382.406 405.512 391.152 388.311 391.152H302.84C285.639 391.152 271.693 382.406 271.693 371.618V190.604H419.458Z" fill="#F2F2F2"/>
<path d="M388.311 391.152H302.84C285.639 391.152 271.693 382.403 271.693 371.611V391.814C271.693 399.072 281.075 404.958 292.645 404.958H398.506C410.075 404.958 419.458 399.072 419.458 391.814V371.611C419.458 382.403 405.513 391.152 388.311 391.152Z" fill="#868F96"/>
<path d="M419.458 128.265V161.513H271.693V128.265C271.693 104.923 301.857 86 339.063 86H352.088C389.294 86 419.458 104.923 419.458 128.265Z" fill="#3D8EDA"/>
<g opacity="0.21">
<path d="M291.024 151.902C288.737 151.902 286.883 150.739 286.883 149.304V140.487C285.468 128.282 288.503 118.508 295.903 111.435C299.681 107.823 304.598 104.94 310.516 102.865C316.377 100.809 323.268 99.534 330.996 99.0743C333.273 98.9388 335.293 99.9868 335.509 101.415C335.725 102.843 334.055 104.111 331.778 104.246C298.244 106.241 293.352 124.899 295.153 140.201C295.161 140.264 295.164 140.328 295.164 140.392V149.304C295.164 150.739 293.31 151.902 291.024 151.902Z" fill="#F7F7F7"/>
</g>
<path d="M419.12 161.726H272.032V190.322H419.12V161.726Z" fill="#77BEFF"/>
<path d="M271.694 190.535H419.459V161.513H271.694V190.535ZM272.371 161.938H418.782V190.11H272.371V161.938Z" fill="white"/>
<path d="M406.542 161.726H284.606V190.322H406.542V161.726Z" fill="#77BEFF"/>
<path d="M284.266 190.535H406.88V161.513H284.266V190.535ZM284.943 161.938H406.202V190.11H284.943V161.938Z" fill="white"/>
<path d="M391.723 161.726H299.429V190.322H391.723V161.726Z" fill="#77BEFF"/>
<path d="M299.09 190.535H392.061V161.513H299.09V190.535ZM299.768 161.938H391.384V190.11H299.768V161.938Z" fill="white"/>
<path d="M377.348 161.726H313.799V190.322H377.348V161.726Z" fill="#77BEFF"/>
<path d="M313.461 190.535H377.688V161.513H313.461V190.535ZM314.139 161.938H377.01V190.11H314.139V161.938Z" fill="white"/>
<path d="M361.628 161.726H329.519V190.322H361.628V161.726Z" fill="#77BEFF"/>
<path d="M329.179 190.535H361.966V161.513H329.179V190.535ZM329.857 161.938H361.289V190.11H329.857V161.938Z" fill="white"/>
<path d="M346.139 161.513H345.461V190.535H346.139V161.513Z" fill="white"/>
<path d="M425.075 170.67H419.46V182.786H425.075C425.807 182.786 426.507 182.693 427.145 182.524C427.783 182.358 428.362 182.115 428.847 181.817C428.852 181.811 428.861 181.808 428.865 181.803C429.849 181.191 430.464 180.34 430.464 179.405V174.051C430.464 172.191 428.039 170.67 425.075 170.67Z" fill="#77BEFF"/>
<path d="M425.075 170.67H419.46V182.786H425.075C425.807 182.786 426.507 182.693 427.145 182.524C427.783 182.358 428.362 182.115 428.847 181.817C428.852 181.811 428.861 181.808 428.865 181.803C429.849 181.191 430.464 180.34 430.464 179.405V174.051C430.464 172.191 428.039 170.67 425.075 170.67Z" fill="#77BEFF"/>
<path d="M429.924 181.777C429.843 181.575 429.725 181.401 429.59 181.241C429.38 181.444 429.139 181.634 428.866 181.803C428.861 181.809 428.852 181.812 428.848 181.817C428.363 182.116 427.784 182.358 427.146 182.525C427.116 182.532 427.085 182.538 427.056 182.545C430.804 194.96 460.586 328.727 454.674 342.793C443.345 369.73 427.476 198.945 426.004 182.732C425.701 182.766 423.196 182.786 423.196 182.786C422.958 202.893 423.903 379.324 458.343 351.116C476.376 336.343 436.711 196.598 429.924 181.777Z" fill="#7A7A7A"/>
<path opacity="0.3" d="M429.587 181.241C430.136 180.712 430.461 180.082 430.461 179.405V174.052C430.461 172.192 428.036 170.671 425.071 170.671H419.457V161.513V128.265C419.457 104.923 389.294 86 352.087 86H345.575V404.959H398.505C410.075 404.959 419.457 399.073 419.457 391.814V371.612V182.787H423.192C422.954 202.893 423.899 379.324 458.339 351.116C476.372 336.343 436.707 196.598 429.921 181.777C429.839 181.575 429.721 181.401 429.587 181.241ZM454.67 342.793C443.341 369.73 427.472 198.945 426 182.732C426.364 182.692 426.716 182.63 427.052 182.545C430.8 194.96 460.583 328.727 454.67 342.793Z" fill="#77BEFF"/>
<g filter="url(#filter0_d_318_5061)">
<rect x="305" y="197.617" width="39" height="55" rx="19.5" fill="white"/>
</g>
<rect x="318" y="210.617" width="20" height="28" rx="10" fill="black"/>
<g filter="url(#filter1_d_318_5061)">
<rect x="348" y="197.617" width="39" height="55" rx="19.5" fill="white"/>
</g>
<rect x="352" y="210.617" width="20" height="28" rx="10" fill="black"/>
<path fill-rule="evenodd" clip-rule="evenodd" d="M334.044 294.633C332.872 295.804 332.872 297.704 334.044 298.875L341.265 306.097L333.091 314.272C332.363 314.999 332.059 316.048 332.285 317.052L341.993 360.179C342.695 363.301 347.144 363.301 347.846 360.179L357.554 317.052C357.779 316.048 357.475 314.999 356.748 314.272L348.573 306.097L355.795 298.875C356.967 297.704 356.967 295.804 355.795 294.633L347.041 285.878C345.869 284.707 343.97 284.707 342.798 285.878L334.044 294.633Z" fill="#3D8EDA"/>
<path d="M366.212 262.5C366.212 267.194 357.258 275 346.212 275C335.166 275 326.212 267.194 326.212 262.5C326.212 257.806 335.166 254 346.212 254C357.258 254 366.212 257.806 366.212 262.5Z" fill="#FF8C68"/>
<defs>
<filter id="filter0_d_318_5061" x="288" y="184.617" width="73" height="89" filterUnits="userSpaceOnUse" color-interpolation-filters="sRGB">
<feFlood flood-opacity="0" result="BackgroundImageFix"/>
<feColorMatrix in="SourceAlpha" type="matrix" values="0 0 0 0 0 0 0 0 0 0 0 0 0 0 0 0 0 0 127 0" result="hardAlpha"/>
<feOffset dy="4"/>
<feGaussianBlur stdDeviation="8.5"/>
<feComposite in2="hardAlpha" operator="out"/>
<feColorMatrix type="matrix" values="0 0 0 0 0 0 0 0 0 0 0 0 0 0 0 0 0 0 0.1 0"/>
<feBlend mode="normal" in2="BackgroundImageFix" result="effect1_dropShadow_318_5061"/>
<feBlend mode="normal" in="SourceGraphic" in2="effect1_dropShadow_318_5061" result="shape"/>
</filter>
<filter id="filter1_d_318_5061" x="331" y="184.617" width="73" height="89" filterUnits="userSpaceOnUse" color-interpolation-filters="sRGB">
<feFlood flood-opacity="0" result="BackgroundImageFix"/>
<feColorMatrix in="SourceAlpha" type="matrix" values="0 0 0 0 0 0 0 0 0 0 0 0 0 0 0 0 0 0 127 0" result="hardAlpha"/>
<feOffset dy="4"/>
<feGaussianBlur stdDeviation="8.5"/>
<feComposite in2="hardAlpha" operator="out"/>
<feColorMatrix type="matrix" values="0 0 0 0 0 0 0 0 0 0 0 0 0 0 0 0 0 0 0.1 0"/>
<feBlend mode="normal" in2="BackgroundImageFix" result="effect1_dropShadow_318_5061"/>
<feBlend mode="normal" in="SourceGraphic" in2="effect1_dropShadow_318_5061" result="shape"/>
</filter>
</defs>
</svg>
