<svg width="104" height="117" viewBox="0 0 104 117" fill="none" xmlns="http://www.w3.org/2000/svg">
<path d="M12.232 84.7504C12.6466 84.3856 12.6869 83.7537 12.322 83.3391C11.9572 82.9245 11.3253 82.8842 10.9107 83.249L12.232 84.7504ZM6.64934 118.906C9.57435 118.559 11.6642 115.907 11.3172 112.982C10.9702 110.057 8.31772 107.967 5.39271 108.314C2.4677 108.661 0.37782 111.313 0.724828 114.238C1.07184 117.163 3.72433 119.253 6.64934 118.906ZM10.9107 83.249C4.19329 89.1607 1.13715 101.165 5.06543 113.905L6.97662 113.315C3.21238 101.108 6.26111 90.0051 12.232 84.7504L10.9107 83.249Z" fill="#5277FF"/>
<path d="M82.3569 38.7279H9.63706C6.62983 38.7279 4.35514 35.6176 4.8921 32.2385L6.02417 25.0817L6.34128 23.0744C6.46495 22.2939 6.69324 21.5586 7.00718 20.8887C7.00929 20.8863 7.01035 20.8828 7.01141 20.8804C5.45019 19.7191 4.52955 17.5607 4.8921 15.2786L6.34128 6.11573C6.9015 2.57598 9.60006 0 12.7489 0H79.2451C82.3939 0 85.0925 2.57598 85.6527 6.11573L87.1019 15.2786C87.4645 17.5607 86.5438 19.7191 84.9826 20.8804C84.9836 20.8828 84.9847 20.8863 84.9868 20.8887C85.3007 21.5586 85.528 22.2939 85.6527 23.0744L85.9698 25.0817L87.1019 32.2385C87.6389 35.6176 85.3642 38.7279 82.3569 38.7279Z" fill="#9089E9"/>
<path opacity="0.64" d="M82.3567 38.7278H46.0945V25.0815H85.9696L87.1017 32.2384C87.6387 35.6175 85.3639 38.7278 82.3567 38.7278Z" fill="#404578"/>
<path opacity="0.64" d="M84.9866 20.8887H46.0945V0H79.2448C82.3937 0 85.0923 2.57598 85.6525 6.11573L87.1017 15.2786C87.4642 17.5607 86.5436 19.7191 84.9823 20.8804C84.9834 20.8828 84.9845 20.8863 84.9866 20.8887Z" fill="#404578"/>
<path d="M85.9696 25.0816H46.0945V20.8887H84.9866C85.0246 20.9696 85.0616 21.0529 85.0965 21.1362C85.1007 21.1445 85.1039 21.1528 85.1071 21.1611C85.1229 21.198 85.1388 21.2349 85.1536 21.273C85.1895 21.3587 85.2223 21.4467 85.2551 21.536C85.2868 21.6228 85.3163 21.7109 85.3459 21.7989C85.3924 21.9417 85.4348 22.0856 85.4739 22.232C85.4919 22.2974 85.5087 22.3641 85.5235 22.4307C85.55 22.5366 85.5732 22.6425 85.5943 22.7508C85.6155 22.8579 85.6356 22.9661 85.6525 23.0744L85.9696 25.0816Z" fill="#858585"/>
<path d="M7.00722 20.8887H46.0948V25.0816H6.02422L6.34132 23.0744C6.46499 22.2939 6.69329 21.5585 7.00722 20.8887Z" fill="#686868"/>
<path d="M102.369 70.8058V107.47C102.369 118.364 95.6794 127.276 87.5034 127.276H79.6433C79.4372 123.457 79.3083 119.63 79.2586 115.801C79.5926 115.875 79.9351 115.916 80.285 115.916H88.6217C92.0401 115.916 94.8359 112.19 94.8359 107.636V74.843C94.8359 70.2904 92.0401 66.5644 88.6217 66.5644H81.027L81.7436 51H87.5034C95.6794 51 102.369 59.9122 102.369 70.8058Z" fill="#5D5DA2"/>
<path d="M102.37 70.8058V107.47C102.37 118.364 95.6798 127.276 87.5037 127.276H85.5672V115.916H88.622C92.0404 115.916 94.8362 112.19 94.8362 107.636V74.843C94.8362 70.2904 92.0404 66.5644 88.622 66.5644H85.5672V51H87.5037C95.6798 51 102.37 59.9122 102.37 70.8058Z" fill="#BEB8FE"/>
<path d="M100.764 113.732H95.3121C93.8075 113.732 92.5765 112.092 92.5765 110.087V72.7176C92.5765 70.7132 93.8075 69.0732 95.312 69.0732H100.764C102.268 69.0732 103.499 70.7132 103.499 72.7176V110.087C103.499 112.092 102.268 113.732 100.764 113.732Z" fill="#5D5DA2"/>
<path d="M82.2664 38.5L82.0951 42.124L80.9112 67.2596L79.5318 96.5325C79.3067 101.318 79.2084 106.108 79.238 110.892C79.2909 120.086 79.8183 129.263 80.8055 138.367C81.3214 143.152 78.4547 147.417 74.7446 147.417H18.4952C14.876 147.417 12.0431 143.349 12.4089 138.657C12.9776 131.357 13.727 120.616 14.0621 110.892C14.2576 105.231 14.3178 99.9157 14.1191 95.8267L12.7439 67.2596L11.5326 42.124L11.3582 38.5H82.2664Z" fill="white"/>
<path d="M45.5845 38.502V147.418H27.4791L27.3172 38.502H45.5845Z" fill="#F0EFFF"/>
<path opacity="0.43" d="M82.2664 38.5L82.0951 42.124H11.5326L11.3582 38.5H82.2664Z" fill="#686868"/>
<path d="M75.6022 88.3519C75.1076 88.5466 74.8846 89.1328 75.1041 89.6614C75.3236 90.1899 75.9024 90.4606 76.397 90.2659L75.6022 88.3519ZM93.7471 54.9675C90.9474 54.0524 88.1107 55.63 87.4113 58.4913C86.7118 61.3525 88.4145 64.4139 91.2142 65.3291C94.0139 66.2442 96.8506 64.6666 97.5501 61.8053C98.2495 58.9441 96.5469 55.8827 93.7471 54.9675ZM76.397 90.2659C84.8337 86.9449 92.2074 75.5512 93.4569 60.2999L91.5044 59.9967C90.2918 74.7976 83.1658 85.3746 75.6022 88.3519L76.397 90.2659Z" fill="#5277FF"/>
<g filter="url(#filter0_d_242_51828)">
<rect x="17.9988" y="61.0737" width="19.5" height="27.5" rx="9.75" fill="white"/>
</g>
<rect x="24.4988" y="67.5737" width="10" height="14" rx="5" fill="black"/>
<g filter="url(#filter1_d_242_51828)">
<rect x="39.4988" y="61.0737" width="19.5" height="27.5" rx="9.75" fill="white"/>
</g>
<rect x="41.4988" y="67.5737" width="10" height="14" rx="5" fill="black"/>
<path fill-rule="evenodd" clip-rule="evenodd" d="M31.5214 104.336C30.9357 104.921 30.9357 105.871 31.5214 106.457L34.7865 109.722L31.0448 113.464C30.6812 113.828 30.5292 114.352 30.6421 114.854L35.0151 134.282C35.3664 135.842 37.5905 135.842 37.9418 134.282L42.3147 114.854C42.4276 114.352 42.2756 113.828 41.912 113.464L38.1703 109.722L41.4355 106.457C42.0213 105.871 42.0213 104.921 41.4355 104.336L37.5391 100.439C36.9533 99.8536 36.0036 99.8536 35.4178 100.439L31.5214 104.336Z" fill="#5D5EA1"/>
<path d="M36.0737 97.4683L30.3126 91.7071C29.6826 91.0771 30.1288 90 31.0197 90H47.2229C48.2563 90 48.6108 91.3764 47.706 91.8756L37.2639 97.6367C36.8739 97.8519 36.3887 97.7832 36.0737 97.4683Z" fill="#FF8C68"/>
<defs>
<filter id="filter0_d_242_51828" x="9.49882" y="54.5737" width="36.5" height="44.5" filterUnits="userSpaceOnUse" color-interpolation-filters="sRGB">
<feFlood flood-opacity="0" result="BackgroundImageFix"/>
<feColorMatrix in="SourceAlpha" type="matrix" values="0 0 0 0 0 0 0 0 0 0 0 0 0 0 0 0 0 0 127 0" result="hardAlpha"/>
<feOffset dy="2"/>
<feGaussianBlur stdDeviation="4.25"/>
<feComposite in2="hardAlpha" operator="out"/>
<feColorMatrix type="matrix" values="0 0 0 0 0 0 0 0 0 0 0 0 0 0 0 0 0 0 0.1 0"/>
<feBlend mode="normal" in2="BackgroundImageFix" result="effect1_dropShadow_242_51828"/>
<feBlend mode="normal" in="SourceGraphic" in2="effect1_dropShadow_242_51828" result="shape"/>
</filter>
<filter id="filter1_d_242_51828" x="30.9988" y="54.5737" width="36.5" height="44.5" filterUnits="userSpaceOnUse" color-interpolation-filters="sRGB">
<feFlood flood-opacity="0" result="BackgroundImageFix"/>
<feColorMatrix in="SourceAlpha" type="matrix" values="0 0 0 0 0 0 0 0 0 0 0 0 0 0 0 0 0 0 127 0" result="hardAlpha"/>
<feOffset dy="2"/>
<feGaussianBlur stdDeviation="4.25"/>
<feComposite in2="hardAlpha" operator="out"/>
<feColorMatrix type="matrix" values="0 0 0 0 0 0 0 0 0 0 0 0 0 0 0 0 0 0 0.1 0"/>
<feBlend mode="normal" in2="BackgroundImageFix" result="effect1_dropShadow_242_51828"/>
<feBlend mode="normal" in="SourceGraphic" in2="effect1_dropShadow_242_51828" result="shape"/>
</filter>
</defs>
</svg>
