<svg width="90" height="111" viewBox="0 0 90 111" fill="none" xmlns="http://www.w3.org/2000/svg">
<path d="M68.3601 80.3434C67.968 80.4769 67.7583 80.903 67.8918 81.2951C68.0253 81.6872 68.4514 81.8969 68.8435 81.7634L68.3601 80.3434ZM86.1709 51.9864C84.0451 51.3855 81.8346 52.6217 81.2337 54.7476C80.6328 56.8734 81.869 59.0839 83.9948 59.6848C86.1207 60.2857 88.3311 59.0495 88.9321 56.9237C89.533 54.7978 88.2968 52.5874 86.1709 51.9864ZM68.8435 81.7634C77.1967 78.9198 84.5788 69.1086 85.8295 55.9063L84.3362 55.7649C83.1249 68.5515 76.0073 77.7402 68.3601 80.3434L68.8435 81.7634Z" fill="#5277FF"/>
<path d="M10.7394 73.2048C11.052 72.9343 11.085 72.4609 10.813 72.1475C10.541 71.8341 10.067 71.7994 9.75437 72.0699L10.7394 73.2048ZM4.78393 107.78C6.97818 107.524 8.54247 105.538 8.27787 103.345C8.01326 101.152 6.01995 99.5813 3.82569 99.8373C1.63144 100.093 0.0671449 102.079 0.331754 104.272C0.596362 106.465 2.58967 108.036 4.78393 107.78ZM9.75437 72.0699C2.68069 78.1912 -0.593188 90.6944 3.58886 104.03L5.02076 103.587C0.967355 90.6614 4.22922 78.8385 10.7394 73.2048L9.75437 72.0699Z" fill="#5277FF"/>
<path d="M69.2518 45.793V134.012C69.2518 137.193 65.3955 139.774 60.6397 139.774H17.1337C12.3779 139.774 8.52158 137.194 8.52158 134.012V45.793H69.2518Z" fill="#A9DDAE"/>
<path d="M69.2516 45.793V124.087C69.2516 128.753 63.5206 132.536 56.4509 132.536H21.3228C14.2531 132.536 8.52206 128.753 8.52206 124.087V45.793H69.2516Z" fill="white"/>
<g opacity="0.18">
<path d="M69.2518 46.3701V124.614C69.2518 129.28 63.5208 133.062 56.451 133.062H38.941V46.3701H69.2518Z" fill="#86BC8F"/>
</g>
<path d="M69.2519 31.6362H8.5216V46.8484H69.2519V31.6362Z" fill="#A9DDAE"/>
<path d="M31.8714 31.6372H23.627V46.8503H31.8714V31.6372Z" fill="#C1C1C1"/>
<path d="M23.5185 31.6372H15.274V46.8503H23.5185V31.6372Z" fill="#898989"/>
<path d="M57.0399 31.6372H37.4405V46.8503H57.0399V31.6372Z" fill="#C1C1C1"/>
<path d="M69.2519 8.78465V31.6364H8.52158V8.78465C8.52158 3.93224 13.4361 0 19.5004 0H58.273C64.3375 0 69.2519 3.93224 69.2519 8.78465Z" fill="#6B9C64"/>
<path d="M69.2519 8.78465V31.6364H38.9409V0H58.2729C64.3374 0 69.2519 3.93224 69.2519 8.78465Z" fill="#498441"/>
<path opacity="0.17" d="M69.2019 31.605H38.9913V46.8796H69.2019V31.605Z" fill="#86BC8F"/>
<g filter="url(#filter0_d_242_51781)">
<rect x="18.5" y="52.4995" width="19.5" height="27.5" rx="9.75" fill="white"/>
</g>
<rect x="25" y="58.9995" width="10" height="14" rx="5" fill="black"/>
<g filter="url(#filter1_d_242_51781)">
<rect x="40" y="52.4995" width="19.5" height="27.5" rx="9.75" fill="white"/>
</g>
<rect x="42" y="58.9995" width="10" height="14" rx="5" fill="black"/>
<path fill-rule="evenodd" clip-rule="evenodd" d="M33.7187 93.8352C33.1329 94.421 33.1329 95.3707 33.7187 95.9565L36.9838 99.2216L33.2421 102.963C32.8784 103.327 32.7264 103.852 32.8394 104.353L37.2123 123.781C37.5636 125.342 39.7878 125.342 40.1391 123.781L44.5119 104.353C44.6249 103.852 44.4729 103.327 44.1092 102.963L40.3676 99.2217L43.6327 95.9565C44.2185 95.3707 44.2185 94.421 43.6327 93.8352L39.7364 89.9389C39.1506 89.3531 38.2008 89.3531 37.6151 89.9389L33.7187 93.8352Z" fill="#2A5724"/>
<path d="M8.52213 36.8857C8.4989 36.8852 8.47585 36.8843 8.45252 36.8843C6.84452 36.8843 5.52896 37.937 5.52896 39.2236V41.8972C5.52896 43.1838 6.84452 44.2365 8.45252 44.2365C8.47585 44.2365 8.4989 44.2355 8.52213 44.2351V36.8857Z" fill="#86BC8F"/>
<path d="M76.0001 42.4553V87.3497C76.0001 93.8731 72.8045 100.023 67.0015 104.666C61.1976 109.31 53.5125 111.867 45.3597 111.867H32.2352C31.9707 111.867 31.7063 111.865 31.4419 111.859C26.5527 111.759 21.8493 110.738 17.6407 108.898C15.0858 107.782 12.7137 106.364 10.5933 104.666C4.79036 100.023 1.59478 93.8731 1.59478 87.3497V42.4553C1.59478 40.3791 3.40791 38.6374 5.83449 38.187C5.63908 38.4997 5.52923 38.8521 5.52923 39.2232V41.8968C5.52923 42.0306 5.54381 42.1613 5.57103 42.2888C5.5613 42.3433 5.55547 42.3985 5.55547 42.4553V87.3497C5.55547 94.8143 10.3678 101.396 17.6407 105.213C21.6296 107.307 26.3603 108.57 31.4419 108.689C31.7053 108.695 31.9698 108.698 32.2352 108.698H45.3597C60.0708 108.698 72.0394 99.1215 72.0394 87.3497V42.4553C72.0394 42.4008 72.0336 42.3472 72.0248 42.2951C72.054 42.162 72.0705 42.0251 72.0705 41.8851V39.2123C72.0705 38.8459 71.9636 38.4989 71.774 38.1893C74.1928 38.6436 76.0001 40.383 76.0001 42.4553Z" fill="#A9DDAE"/>
<path d="M31.4423 108.689V111.859C26.5532 111.759 21.8498 110.738 17.6412 108.898V105.213C21.63 107.307 26.3607 108.57 31.4423 108.689Z" fill="#86BC8F"/>
<path opacity="0.48" d="M45.3593 111.867H38.9365V108.698H45.3593C60.0708 108.698 72.0394 99.1216 72.0394 87.3503V42.4554C72.0394 42.4011 72.0334 42.3479 72.0246 42.2954C72.0544 42.1623 72.0707 42.0256 72.0707 41.8859V39.2123C72.0707 38.8462 71.9636 38.4992 71.774 38.1899C74.193 38.6439 76.0001 40.3834 76.0001 42.4554V87.3503C76.0001 93.8737 72.8043 100.024 67.0012 104.667C61.1979 109.31 53.5121 111.867 45.3593 111.867Z" fill="#444444"/>
<path d="M54.6793 105.376H22.915C21.2365 105.376 19.8633 106.475 19.8633 107.818V109.841C19.8633 111.184 21.2365 112.283 22.915 112.283H54.6793C56.3578 112.283 57.731 111.184 57.731 109.841V107.818C57.731 106.475 56.3578 105.376 54.6793 105.376Z" fill="#A9DDAE"/>
<path d="M54.3429 112.283H38.9365V105.376H54.3429C56.2064 105.376 57.7311 106.596 57.7311 108.087V109.572C57.7311 111.063 56.2064 112.283 54.3429 112.283Z" fill="#86BC8F"/>
<path d="M69.2022 36.8853V44.2353C70.7873 44.2136 72.0757 43.1702 72.0757 41.897V39.2235C72.0757 37.9504 70.7872 36.907 69.2022 36.8853Z" fill="#86BC8F"/>
<path d="M37.0311 84.8408L35.2706 79.831C35.0421 79.1807 35.5247 78.4995 36.2141 78.4995H42.1632C43.0118 78.4995 43.4746 79.4899 42.9303 80.1409L38.7417 85.1507C38.2442 85.7457 37.2882 85.5725 37.0311 84.8408Z" fill="#FF8C68"/>
<defs>
<filter id="filter0_d_242_51781" x="10" y="45.9995" width="36.5" height="44.5" filterUnits="userSpaceOnUse" color-interpolation-filters="sRGB">
<feFlood flood-opacity="0" result="BackgroundImageFix"/>
<feColorMatrix in="SourceAlpha" type="matrix" values="0 0 0 0 0 0 0 0 0 0 0 0 0 0 0 0 0 0 127 0" result="hardAlpha"/>
<feOffset dy="2"/>
<feGaussianBlur stdDeviation="4.25"/>
<feComposite in2="hardAlpha" operator="out"/>
<feColorMatrix type="matrix" values="0 0 0 0 0 0 0 0 0 0 0 0 0 0 0 0 0 0 0.1 0"/>
<feBlend mode="normal" in2="BackgroundImageFix" result="effect1_dropShadow_242_51781"/>
<feBlend mode="normal" in="SourceGraphic" in2="effect1_dropShadow_242_51781" result="shape"/>
</filter>
<filter id="filter1_d_242_51781" x="31.5" y="45.9995" width="36.5" height="44.5" filterUnits="userSpaceOnUse" color-interpolation-filters="sRGB">
<feFlood flood-opacity="0" result="BackgroundImageFix"/>
<feColorMatrix in="SourceAlpha" type="matrix" values="0 0 0 0 0 0 0 0 0 0 0 0 0 0 0 0 0 0 127 0" result="hardAlpha"/>
<feOffset dy="2"/>
<feGaussianBlur stdDeviation="4.25"/>
<feComposite in2="hardAlpha" operator="out"/>
<feColorMatrix type="matrix" values="0 0 0 0 0 0 0 0 0 0 0 0 0 0 0 0 0 0 0.1 0"/>
<feBlend mode="normal" in2="BackgroundImageFix" result="effect1_dropShadow_242_51781"/>
<feBlend mode="normal" in="SourceGraphic" in2="effect1_dropShadow_242_51781" result="shape"/>
</filter>
</defs>
</svg>
