<svg width="1100" height="519" viewBox="0 0 1100 519" fill="none" xmlns="http://www.w3.org/2000/svg">
<g clip-path="url(#clip0_31_9899)">
<g opacity="0.4">
<path d="M1100 0H0V611H1100V0Z" fill="#E6F3FF"/>
<mask id="mask0_31_9899" style="mask-type:luminance" maskUnits="userSpaceOnUse" x="97" y="-1" width="887" height="588">
<path d="M983.12 -0.0117188H97.0669V586.97H983.12V-0.0117188Z" fill="white"/>
</mask>
<g mask="url(#mask0_31_9899)">
<path opacity="0.24" d="M414.226 168.884H410.164V166.41C410.554 166.058 410.799 165.592 410.799 165.075V156.877C410.799 156.361 410.555 155.894 410.164 155.542V153.068H377.97H314.959H314.181C312.94 153.068 311.935 153.907 311.935 154.939V155.588V156.877V165.075V166.364V167.013C311.935 168.047 312.941 168.884 314.181 168.884H314.959H318.245C317.004 168.884 315.999 169.722 315.999 170.755V171.403V172.693V180.89V182.179V182.828C315.999 183.862 317.005 184.699 318.245 184.699H313.654H312.875C311.634 184.699 310.63 185.537 310.63 186.57V187.218V188.508V196.705V197.994V198.643C310.63 199.677 311.636 200.514 312.875 200.514H313.654H376.665H408.858V198.041C409.248 197.689 409.493 197.222 409.493 196.705V188.508C409.493 187.991 409.25 187.524 408.858 187.172V184.699H414.226V182.225C414.616 181.873 414.861 181.407 414.861 180.89V172.693C414.861 172.176 414.616 171.709 414.226 171.357V168.884Z" fill="#82B2FC"/>
<path opacity="0.24" d="M296.214 168.883H264.021H201.01H200.231C198.99 168.883 197.985 169.721 197.985 170.754V171.403V172.692V180.889V182.178V182.827C197.985 183.861 198.991 184.698 200.231 184.698H194.034H193.255C192.015 184.698 191.01 185.536 191.01 186.569V187.218V188.507V196.704V197.993V198.642C191.01 199.676 192.016 200.513 193.255 200.513H194.034H257.045H289.238V198.04C289.629 197.688 289.873 197.221 289.873 196.704V188.507C289.873 187.99 289.63 187.523 289.238 187.171V184.698H296.212V182.225C296.604 181.873 296.847 181.406 296.847 180.889V172.692C296.847 172.175 296.603 171.708 296.212 171.356V168.883H296.214Z" fill="#82B2FC"/>
<path opacity="0.24" d="M166.316 104.754H150.561C150.094 104.754 149.717 105.068 149.717 105.457V200.679C149.717 201.067 150.094 201.381 150.561 201.381H166.316C166.781 201.381 167.159 201.066 167.159 200.679V105.457C167.159 105.068 166.782 104.754 166.316 104.754Z" fill="#82B2FC"/>
<path opacity="0.24" d="M146.938 104.754H131.183C130.717 104.754 130.34 105.068 130.34 105.457V200.679C130.34 201.067 130.718 201.381 131.183 201.381H146.938C147.404 201.381 147.781 201.066 147.781 200.679V105.457C147.781 105.068 147.403 104.754 146.938 104.754Z" fill="#82B2FC"/>
<path opacity="0.24" d="M535.952 532.181C506.044 532.181 476.872 532.353 448.728 532.676V-91.1962H115.017V555.021H115.034C115.031 555.06 115.007 555.098 115.007 555.137C115.007 567.814 303.471 578.092 535.954 578.092C768.437 578.092 956.9 567.815 956.9 555.137C956.9 542.459 768.435 532.181 535.952 532.181ZM127.934 -77.5305H433.657V76.703H432.071V-18.244C432.071 -18.6326 431.694 -18.9466 431.228 -18.9466H415.473C415.007 -18.9466 414.63 -18.6326 414.63 -18.244V76.703H412.692V-18.244C412.692 -18.6326 412.315 -18.9466 411.849 -18.9466H396.094C395.627 -18.9466 395.251 -18.6326 395.251 -18.244V76.703H393.313V-18.244C393.313 -18.6326 392.936 -18.9466 392.47 -18.9466H376.715C376.248 -18.9466 375.871 -18.6326 375.871 -18.244V76.703H373.934V7.6722C373.934 7.28361 373.557 6.96955 373.091 6.96955H362.014C361.548 6.96955 361.171 7.28483 361.171 7.6722V76.703H359.753V7.6722C359.753 7.28361 359.376 6.96955 358.909 6.96955H347.833C347.367 6.96955 346.99 7.28483 346.99 7.6722V76.703H313.309L323.742 68.0158C324.299 67.5514 324.337 66.7657 323.824 66.2586L253.612 -3.08385C253.1 -3.58975 252.233 -3.62274 251.674 -3.15839L240.847 5.85753C240.29 6.32189 240.252 7.10764 240.765 7.61355L310.724 76.703H228.568V76.1775C228.958 75.8256 229.203 75.3588 229.203 74.8419V66.6447C229.203 66.1278 228.96 65.661 228.568 65.3091V62.8357H233.936V60.3624C234.326 60.0105 234.571 59.5437 234.571 59.0267V50.8296C234.571 50.3127 234.326 49.8459 233.936 49.4939V47.0206H229.874V44.5473C230.264 44.1953 230.509 43.7285 230.509 43.2116V35.0145C230.509 34.4975 230.265 34.0307 229.874 33.6788V31.2055H247.418V28.7297C247.808 28.3778 248.053 27.911 248.053 27.3941V19.1969C248.053 18.68 247.809 18.2132 247.418 17.8612V15.3879H215.225H152.214H151.436C150.195 15.3879 149.191 16.2262 149.191 17.2588V17.9077V19.1969V27.3941V28.6833V29.3321C149.191 30.366 150.197 31.203 151.436 31.203H134.669H133.89C132.65 31.203 131.645 32.0413 131.645 33.0739V33.7228V35.012V43.2092V44.4984V45.1473C131.645 46.1811 132.651 47.0182 133.89 47.0182H134.669H137.955C136.714 47.0182 135.709 47.8564 135.709 48.889V49.5379V50.8271V59.0243V60.3135V60.9624C135.709 61.9962 136.715 62.8333 137.955 62.8333H133.364H132.585C131.344 62.8333 130.34 63.6716 130.34 64.7042V65.353V66.6423V74.8394V76.1311V76.703H127.934V-77.5305ZM127.934 88.4171H433.657V201.651H127.934V88.4171ZM127.934 211.413H433.657V322.695H432.071V228.136C432.071 227.747 431.693 227.433 431.228 227.433H415.473C415.007 227.433 414.63 227.748 414.63 228.136V322.695H412.144V228.136C412.144 227.747 411.765 227.433 411.3 227.433H395.545C395.079 227.433 394.702 227.748 394.702 228.136V322.695H392.216V251.031C392.216 250.642 391.838 250.328 391.373 250.328H379.751C379.284 250.328 378.907 250.644 378.907 251.031V322.695H368.072V321.21C368.405 320.871 368.613 320.442 368.613 319.969V313.546C368.613 313.073 368.405 312.644 368.072 312.305V310.006H374.026V307.707C374.361 307.368 374.569 306.939 374.569 306.466V300.043C374.569 299.57 374.361 299.141 374.026 298.8V296.502H346.208H293.173H292.395C291.154 296.502 290.149 297.34 290.149 298.373V299.021V300.043V306.466V307.487V308.136C290.149 309.17 291.155 310.007 292.395 310.007H287.217H286.438C285.198 310.007 284.193 310.846 284.193 311.878V312.527V313.549V319.971V320.993V321.642C284.193 322.034 284.34 322.398 284.588 322.699H271.767C271.842 322.506 271.894 322.304 271.894 322.09V313.893C271.894 313.376 271.65 312.909 271.259 312.558V310.084H276.626V307.611C277.017 307.259 277.262 306.792 277.262 306.275V298.078C277.262 297.561 277.017 297.094 276.626 296.742V294.269H255.967V291.796C256.357 291.444 256.602 290.977 256.602 290.46V282.263C256.602 281.746 256.359 281.279 255.967 280.927V278.454H223.774H160.763H159.984C158.743 278.454 157.739 279.292 157.739 280.325V280.974V282.263V290.46V291.749V292.398C157.739 293.432 158.745 294.269 159.984 294.269H160.763H180.645C179.404 294.269 178.399 295.107 178.399 296.14V296.789V298.078V306.275V307.564V308.213C178.399 309.247 179.406 310.084 180.645 310.084H176.054H175.275C174.035 310.084 173.03 310.923 173.03 311.955V312.604V313.893V322.09V322.699H127.93V211.413H127.934ZM127.934 336.361H433.657V445.691H430.932V351.549C430.932 351.161 430.553 350.846 430.088 350.846H414.333C413.867 350.846 413.49 351.161 413.49 351.549V445.691H411.553V377.465C411.553 377.077 411.174 376.763 410.709 376.763H399.633C399.166 376.763 398.79 377.078 398.79 377.465V445.691H396.395V351.549C396.395 351.161 396.016 350.846 395.551 350.846H379.796C379.33 350.846 378.953 351.161 378.953 351.549V445.691H377.015V377.465C377.015 377.077 376.638 376.763 376.172 376.763H365.096C364.629 376.763 364.253 377.078 364.253 377.465V445.691H361.857V351.549C361.857 351.161 361.479 350.846 361.014 350.846H345.259C344.793 350.846 344.416 351.161 344.416 351.549V445.691H342.478V377.465C342.478 377.077 342.101 376.763 341.635 376.763H330.559C330.092 376.763 329.715 377.078 329.715 377.465V445.691H320.694V445C321.084 444.648 321.329 444.182 321.329 443.665V435.467C321.329 434.951 321.086 434.484 320.694 434.132V431.659H304.767V429.573C305.158 429.221 305.403 428.754 305.403 428.237V420.04C305.403 419.523 305.158 419.056 304.767 418.704V416.231H297.378V414.024C297.768 413.672 298.013 413.205 298.013 412.688V404.491C298.013 403.974 297.768 403.507 297.378 403.155V400.682H317.561V398.209C317.951 397.857 318.196 397.39 318.196 396.873V388.676C318.196 388.159 317.953 387.692 317.561 387.34V384.867H285.368H222.357H221.578C220.337 384.867 219.333 385.704 219.333 386.738V387.387V388.676V396.873V398.162V398.811C219.333 399.845 220.339 400.682 221.578 400.682H202.174H201.395C200.155 400.682 199.15 401.519 199.15 402.553V403.202V404.491V412.688V413.977V414.626C199.15 415.66 200.156 416.497 201.395 416.497H202.174H207.646C206.986 416.823 206.539 417.416 206.539 418.102V418.751V420.04V428.237V429.526V430.175C206.539 431.209 207.545 432.046 208.784 432.046H209.563H223.357C222.819 432.388 222.465 432.922 222.465 433.531V434.178V435.467V443.665V444.954V445.603C222.465 445.633 222.474 445.661 222.476 445.692H165.788V351.55C165.788 351.162 165.411 350.848 164.944 350.848H149.189C148.723 350.848 148.346 351.162 148.346 351.55V445.692H146.408V377.467C146.408 377.078 146.032 376.764 145.565 376.764H134.489C134.022 376.764 133.646 377.079 133.646 377.467V445.692H127.933L127.934 336.361Z" fill="#82B2FC"/>
</g>
<path d="M620.831 122.145C651.152 122.145 675.731 101.411 675.731 75.8329C675.731 50.2552 651.152 29.5203 620.831 29.5203C590.511 29.5203 565.931 50.2552 565.931 75.8329C565.931 101.411 590.511 122.145 620.831 122.145Z" fill="#BFDBF5"/>
<path d="M620.831 117.123C647.864 117.123 669.778 98.6368 669.778 75.8329C669.778 53.029 647.864 34.5428 620.831 34.5428C593.798 34.5428 571.884 53.029 571.884 75.8329C571.884 98.6368 593.798 117.123 620.831 117.123Z" fill="#F9FAFA"/>
<path d="M624.931 75.8329C624.931 77.7429 623.096 79.29 620.833 79.29C618.568 79.29 616.733 77.7417 616.733 75.8329C616.733 73.9229 618.568 72.3759 620.833 72.3759C623.096 72.3759 624.931 73.9229 624.931 75.8329Z" fill="#BFDBF5"/>
<path d="M621.872 36.0507H619.903V43.6039H621.872V36.0507Z" fill="#BFDBF5"/>
<path d="M621.872 108.106H619.903V115.66H621.872V108.106Z" fill="#BFDBF5"/>
<path d="M668.072 76.6864V75.0244H659.118V76.6864H668.072Z" fill="#BFDBF5"/>
<path d="M582.657 76.6863V75.0243H573.703V76.6863H582.657Z" fill="#BFDBF5"/>
<path d="M619.805 74.637L620.906 48.452L622.007 74.637H619.805Z" fill="#BFDBF5"/>
<path d="M619.631 76.2997L598.479 57.1131L621.191 74.9873L619.631 76.2997Z" fill="#BFDBF5"/>
<path d="M1052.13 29.5264H768.503V345.389H1052.13V29.5264Z" fill="#F9F9F9"/>
<path d="M1070.94 187.585H749.685V200.634H1070.94V187.585Z" fill="#E6F3FF"/>
<path d="M918.045 16.9541H902.585V371.266H918.045V16.9541Z" fill="#E6F3FF"/>
<path d="M829.007 83.5555H756.961C756.961 83.5555 762.24 65.5274 780.872 65.5274C794.678 65.5274 801.844 72.8019 804.632 76.5718C810.078 74.7962 821.803 72.6431 829.007 83.5555Z" fill="#E6F3FF"/>
<path d="M955.13 270.983C956.979 270.983 958.712 271.401 960.215 272.125C963.088 267.95 968.387 265.141 974.468 265.141C980.147 265.141 985.153 267.586 988.13 271.31C989.702 266.825 994.566 263.555 1000.33 263.555C1006.87 263.555 1012.26 267.767 1012.98 273.187C1013.51 273.116 1014.04 273.069 1014.59 273.069C1018.58 273.069 1022.04 274.995 1023.78 277.814H945.038C946.114 273.9 950.219 270.983 955.13 270.983Z" fill="#E6F3FF"/>
<path d="M959.637 661.703H948.83C947.204 661.703 945.763 660.891 945.366 659.742L861.747 423.82L856.958 410.294H905.927L909.041 423.82L963.168 658.659C963.541 660.248 961.845 661.703 959.637 661.703Z" fill="#9FBDF9"/>
<path d="M302.783 410.294L297.995 423.82L214.377 659.742C213.983 660.891 212.542 661.703 210.914 661.703H200.106C197.899 661.703 196.202 660.249 196.574 658.659L250.7 423.82L253.815 410.294H302.783Z" fill="#9FBDF9"/>
<path d="M253.815 410.294H302.783L297.995 423.82H250.702L253.815 410.294Z" fill="#88AAE2"/>
<path d="M909.044 423.82H861.749L856.961 410.294H905.929L909.044 423.82Z" fill="#88AAE2"/>
<path d="M195.186 410.299H971.96C977.583 410.299 982.141 406.982 982.141 402.892C982.141 398.801 977.581 395.485 971.96 395.485H195.186C189.563 395.485 185.004 398.802 185.004 402.892C185.004 406.984 189.563 410.299 195.186 410.299Z" fill="#9FBDF9"/>
<path d="M982.133 402.887C982.133 406.979 977.578 410.292 971.955 410.292H195.181C192.369 410.292 189.813 409.463 187.975 408.127C186.14 406.792 185 404.932 185 402.886H982.133V402.887Z" fill="#8FB2EA"/>
<path d="M867.417 364.245H582.439C578.728 364.245 575.863 361.871 576.345 359.193L601.422 219.89C601.823 217.664 604.43 216 607.516 216H892.496C896.207 216 899.072 218.374 898.59 221.052L873.513 360.355C873.111 362.581 870.503 364.245 867.417 364.245Z" fill="#6888D5"/>
<path d="M878.101 364.245H593.123C589.412 364.245 586.547 361.871 587.029 359.193L612.106 219.89C612.506 217.664 615.114 216 618.2 216H903.18C906.891 216 909.756 218.374 909.274 221.052L884.197 360.355C883.795 362.581 881.187 364.245 878.101 364.245Z" fill="#9FBDF9"/>
<path d="M749.549 395.487H698.701L724.792 250.546C725.133 248.655 727.348 247.24 729.969 247.24H770.285C773.438 247.24 775.872 249.258 775.462 251.532L749.549 395.487Z" fill="#6888D5"/>
<path d="M756.285 395.487H705.437L731.53 250.546C731.872 248.655 734.086 247.24 736.707 247.24H777.024C780.176 247.24 782.611 249.258 782.201 251.532L756.285 395.487Z" fill="#5E83CC"/>
<path d="M809.361 395.488H646.386V390.502C646.386 389.723 647.255 389.091 648.326 389.091H807.422C808.494 389.091 809.363 389.723 809.363 390.502L809.361 395.488Z" fill="#5E83CC"/>
<path d="M353.53 383.501L370.461 383.844L374.402 280.739L357.471 280.397L353.53 383.501Z" fill="#DDDDDD"/>
<path d="M357.303 284.804L363.764 284.935L363.797 284.07L357.336 283.939L357.303 284.804Z" fill="#BCBCBC"/>
<path d="M357.216 287.072L363.677 287.203L363.71 286.338L357.249 286.207L357.216 287.072Z" fill="#BCBCBC"/>
<path d="M357.118 289.353L363.579 289.483L363.613 288.618L357.151 288.488L357.118 289.353Z" fill="#BCBCBC"/>
<path d="M356.956 293.879L363.417 294.01L363.45 293.146L356.989 293.015L356.956 293.879Z" fill="#BCBCBC"/>
<path d="M356.868 296.149L363.329 296.279L363.362 295.414L356.901 295.284L356.868 296.149Z" fill="#BCBCBC"/>
<path d="M356.782 298.418L363.243 298.549L363.277 297.684L356.816 297.553L356.782 298.418Z" fill="#BCBCBC"/>
<path d="M356.62 302.947L363.081 303.078L363.114 302.213L356.653 302.082L356.62 302.947Z" fill="#BCBCBC"/>
<path d="M356.533 305.215L362.994 305.346L363.027 304.481L356.566 304.35L356.533 305.215Z" fill="#BCBCBC"/>
<path d="M356.423 307.504L362.884 307.635L362.917 306.77L356.456 306.639L356.423 307.504Z" fill="#BCBCBC"/>
<path d="M356.261 312.031L362.722 312.162L362.755 311.297L356.294 311.166L356.261 312.031Z" fill="#BCBCBC"/>
<path d="M356.185 314.29L362.647 314.421L362.68 313.556L356.219 313.425L356.185 314.29Z" fill="#BCBCBC"/>
<path d="M356.088 316.57L362.549 316.701L362.582 315.836L356.121 315.705L356.088 316.57Z" fill="#BCBCBC"/>
<path d="M355.902 321.116L362.363 321.247L362.396 320.382L355.935 320.251L355.902 321.116Z" fill="#BCBCBC"/>
<path d="M355.838 323.367L362.299 323.498L362.332 322.633L355.871 322.502L355.838 323.367Z" fill="#BCBCBC"/>
<path d="M355.752 325.636L362.214 325.767L362.247 324.902L355.786 324.771L355.752 325.636Z" fill="#BCBCBC"/>
<path d="M355.566 330.185L362.027 330.315L362.061 329.45L355.599 329.32L355.566 330.185Z" fill="#BCBCBC"/>
<path d="M355.479 332.452L361.94 332.583L361.973 331.718L355.512 331.587L355.479 332.452Z" fill="#BCBCBC"/>
<path d="M355.405 334.712L361.866 334.843L361.899 333.979L355.438 333.848L355.405 334.712Z" fill="#BCBCBC"/>
<path d="M355.206 339.27L361.667 339.4L361.7 338.535L355.239 338.405L355.206 339.27Z" fill="#BCBCBC"/>
<path d="M355.133 341.528L361.594 341.659L361.627 340.794L355.166 340.664L355.133 341.528Z" fill="#BCBCBC"/>
<path d="M355.046 343.798L361.507 343.929L361.54 343.064L355.079 342.933L355.046 343.798Z" fill="#BCBCBC"/>
<path d="M354.858 348.345L361.319 348.476L361.352 347.612L354.891 347.481L354.858 348.345Z" fill="#BCBCBC"/>
<path d="M354.772 350.614L361.233 350.745L361.266 349.88L354.805 349.749L354.772 350.614Z" fill="#BCBCBC"/>
<path d="M354.684 352.884L361.145 353.015L361.179 352.15L354.717 352.019L354.684 352.884Z" fill="#BCBCBC"/>
<path d="M354.538 357.402L360.999 357.532L361.032 356.667L354.571 356.537L354.538 357.402Z" fill="#BCBCBC"/>
<path d="M354.439 359.68L360.9 359.811L360.933 358.946L354.472 358.815L354.439 359.68Z" fill="#BCBCBC"/>
<path d="M354.369 361.934L360.83 362.065L360.863 361.2L354.402 361.069L354.369 361.934Z" fill="#BCBCBC"/>
<path d="M354.178 366.486L360.639 366.617L360.672 365.752L354.211 365.622L354.178 366.486Z" fill="#BCBCBC"/>
<path d="M354.105 368.747L360.566 368.878L360.599 368.013L354.138 367.882L354.105 368.747Z" fill="#BCBCBC"/>
<path d="M354.004 371.026L360.465 371.156L360.498 370.291L354.037 370.161L354.004 371.026Z" fill="#BCBCBC"/>
<path d="M353.83 375.564L360.291 375.694L360.324 374.829L353.863 374.699L353.83 375.564Z" fill="#BCBCBC"/>
<path d="M353.759 377.823L360.22 377.954L360.253 377.089L353.792 376.958L353.759 377.823Z" fill="#BCBCBC"/>
<path d="M353.671 380.093L360.132 380.224L360.165 379.359L353.704 379.228L353.671 380.093Z" fill="#BCBCBC"/>
<path d="M353.913 373.298L363.344 373.489L363.377 372.624L353.946 372.434L353.913 373.298Z" fill="#BCBCBC"/>
<path d="M353.565 382.374L362.997 382.564L363.03 381.7L353.598 381.509L353.565 382.374Z" fill="#BCBCBC"/>
<path d="M357.385 282.539L366.817 282.729L366.85 281.865L357.418 281.674L357.385 282.539Z" fill="#BCBCBC"/>
<path d="M357.045 291.608L366.477 291.799L366.51 290.934L357.078 290.743L357.045 291.608Z" fill="#BCBCBC"/>
<path d="M356.706 300.677L366.137 300.868L366.171 300.003L356.739 299.812L356.706 300.677Z" fill="#BCBCBC"/>
<path d="M356.343 309.766L365.774 309.957L365.807 309.092L356.376 308.901L356.343 309.766Z" fill="#BCBCBC"/>
<path d="M355.997 318.842L365.428 319.033L365.462 318.168L356.03 317.977L355.997 318.842Z" fill="#BCBCBC"/>
<path d="M355.658 327.912L365.09 328.103L365.123 327.238L355.691 327.047L355.658 327.912Z" fill="#BCBCBC"/>
<path d="M355.311 336.988L364.742 337.179L364.776 336.314L355.344 336.123L355.311 336.988Z" fill="#BCBCBC"/>
<path d="M354.955 346.07L364.386 346.261L364.419 345.396L354.988 345.205L354.955 346.07Z" fill="#BCBCBC"/>
<path d="M354.626 355.133L364.057 355.324L364.09 354.459L354.659 354.268L354.626 355.133Z" fill="#BCBCBC"/>
<path d="M354.261 364.222L363.692 364.413L363.725 363.548L354.294 363.357L354.261 364.222Z" fill="#BCBCBC"/>
<path d="M362.41 379.006L369.45 379.832L385.569 307.162L378.529 306.336L362.41 379.006Z" fill="#FFD41D"/>
<path d="M378.513 306.344L385.552 307.17L385.764 306.214L378.725 305.388L378.513 306.344Z" fill="#99735E"/>
<path d="M378.709 305.379L385.751 306.205L385.894 305.564C386.206 304.15 384.885 302.819 382.941 302.59C380.997 302.363 379.167 303.324 378.852 304.738L378.709 305.379Z" fill="#FFD41D"/>
<path d="M362.382 378.999L363.451 381.997L364.6 385.285L367.109 382.444L369.423 379.825L362.382 378.999Z" fill="#E59470"/>
<path d="M363.451 381.997L364.6 385.285L367.109 382.443C366.586 382.19 365.976 382.012 365.319 381.936C364.686 381.861 364.053 381.892 363.451 381.997Z" fill="#FFD41D"/>
<path d="M362.398 379.012L365.918 379.425L382.037 306.755L378.517 306.342L362.398 379.012Z" fill="#F7A616"/>
<path d="M364.157 379.219L367.677 379.632L383.796 306.962L380.276 306.549L364.157 379.219Z" fill="#FFB83B"/>
<path d="M328.408 304.758L321.367 305.59L337.598 378.253L344.638 377.42L328.408 304.758Z" fill="#FFD41D"/>
<path d="M344.585 377.393L337.545 378.226L337.758 379.181L344.798 378.349L344.585 377.393Z" fill="#99735E"/>
<path d="M344.826 378.362L337.787 379.194L337.93 379.835C338.246 381.25 340.078 382.209 342.022 381.979C343.967 381.749 345.286 380.416 344.971 379.002L344.826 378.362Z" fill="#E8613D"/>
<path d="M328.384 304.756L326.068 302.158L323.552 299.301L322.404 302.572L321.345 305.59L328.384 304.756Z" fill="#E59470"/>
<path d="M326.068 302.158L323.552 299.301L322.405 302.574C323.011 302.694 323.666 302.722 324.324 302.644C324.957 302.569 325.544 302.395 326.068 302.158Z" fill="#FFD41D"/>
<path d="M328.354 304.741L324.834 305.157L341.064 377.813L344.584 377.396L328.354 304.741Z" fill="#F7A616"/>
<path d="M326.641 304.973L323.121 305.389L339.351 378.051L342.871 377.635L326.641 304.973Z" fill="#FFB83B"/>
<path d="M354.397 293.297L347.274 293.575L352.728 367.084L359.85 366.805L354.397 293.297Z" fill="#9FBDF9"/>
<path d="M359.813 366.822L352.692 367.101L352.763 368.067L359.884 367.789L359.813 366.822Z" fill="#99735E"/>
<path d="M359.886 367.758L352.765 368.037L352.813 368.684C352.918 370.115 354.599 371.212 356.564 371.134C358.531 371.058 360.039 369.835 359.934 368.404L359.886 367.758Z" fill="#E8613D"/>
<path d="M354.378 293.292L352.458 290.527L350.377 287.491L348.755 290.654L347.256 293.57L354.378 293.292Z" fill="#E59470"/>
<path d="M352.458 290.527L350.377 287.491L348.755 290.656C349.338 290.823 349.988 290.902 350.651 290.876C351.292 290.85 351.902 290.722 352.458 290.527Z" fill="#92B6EA"/>
<path d="M354.386 293.307L350.824 293.446L356.268 366.955L359.83 366.816L354.386 293.307Z" fill="#82A5D8"/>
<path d="M352.626 293.358L349.065 293.498L354.509 367.007L358.07 366.868L352.626 293.358Z" fill="#92B6EA"/>
<path d="M343.128 299.295L331.722 300.303L335.483 322.826L346.889 321.818L343.128 299.295Z" fill="#362D70"/>
<path d="M346.923 321.794L335.516 322.803L344.185 374.667L355.591 373.659L346.923 321.794Z" fill="#C7D6E2"/>
<path d="M347.116 323.188L335.71 324.196L336.114 326.615L347.52 325.607L347.116 323.188Z" fill="#362D70"/>
<path d="M335.566 299.945L331.746 300.283L344.179 374.673L347.999 374.335L335.566 299.945Z" fill="#C7D6E2"/>
<path d="M380.852 343.275L374.6 391.716L374.125 395.487H335.423L328.697 343.275H380.852Z" fill="#A3A0D8"/>
<path d="M380.852 343.275L374.6 391.716H342.27L336.018 343.275H380.852Z" fill="#BFB8F4"/>
<path d="M914.43 372.528C914.43 372.528 894.57 364.07 890.264 347.469C890.264 347.469 908.971 350.288 918.347 372.528" fill="#D6D4FF"/>
<path d="M922.266 372.528C922.266 372.528 942.126 364.07 946.432 347.469C946.432 347.469 927.725 350.288 918.349 372.528" fill="#D6D4FF"/>
<path d="M916.269 371.169C916.269 371.169 901.949 358.065 906.175 341.452C906.175 341.452 922.22 348.996 919.923 372.198" fill="#D6D4FF"/>
<path d="M920.895 371.222C920.895 371.222 934.785 357.875 930.02 341.34C930.02 341.34 914.226 349.158 917.276 372.314" fill="#D6D4FF"/>
<path d="M939.516 369.159H896.244V395.485H939.516V369.159Z" fill="#594A5F"/>
<path d="M939.518 369.159H931.015V395.485H939.518V369.159Z" fill="#4C4051"/>
</g>
<g filter="url(#filter0_d_31_9899)">
<path d="M463.895 380.471C464.888 381.219 466.298 381.021 467.047 380.029C467.795 379.036 467.597 377.626 466.605 376.878L463.895 380.471ZM367 351.674C367 358.301 372.373 363.674 379 363.674C385.627 363.674 391 358.301 391 351.674C391 345.047 385.627 339.674 379 339.674C372.373 339.674 367 345.047 367 351.674ZM466.605 376.878C452.141 365.973 439.897 359.202 426.363 355.119C412.858 351.045 398.211 349.692 379.031 349.424L378.969 353.924C398.008 354.189 412.16 355.535 425.063 359.427C437.936 363.31 449.707 369.773 463.895 380.471L466.605 376.878Z" fill="#5277FF"/>
<path d="M637.774 387.541C636.598 387.942 635.969 389.22 636.369 390.396C636.77 391.573 638.048 392.202 639.224 391.801L637.774 387.541ZM691.207 302.47C684.829 300.668 678.198 304.376 676.395 310.754C674.592 317.131 678.301 323.763 684.678 325.565C691.056 327.368 697.687 323.66 699.49 317.282C701.293 310.904 697.584 304.273 691.207 302.47ZM639.224 391.801C664.284 383.271 686.43 353.837 690.183 314.23L685.703 313.806C682.068 352.166 660.716 379.732 637.774 387.541L639.224 391.801Z" fill="#5277FF"/>
<path d="M648.784 270.086L647.482 284.894L627.549 511.753C627.176 515.988 623.85 519.225 619.869 519.225H480.128C476.148 519.225 472.821 515.988 472.449 511.753L452.516 284.894L451.214 270.086H648.784Z" fill="#F2F2F2"/>
<g opacity="0.18">
<path d="M648.784 270.086L647.482 284.894L627.549 511.753C627.176 515.989 623.85 519.226 619.869 519.226H549.726V270.086H648.784Z" fill="#91C1E5"/>
</g>
<path d="M549.727 270.086V519.225H509.773L499.479 284.894L498.829 270.086H549.727Z" fill="#EAEAEA"/>
<path opacity="0.43" d="M648.784 270.086L647.482 284.893H452.516L451.214 270.086H648.784Z" fill="#686868"/>
<path opacity="0.43" d="M648.784 270.086L647.482 284.893H452.516L451.214 270.086H648.784Z" fill="#D2D2D2"/>
<path d="M651.307 270.085H448.69C440.311 270.085 433.976 261.981 435.469 253.172L439.507 229.294C440.714 222.153 445.494 216.526 451.661 214.342C451.844 214.276 452.026 214.216 452.212 214.156L455.455 199.396L458.733 184.481C461.766 170.684 472.701 161 485.245 161H614.755C627.298 161 638.234 170.684 641.264 184.481L644.542 199.396L647.785 214.156C647.97 214.216 648.153 214.276 648.336 214.342C648.721 214.477 649.101 214.628 649.475 214.792C649.823 214.943 650.165 215.107 650.503 215.28C650.542 215.299 650.577 215.314 650.612 215.333C650.754 215.409 650.895 215.488 651.033 215.566C651.069 215.582 651.101 215.601 651.134 215.62C651.296 215.711 651.455 215.805 651.611 215.903C651.625 215.909 651.64 215.919 651.655 215.928C651.779 216.004 651.899 216.079 652.017 216.158C652.088 216.199 652.156 216.243 652.223 216.293C652.32 216.356 652.418 216.422 652.515 216.492C652.583 216.536 652.65 216.583 652.718 216.633C652.868 216.74 653.016 216.847 653.16 216.961C653.325 217.083 653.484 217.209 653.643 217.341C653.802 217.47 653.961 217.603 654.114 217.738C654.255 217.861 654.394 217.986 654.532 218.112C654.562 218.138 654.588 218.163 654.615 218.191C654.75 218.317 654.886 218.449 655.018 218.581C655.142 218.701 655.263 218.827 655.38 218.953C655.439 219.012 655.498 219.075 655.557 219.141C655.622 219.208 655.684 219.277 655.746 219.349C655.828 219.434 655.905 219.522 655.975 219.61C656.046 219.689 656.117 219.771 656.184 219.856C656.258 219.941 656.332 220.029 656.402 220.12C656.452 220.18 656.506 220.246 656.553 220.312C656.638 220.416 656.72 220.523 656.797 220.63C656.844 220.687 656.888 220.747 656.93 220.806C657.033 220.942 657.13 221.08 657.224 221.222C657.245 221.247 657.265 221.275 657.283 221.304C657.371 221.433 657.457 221.559 657.539 221.691C657.592 221.766 657.639 221.842 657.687 221.917C657.734 221.99 657.781 222.062 657.822 222.138C657.89 222.245 657.955 222.352 658.016 222.462C658.102 222.603 658.181 222.745 658.258 222.887C658.273 222.909 658.284 222.931 658.296 222.953C658.379 223.104 658.461 223.258 658.538 223.412C658.567 223.463 658.594 223.513 658.62 223.566C658.694 223.711 658.764 223.859 658.832 224.007C658.856 224.054 658.879 224.101 658.9 224.149C658.974 224.306 659.044 224.467 659.115 224.627C659.133 224.665 659.147 224.706 659.165 224.744C659.233 224.904 659.298 225.065 659.362 225.228C659.462 225.48 659.557 225.738 659.645 225.996C659.698 226.147 659.751 226.298 659.798 226.452C660.093 227.368 660.325 228.316 660.49 229.294L664.531 253.172C666.024 261.981 659.686 270.085 651.307 270.085Z" fill="#37434D"/>
<path d="M648.335 214.343H451.66C451.843 214.277 452.026 214.217 452.211 214.157L455.454 199.397H644.542L647.784 214.157C647.97 214.217 648.152 214.277 648.335 214.343Z" fill="#91C1E5"/>
<path opacity="0.64" d="M651.307 270.085H550.274V161H614.755C627.298 161 638.234 170.684 641.264 184.481L644.542 199.396L647.785 214.156C647.97 214.216 648.153 214.276 648.336 214.342C648.721 214.477 649.101 214.628 649.475 214.792C649.823 214.94 650.167 215.104 650.503 215.28C650.541 215.299 650.577 215.314 650.612 215.333C650.754 215.409 650.895 215.488 651.033 215.566C651.069 215.582 651.101 215.601 651.133 215.62C651.295 215.711 651.454 215.805 651.611 215.903C651.625 215.909 651.64 215.919 651.655 215.928C651.778 216.004 651.899 216.079 652.017 216.158C652.088 216.199 652.155 216.243 652.223 216.293C652.32 216.356 652.418 216.422 652.515 216.492C652.582 216.536 652.65 216.583 652.718 216.633C652.868 216.74 653.015 216.847 653.16 216.961C653.325 217.083 653.484 217.209 653.643 217.341C653.802 217.47 653.961 217.603 654.114 217.738C654.255 217.861 654.394 217.986 654.532 218.112C654.562 218.138 654.588 218.163 654.615 218.191C654.75 218.317 654.886 218.449 655.018 218.581C655.142 218.701 655.263 218.827 655.38 218.953C655.439 219.012 655.498 219.075 655.557 219.142C655.622 219.208 655.684 219.277 655.746 219.349C655.828 219.434 655.905 219.522 655.975 219.61C656.049 219.689 656.117 219.771 656.184 219.856C656.258 219.941 656.332 220.029 656.402 220.12C656.452 220.18 656.505 220.246 656.553 220.312C656.638 220.416 656.72 220.523 656.797 220.63C656.844 220.687 656.888 220.747 656.93 220.806C657.033 220.942 657.13 221.08 657.224 221.222C657.245 221.247 657.265 221.275 657.283 221.304C657.371 221.433 657.457 221.559 657.539 221.691C657.592 221.766 657.639 221.842 657.686 221.917C657.734 221.99 657.781 222.062 657.822 222.138C657.89 222.245 657.954 222.352 658.016 222.462C658.102 222.603 658.181 222.745 658.258 222.887C658.273 222.909 658.284 222.931 658.296 222.953C658.379 223.104 658.461 223.258 658.538 223.412C658.567 223.463 658.594 223.513 658.62 223.566C658.694 223.711 658.764 223.859 658.832 224.007C658.856 224.054 658.879 224.101 658.9 224.149C658.973 224.306 659.044 224.467 659.115 224.627C659.132 224.665 659.147 224.706 659.165 224.744C659.233 224.904 659.297 225.065 659.362 225.228C659.462 225.48 659.557 225.738 659.645 225.996C659.698 226.147 659.751 226.298 659.798 226.452C660.093 227.368 660.325 228.316 660.49 229.294L664.531 253.172C666.024 261.981 659.686 270.085 651.307 270.085Z" fill="#91C1E5"/>
<g filter="url(#filter1_d_31_9899)">
<rect x="488.5" y="306.5" width="58.5" height="82.5001" rx="29.25" fill="white"/>
</g>
<rect x="508" y="326" width="30" height="42.0001" rx="15" fill="black"/>
<g filter="url(#filter2_d_31_9899)">
<rect x="553" y="306.5" width="58.5" height="82.5001" rx="29.25" fill="white"/>
</g>
<rect x="559" y="326" width="30" height="42.0001" rx="15" fill="black"/>
<path d="M526.253 400.248C529 392.001 540.171 389.333 550.519 389.584C560.867 389.835 571.749 392.001 574.239 401.414C577.203 412.619 563.242 411.649 549.991 411.328C536.74 411.006 522.459 411.639 526.253 400.248Z" fill="#FF8C68"/>
</g>
</g>
<defs>
<filter id="filter0_d_31_9899" x="338" y="136" width="390.946" height="416.226" filterUnits="userSpaceOnUse" color-interpolation-filters="sRGB">
<feFlood flood-opacity="0" result="BackgroundImageFix"/>
<feColorMatrix in="SourceAlpha" type="matrix" values="0 0 0 0 0 0 0 0 0 0 0 0 0 0 0 0 0 0 127 0" result="hardAlpha"/>
<feOffset dy="4"/>
<feGaussianBlur stdDeviation="14.5"/>
<feComposite in2="hardAlpha" operator="out"/>
<feColorMatrix type="matrix" values="0 0 0 0 0.209306 0 0 0 0 0.286627 0 0 0 0 0.570833 0 0 0 0.5 0"/>
<feBlend mode="normal" in2="BackgroundImageFix" result="effect1_dropShadow_31_9899"/>
<feBlend mode="normal" in="SourceGraphic" in2="effect1_dropShadow_31_9899" result="shape"/>
</filter>
<filter id="filter1_d_31_9899" x="463" y="287" width="109.5" height="133.5" filterUnits="userSpaceOnUse" color-interpolation-filters="sRGB">
<feFlood flood-opacity="0" result="BackgroundImageFix"/>
<feColorMatrix in="SourceAlpha" type="matrix" values="0 0 0 0 0 0 0 0 0 0 0 0 0 0 0 0 0 0 127 0" result="hardAlpha"/>
<feOffset dy="6.00001"/>
<feGaussianBlur stdDeviation="12.75"/>
<feComposite in2="hardAlpha" operator="out"/>
<feColorMatrix type="matrix" values="0 0 0 0 0 0 0 0 0 0 0 0 0 0 0 0 0 0 0.1 0"/>
<feBlend mode="normal" in2="BackgroundImageFix" result="effect1_dropShadow_31_9899"/>
<feBlend mode="normal" in="SourceGraphic" in2="effect1_dropShadow_31_9899" result="shape"/>
</filter>
<filter id="filter2_d_31_9899" x="527.5" y="287" width="109.5" height="133.5" filterUnits="userSpaceOnUse" color-interpolation-filters="sRGB">
<feFlood flood-opacity="0" result="BackgroundImageFix"/>
<feColorMatrix in="SourceAlpha" type="matrix" values="0 0 0 0 0 0 0 0 0 0 0 0 0 0 0 0 0 0 127 0" result="hardAlpha"/>
<feOffset dy="6.00001"/>
<feGaussianBlur stdDeviation="12.75"/>
<feComposite in2="hardAlpha" operator="out"/>
<feColorMatrix type="matrix" values="0 0 0 0 0 0 0 0 0 0 0 0 0 0 0 0 0 0 0.1 0"/>
<feBlend mode="normal" in2="BackgroundImageFix" result="effect1_dropShadow_31_9899"/>
<feBlend mode="normal" in="SourceGraphic" in2="effect1_dropShadow_31_9899" result="shape"/>
</filter>
<clipPath id="clip0_31_9899">
<rect width="1100" height="519" rx="12" fill="white"/>
</clipPath>
</defs>
</svg>
