<svg width="90" height="112" viewBox="0 0 90 112" fill="none" xmlns="http://www.w3.org/2000/svg">
<path d="M68.3601 80.3434C67.968 80.4769 67.7584 80.903 67.8918 81.2951C68.0253 81.6872 68.4514 81.8969 68.8435 81.7634L68.3601 80.3434ZM86.171 51.9864C84.0451 51.3855 81.8346 52.6217 81.2337 54.7476C80.6328 56.8734 81.869 59.0839 83.9948 59.6848C86.1207 60.2857 88.3311 59.0495 88.9321 56.9237C89.533 54.7978 88.2968 52.5874 86.171 51.9864ZM68.8435 81.7634C77.1967 78.9198 84.5788 69.1086 85.8296 55.9063L84.3362 55.7649C83.1249 68.5515 76.0073 77.7402 68.3601 80.3434L68.8435 81.7634Z" fill="#5277FF"/>
<path d="M10.7394 73.2048C11.052 72.9343 11.085 72.4609 10.813 72.1475C10.541 71.8341 10.067 71.7994 9.75438 72.0699L10.7394 73.2048ZM4.78393 107.78C6.97819 107.524 8.54248 105.538 8.27787 103.345C8.01326 101.152 6.01996 99.5813 3.8257 99.8373C1.63144 100.093 0.0671506 102.079 0.331759 104.272C0.596368 106.465 2.58967 108.036 4.78393 107.78ZM9.75438 72.0699C2.6807 78.1912 -0.593182 90.6944 3.58887 104.03L5.02076 103.587C0.967361 90.6614 4.22923 78.8385 10.7394 73.2048L9.75438 72.0699Z" fill="#5277FF"/>
<path d="M69.2518 45.7927V134.012C69.2518 137.193 65.3955 139.773 60.6397 139.773H17.1337C12.3779 139.773 8.52158 137.193 8.52158 134.012V45.7927H69.2518Z" fill="#A9DDAE"/>
<path d="M69.2516 45.7927V124.087C69.2516 128.753 63.5206 132.536 56.4509 132.536H21.3228C14.2531 132.536 8.52206 128.753 8.52206 124.087V45.7927H69.2516Z" fill="white"/>
<g opacity="0.18">
<path d="M69.2518 46.3701V124.614C69.2518 129.28 63.5208 133.062 56.451 133.062H38.941V46.3701H69.2518Z" fill="#86BC8F"/>
</g>
<path d="M69.2519 31.6362H8.52161V46.8484H69.2519V31.6362Z" fill="#A9DDAE"/>
<path d="M31.8714 31.637H23.627V46.85H31.8714V31.637Z" fill="#C1C1C1"/>
<path d="M23.5185 31.637H15.274V46.85H23.5185V31.637Z" fill="#898989"/>
<path d="M57.04 31.637H37.4405V46.85H57.04V31.637Z" fill="#C1C1C1"/>
<path d="M69.2519 8.78465V31.6364H8.52158V8.78465C8.52158 3.93224 13.4361 0 19.5004 0H58.273C64.3375 0 69.2519 3.93224 69.2519 8.78465Z" fill="#6B9C64"/>
<path d="M69.2519 8.78465V31.6364H38.9409V0H58.273C64.3375 0 69.2519 3.93224 69.2519 8.78465Z" fill="#498441"/>
<path opacity="0.17" d="M69.2019 31.605H38.9913V46.8796H69.2019V31.605Z" fill="#86BC8F"/>
<g filter="url(#filter0_d_56_22941)">
<rect x="18.5" y="52.4995" width="19.5" height="27.5" rx="9.75" fill="white"/>
</g>
<rect x="25" y="58.9995" width="10" height="14" rx="5" fill="black"/>
<g filter="url(#filter1_d_56_22941)">
<rect x="40" y="52.4995" width="19.5" height="27.5" rx="9.75" fill="white"/>
</g>
<rect x="42" y="58.9995" width="10" height="14" rx="5" fill="black"/>
<path fill-rule="evenodd" clip-rule="evenodd" d="M33.7187 93.8352C33.1329 94.421 33.1329 95.3707 33.7187 95.9565L36.9838 99.2216L33.2421 102.963C32.8784 103.327 32.7264 103.852 32.8394 104.353L37.2123 123.781C37.5636 125.342 39.7878 125.342 40.1391 123.781L44.5119 104.353C44.6249 103.852 44.4729 103.327 44.1092 102.963L40.3676 99.2217L43.6328 95.9565C44.2185 95.3707 44.2185 94.421 43.6328 93.8352L39.7364 89.9389C39.1506 89.3531 38.2009 89.3531 37.6151 89.9389L33.7187 93.8352Z" fill="#2A5724"/>
<path d="M8.52214 36.8859C8.4989 36.8855 8.47585 36.8845 8.45252 36.8845C6.84453 36.8845 5.52896 37.9372 5.52896 39.2239V41.8974C5.52896 43.184 6.84453 44.2368 8.45252 44.2368C8.47585 44.2368 8.4989 44.2358 8.52214 44.2354V36.8859Z" fill="#86BC8F"/>
<path d="M76.0001 42.4555V87.35C76.0001 93.8733 72.8045 100.023 67.0015 104.667C61.1976 109.31 53.5125 111.868 45.3597 111.868H32.2352C31.9708 111.868 31.7063 111.865 31.4419 111.859C26.5528 111.759 21.8493 110.738 17.6407 108.898C15.0858 107.782 12.7137 106.364 10.5934 104.667C4.79037 100.023 1.59479 93.8733 1.59479 87.35V42.4555C1.59479 40.3794 3.40791 38.6377 5.83449 38.1873C5.63908 38.5 5.52923 38.8524 5.52923 39.2234V41.897C5.52923 42.0308 5.54381 42.1615 5.57103 42.2891C5.56131 42.3435 5.55547 42.3988 5.55547 42.4555V87.35C5.55547 94.8146 10.3678 101.396 17.6407 105.213C21.6296 107.308 26.3603 108.57 31.4419 108.689C31.7053 108.695 31.9698 108.698 32.2352 108.698H45.3597C60.0708 108.698 72.0394 99.1218 72.0394 87.35V42.4555C72.0394 42.4011 72.0336 42.3474 72.0248 42.2953C72.054 42.1623 72.0705 42.0254 72.0705 41.8854V39.2125C72.0705 38.8461 71.9636 38.4992 71.774 38.1896C74.1928 38.6439 76.0001 40.3832 76.0001 42.4555Z" fill="#A9DDAE"/>
<path d="M31.4423 108.689V111.859C26.5532 111.76 21.8498 110.738 17.6412 108.898V105.214C21.6301 107.308 26.3607 108.57 31.4423 108.689Z" fill="#86BC8F"/>
<path opacity="0.48" d="M45.3593 111.868H38.9365V108.699H45.3593C60.0708 108.699 72.0394 99.1218 72.0394 87.3506V42.4557C72.0394 42.4013 72.0334 42.3482 72.0246 42.2957C72.0544 42.1626 72.0707 42.0258 72.0707 41.8861V39.2126C72.0707 38.8464 71.9636 38.4995 71.774 38.1902C74.193 38.6442 76.0001 40.3836 76.0001 42.4557V87.3506C76.0001 93.8739 72.8043 100.024 67.0012 104.667C61.1979 109.31 53.5121 111.868 45.3593 111.868Z" fill="#444444"/>
<path d="M54.6793 105.377H22.915C21.2365 105.377 19.8633 106.476 19.8633 107.819V109.841C19.8633 111.184 21.2365 112.283 22.915 112.283H54.6793C56.3578 112.283 57.731 111.184 57.731 109.841V107.819C57.731 106.475 56.3578 105.377 54.6793 105.377Z" fill="#A9DDAE"/>
<path d="M54.3429 112.283H38.9365V105.377H54.3429C56.2064 105.377 57.7311 106.597 57.7311 108.088V109.572C57.7311 111.063 56.2064 112.283 54.3429 112.283Z" fill="#86BC8F"/>
<path d="M69.2022 36.8855V44.2355C70.7873 44.2138 72.0757 43.1705 72.0757 41.8973V39.2238C72.0757 37.9507 70.7872 36.9072 69.2022 36.8855Z" fill="#86BC8F"/>
<path d="M37.0311 84.8408L35.2706 79.831C35.0421 79.1807 35.5247 78.4995 36.2141 78.4995H42.1632C43.0118 78.4995 43.4747 79.4899 42.9303 80.1409L38.7417 85.1507C38.2442 85.7457 37.2882 85.5725 37.0311 84.8408Z" fill="#FF8C68"/>
<defs>
<filter id="filter0_d_56_22941" x="10" y="45.9995" width="36.5" height="44.5" filterUnits="userSpaceOnUse" color-interpolation-filters="sRGB">
<feFlood flood-opacity="0" result="BackgroundImageFix"/>
<feColorMatrix in="SourceAlpha" type="matrix" values="0 0 0 0 0 0 0 0 0 0 0 0 0 0 0 0 0 0 127 0" result="hardAlpha"/>
<feOffset dy="2"/>
<feGaussianBlur stdDeviation="4.25"/>
<feComposite in2="hardAlpha" operator="out"/>
<feColorMatrix type="matrix" values="0 0 0 0 0 0 0 0 0 0 0 0 0 0 0 0 0 0 0.1 0"/>
<feBlend mode="normal" in2="BackgroundImageFix" result="effect1_dropShadow_56_22941"/>
<feBlend mode="normal" in="SourceGraphic" in2="effect1_dropShadow_56_22941" result="shape"/>
</filter>
<filter id="filter1_d_56_22941" x="31.5" y="45.9995" width="36.5" height="44.5" filterUnits="userSpaceOnUse" color-interpolation-filters="sRGB">
<feFlood flood-opacity="0" result="BackgroundImageFix"/>
<feColorMatrix in="SourceAlpha" type="matrix" values="0 0 0 0 0 0 0 0 0 0 0 0 0 0 0 0 0 0 127 0" result="hardAlpha"/>
<feOffset dy="2"/>
<feGaussianBlur stdDeviation="4.25"/>
<feComposite in2="hardAlpha" operator="out"/>
<feColorMatrix type="matrix" values="0 0 0 0 0 0 0 0 0 0 0 0 0 0 0 0 0 0 0.1 0"/>
<feBlend mode="normal" in2="BackgroundImageFix" result="effect1_dropShadow_56_22941"/>
<feBlend mode="normal" in="SourceGraphic" in2="effect1_dropShadow_56_22941" result="shape"/>
</filter>
</defs>
</svg>
