<svg width="1100" height="519" viewBox="0 0 1100 519" fill="none" xmlns="http://www.w3.org/2000/svg">
<g clip-path="url(#clip0_56_22115)">
<g opacity="0.4">
<path d="M1100 0H0V611H1100V0Z" fill="#E6F2FF"/>
<mask id="mask0_56_22115" style="mask-type:luminance" maskUnits="userSpaceOnUse" x="97" y="-1" width="887" height="588">
<path d="M983.12 -0.0117188H97.0669V586.97H983.12V-0.0117188Z" fill="white"/>
</mask>
<g mask="url(#mask0_56_22115)">
<path opacity="0.24" d="M414.226 168.883H410.164V166.41C410.554 166.058 410.799 165.591 410.799 165.075V156.877C410.799 156.36 410.555 155.894 410.164 155.542V153.068H377.97H314.959H314.181C312.94 153.068 311.935 153.907 311.935 154.939V155.588V156.877V165.075V166.364V167.013C311.935 168.046 312.941 168.883 314.181 168.883H314.959H318.245C317.004 168.883 315.999 169.722 315.999 170.754V171.403V172.692V180.89V182.179V182.828C315.999 183.862 317.005 184.699 318.245 184.699H313.654H312.875C311.635 184.699 310.63 185.537 310.63 186.569V187.218V188.508V196.705V197.994V198.643C310.63 199.677 311.636 200.514 312.875 200.514H313.654H376.665H408.858V198.04C409.249 197.688 409.494 197.222 409.494 196.705V188.508C409.494 187.991 409.25 187.524 408.858 187.172V184.699H414.226V182.225C414.617 181.873 414.861 181.407 414.861 180.89V172.692C414.861 172.176 414.617 171.709 414.226 171.357V168.883Z" fill="#4E9CE5"/>
<path opacity="0.24" d="M296.214 168.883H264.02H201.01H200.231C198.99 168.883 197.985 169.721 197.985 170.754V171.403V172.692V180.889V182.178V182.827C197.985 183.861 198.991 184.698 200.231 184.698H194.034H193.255C192.014 184.698 191.01 185.536 191.01 186.569V187.218V188.507V196.704V197.993V198.642C191.01 199.676 192.016 200.513 193.255 200.513H194.034H257.045H289.238V198.04C289.628 197.688 289.873 197.221 289.873 196.704V188.507C289.873 187.99 289.63 187.523 289.238 187.171V184.698H296.212V182.225C296.604 181.873 296.847 181.406 296.847 180.889V172.692C296.847 172.175 296.602 171.708 296.212 171.356V168.883H296.214Z" fill="#4E9CE5"/>
<path opacity="0.24" d="M166.316 104.754H150.561C150.094 104.754 149.717 105.068 149.717 105.457V200.678C149.717 201.067 150.094 201.381 150.561 201.381H166.316C166.78 201.381 167.159 201.066 167.159 200.678V105.457C167.159 105.068 166.782 104.754 166.316 104.754Z" fill="#4E9CE5"/>
<path opacity="0.24" d="M146.938 104.754H131.183C130.717 104.754 130.34 105.068 130.34 105.457V200.678C130.34 201.067 130.718 201.381 131.183 201.381H146.938C147.404 201.381 147.781 201.066 147.781 200.678V105.457C147.781 105.068 147.403 104.754 146.938 104.754Z" fill="#4E9CE5"/>
<path opacity="0.24" d="M535.952 532.181C506.044 532.181 476.872 532.352 448.728 532.676V-91.1963H115.017V555.021H115.033C115.031 555.06 115.007 555.098 115.007 555.137C115.007 567.814 303.471 578.092 535.954 578.092C768.436 578.092 956.9 567.815 956.9 555.137C956.9 542.458 768.435 532.181 535.952 532.181ZM127.934 -77.5307H433.657V76.7029H432.071V-18.2441C432.071 -18.6327 431.694 -18.9468 431.228 -18.9468H415.473C415.006 -18.9468 414.629 -18.6327 414.629 -18.2441V76.7029H412.692V-18.2441C412.692 -18.6327 412.315 -18.9468 411.849 -18.9468H396.094C395.627 -18.9468 395.25 -18.6327 395.25 -18.2441V76.7029H393.313V-18.2441C393.313 -18.6327 392.936 -18.9468 392.47 -18.9468H376.715C376.248 -18.9468 375.871 -18.6327 375.871 -18.2441V76.7029H373.934V7.67207C373.934 7.28347 373.557 6.96941 373.091 6.96941H362.014C361.548 6.96941 361.171 7.28469 361.171 7.67207V76.7029H359.753V7.67207C359.753 7.28347 359.376 6.96941 358.909 6.96941H347.833C347.367 6.96941 346.99 7.28469 346.99 7.67207V76.7029H313.309L323.742 68.0156C324.299 67.5513 324.337 66.7655 323.824 66.2584L253.611 -3.08398C253.1 -3.58989 252.233 -3.62288 251.674 -3.15852L240.847 5.85739C240.29 6.32175 240.252 7.10751 240.765 7.61341L310.723 76.7029H228.568V76.1774C228.958 75.8254 229.203 75.3586 229.203 74.8417V66.6446C229.203 66.1277 228.96 65.6609 228.568 65.3089V62.8356H233.936V60.3623C234.326 60.0103 234.571 59.5435 234.571 59.0266V50.8294C234.571 50.3125 234.326 49.8457 233.936 49.4938V47.0205H229.873V44.5471C230.264 44.1952 230.509 43.7284 230.509 43.2115V35.0143C230.509 34.4974 230.265 34.0306 229.873 33.6787V31.2053H247.418V28.7296C247.808 28.3776 248.053 27.9108 248.053 27.3939V19.1967C248.053 18.6798 247.809 18.213 247.418 17.8611V15.3878H215.224H152.213H151.436C150.195 15.3878 149.191 16.2261 149.191 17.2587V17.9075V19.1967V27.3939V28.6831V29.332C149.191 30.3658 150.197 31.2029 151.436 31.2029H134.669H133.89C132.65 31.2029 131.645 32.0412 131.645 33.0738V33.7227V35.0119V43.209V44.4983V45.1471C131.645 46.181 132.651 47.018 133.89 47.018H134.669H137.955C136.714 47.018 135.709 47.8563 135.709 48.8889V49.5378V50.827V59.0242V60.3134V60.9623C135.709 61.9961 136.715 62.8331 137.955 62.8331H133.364H132.585C131.344 62.8331 130.34 63.6714 130.34 64.704V65.3529V66.6421V74.8393V76.131V76.7029H127.934V-77.5307ZM127.934 88.4169H433.657V201.651H127.934V88.4169ZM127.934 211.412H433.657V322.695H432.071V228.136C432.071 227.747 431.693 227.433 431.228 227.433H415.473C415.006 227.433 414.629 227.748 414.629 228.136V322.695H412.143V228.136C412.143 227.747 411.765 227.433 411.3 227.433H395.545C395.079 227.433 394.702 227.748 394.702 228.136V322.695H392.216V251.031C392.216 250.642 391.837 250.328 391.373 250.328H379.751C379.284 250.328 378.907 250.644 378.907 251.031V322.695H368.072V321.21C368.405 320.871 368.613 320.442 368.613 319.969V313.546C368.613 313.073 368.405 312.644 368.072 312.304V310.006H374.026V307.707C374.361 307.368 374.569 306.939 374.569 306.466V300.043C374.569 299.57 374.361 299.141 374.026 298.8V296.502H346.208H293.173H292.395C291.154 296.502 290.149 297.34 290.149 298.372V299.021V300.043V306.466V307.487V308.136C290.149 309.17 291.155 310.007 292.395 310.007H287.217H286.438C285.198 310.007 284.193 310.845 284.193 311.878V312.527V313.548V319.971V320.993V321.642C284.193 322.034 284.34 322.398 284.587 322.699H271.767C271.842 322.506 271.893 322.304 271.893 322.09V313.893C271.893 313.376 271.65 312.909 271.258 312.557V310.084H276.626V307.611C277.017 307.259 277.261 306.792 277.261 306.275V298.078C277.261 297.561 277.017 297.094 276.626 296.742V294.269H255.967V291.796C256.357 291.444 256.602 290.977 256.602 290.46V282.263C256.602 281.746 256.359 281.279 255.967 280.927V278.454H223.774H160.763H159.984C158.743 278.454 157.738 279.292 157.738 280.325V280.974V282.263V290.46V291.749V292.398C157.738 293.432 158.745 294.269 159.984 294.269H160.763H180.645C179.404 294.269 178.399 295.107 178.399 296.14V296.789V298.078V306.275V307.564V308.213C178.399 309.247 179.405 310.084 180.645 310.084H176.054H175.275C174.035 310.084 173.03 310.922 173.03 311.955V312.604V313.893V322.09V322.699H127.93V211.412H127.934ZM127.934 336.361H433.657V445.691H430.931V351.549C430.931 351.16 430.553 350.846 430.088 350.846H414.333C413.867 350.846 413.49 351.16 413.49 351.549V445.691H411.552V377.465C411.552 377.077 411.174 376.763 410.709 376.763H399.633C399.166 376.763 398.789 377.078 398.789 377.465V445.691H396.394V351.549C396.394 351.16 396.016 350.846 395.551 350.846H379.796C379.33 350.846 378.953 351.16 378.953 351.549V445.691H377.015V377.465C377.015 377.077 376.638 376.763 376.172 376.763H365.096C364.629 376.763 364.252 377.078 364.252 377.465V445.691H361.857V351.549C361.857 351.16 361.479 350.846 361.014 350.846H345.259C344.793 350.846 344.416 351.16 344.416 351.549V445.691H342.478V377.465C342.478 377.077 342.101 376.763 341.635 376.763H330.559C330.092 376.763 329.715 377.078 329.715 377.465V445.691H320.694V445C321.084 444.648 321.329 444.181 321.329 443.665V435.467C321.329 434.95 321.085 434.484 320.694 434.132V431.658H304.767V429.572C305.157 429.221 305.402 428.754 305.402 428.237V420.04C305.402 419.523 305.157 419.056 304.767 418.704V416.231H297.378V414.024C297.768 413.672 298.013 413.205 298.013 412.688V404.491C298.013 403.974 297.768 403.507 297.378 403.155V400.682H317.561V398.209C317.951 397.857 318.196 397.39 318.196 396.873V388.676C318.196 388.159 317.953 387.692 317.561 387.34V384.867H285.368H222.357H221.578C220.337 384.867 219.333 385.704 219.333 386.738V387.387V388.676V396.873V398.162V398.811C219.333 399.845 220.339 400.682 221.578 400.682H202.174H201.395C200.154 400.682 199.15 401.519 199.15 402.553V403.202V404.491V412.688V413.977V414.626C199.15 415.66 200.156 416.497 201.395 416.497H202.174H207.646C206.986 416.823 206.539 417.416 206.539 418.102V418.75V420.04V428.237V429.526V430.175C206.539 431.209 207.545 432.046 208.784 432.046H209.563H223.357C222.819 432.388 222.465 432.922 222.465 433.531V434.178V435.467V443.665V444.954V445.603C222.465 445.633 222.474 445.661 222.476 445.692H165.787V351.55C165.787 351.162 165.411 350.848 164.944 350.848H149.189C148.723 350.848 148.346 351.162 148.346 351.55V445.692H146.408V377.466C146.408 377.078 146.031 376.764 145.565 376.764H134.489C134.022 376.764 133.645 377.079 133.645 377.466V445.692H127.933L127.934 336.361Z" fill="#4E9CE5"/>
</g>
<path d="M620.831 122.146C651.152 122.146 675.731 101.411 675.731 75.8331C675.731 50.2554 651.152 29.5205 620.831 29.5205C590.51 29.5205 565.931 50.2554 565.931 75.8331C565.931 101.411 590.51 122.146 620.831 122.146Z" fill="#378AD7"/>
<path d="M620.831 117.123C647.864 117.123 669.778 98.6371 669.778 75.8331C669.778 53.0292 647.864 34.543 620.831 34.543C593.798 34.543 571.884 53.0292 571.884 75.8331C571.884 98.6371 593.798 117.123 620.831 117.123Z" fill="#F9FAFA"/>
<path d="M624.93 75.833C624.93 77.743 623.095 79.2901 620.832 79.2901C618.568 79.2901 616.733 77.7418 616.733 75.833C616.733 73.923 618.568 72.376 620.832 72.376C623.095 72.376 624.93 73.923 624.93 75.833Z" fill="#378AD7"/>
<path d="M621.872 36.0508H619.902V43.604H621.872V36.0508Z" fill="#378AD7"/>
<path d="M621.872 108.106H619.902V115.66H621.872V108.106Z" fill="#378AD7"/>
<path d="M668.072 76.6863V75.0244H659.118V76.6863H668.072Z" fill="#378AD7"/>
<path d="M582.656 76.6864V75.0244H573.702V76.6864H582.656Z" fill="#378AD7"/>
<path d="M619.804 74.6372L620.906 48.4521L622.007 74.6372H619.804Z" fill="#378AD7"/>
<path d="M619.631 76.2999L598.479 57.1133L621.19 74.9875L619.631 76.2999Z" fill="#378AD7"/>
<path d="M1052.13 29.5264H768.502V345.389H1052.13V29.5264Z" fill="#F9F9F9"/>
<path d="M1070.94 187.585H749.685V200.635H1070.94V187.585Z" fill="#C1DDF9"/>
<path d="M918.045 16.9541H902.585V371.266H918.045V16.9541Z" fill="#C1DDF9"/>
<path d="M829.007 83.5555H756.961C756.961 83.5555 762.24 65.5273 780.873 65.5273C794.678 65.5273 801.844 72.8019 804.632 76.5718C810.078 74.7962 821.803 72.643 829.007 83.5555Z" fill="#C1DDF9"/>
<path d="M955.13 270.983C956.98 270.983 958.712 271.401 960.215 272.125C963.088 267.95 968.387 265.141 974.468 265.141C980.147 265.141 985.153 267.586 988.13 271.309C989.702 266.825 994.566 263.555 1000.33 263.555C1006.87 263.555 1012.26 267.767 1012.98 273.186C1013.51 273.116 1014.04 273.069 1014.59 273.069C1018.58 273.069 1022.04 274.995 1023.78 277.814H945.038C946.115 273.9 950.22 270.983 955.13 270.983Z" fill="#C1DDF9"/>
<path d="M959.637 661.703H948.83C947.204 661.703 945.763 660.891 945.366 659.742L861.747 423.82L856.958 410.294H905.927L909.041 423.82L963.168 658.659C963.541 660.248 961.845 661.703 959.637 661.703Z" fill="#4E9CE5"/>
<path d="M302.783 410.294L297.995 423.82L214.377 659.742C213.983 660.891 212.542 661.703 210.914 661.703H200.106C197.899 661.703 196.203 660.249 196.574 658.659L250.7 423.82L253.815 410.294H302.783Z" fill="#4E9CE5"/>
<path d="M253.815 410.294H302.783L297.995 423.82H250.702L253.815 410.294Z" fill="#307DC8"/>
<path d="M909.044 423.82H861.749L856.961 410.294H905.929L909.044 423.82Z" fill="#307DC8"/>
<path d="M195.186 410.299H971.96C977.583 410.299 982.141 406.982 982.141 402.892C982.141 398.801 977.581 395.485 971.96 395.485H195.186C189.563 395.485 185.004 398.802 185.004 402.892C185.004 406.984 189.563 410.299 195.186 410.299Z" fill="#4E9CE5"/>
<path d="M982.133 402.887C982.133 406.979 977.578 410.292 971.955 410.292H195.181C192.369 410.292 189.813 409.463 187.975 408.127C186.14 406.792 185 404.932 185 402.886H982.133V402.887Z" fill="#307DC8"/>
<path d="M867.418 364.245H582.439C578.728 364.245 575.863 361.871 576.346 359.193L601.422 219.89C601.823 217.664 604.43 216 607.516 216H892.496C896.208 216 899.073 218.374 898.59 221.052L873.513 360.355C873.111 362.581 870.504 364.245 867.418 364.245Z" fill="#6888D5"/>
<path d="M878.101 364.245H593.123C589.412 364.245 586.547 361.871 587.029 359.193L612.106 219.89C612.506 217.664 615.114 216 618.2 216H903.18C906.891 216 909.756 218.374 909.274 221.052L884.197 360.355C883.795 362.581 881.187 364.245 878.101 364.245Z" fill="#4E9CE5"/>
<path d="M749.549 395.487H698.701L724.792 250.546C725.133 248.655 727.348 247.24 729.969 247.24H770.286C773.438 247.24 775.872 249.258 775.463 251.532L749.549 395.487Z" fill="#84A3BF"/>
<path d="M756.285 395.487H705.438L731.53 250.546C731.872 248.655 734.086 247.24 736.707 247.24H777.024C780.176 247.24 782.611 249.258 782.201 251.532L756.285 395.487Z" fill="#307DC8"/>
<path d="M809.361 395.488H646.386V390.502C646.386 389.723 647.255 389.091 648.326 389.091H807.422C808.494 389.091 809.363 389.723 809.363 390.502L809.361 395.488Z" fill="#307DC8"/>
<path d="M353.53 383.501L370.461 383.844L374.403 280.739L357.471 280.397L353.53 383.501Z" fill="#DDDDDD"/>
<path d="M357.303 284.804L363.764 284.935L363.797 284.07L357.336 283.939L357.303 284.804Z" fill="#BCBCBC"/>
<path d="M357.216 287.072L363.677 287.203L363.71 286.338L357.249 286.207L357.216 287.072Z" fill="#BCBCBC"/>
<path d="M357.119 289.353L363.58 289.483L363.613 288.618L357.152 288.488L357.119 289.353Z" fill="#BCBCBC"/>
<path d="M356.956 293.879L363.417 294.01L363.45 293.146L356.989 293.015L356.956 293.879Z" fill="#BCBCBC"/>
<path d="M356.869 296.149L363.33 296.279L363.363 295.414L356.902 295.284L356.869 296.149Z" fill="#BCBCBC"/>
<path d="M356.783 298.418L363.244 298.549L363.277 297.684L356.816 297.553L356.783 298.418Z" fill="#BCBCBC"/>
<path d="M356.62 302.947L363.082 303.078L363.115 302.213L356.654 302.082L356.62 302.947Z" fill="#BCBCBC"/>
<path d="M356.533 305.215L362.994 305.346L363.027 304.481L356.566 304.35L356.533 305.215Z" fill="#BCBCBC"/>
<path d="M356.423 307.504L362.884 307.635L362.917 306.77L356.456 306.639L356.423 307.504Z" fill="#BCBCBC"/>
<path d="M356.261 312.031L362.722 312.162L362.755 311.297L356.294 311.166L356.261 312.031Z" fill="#BCBCBC"/>
<path d="M356.186 314.29L362.647 314.421L362.68 313.556L356.219 313.425L356.186 314.29Z" fill="#BCBCBC"/>
<path d="M356.088 316.57L362.549 316.701L362.582 315.836L356.121 315.705L356.088 316.57Z" fill="#BCBCBC"/>
<path d="M355.902 321.116L362.363 321.247L362.396 320.382L355.935 320.251L355.902 321.116Z" fill="#BCBCBC"/>
<path d="M355.838 323.367L362.299 323.498L362.332 322.633L355.871 322.502L355.838 323.367Z" fill="#BCBCBC"/>
<path d="M355.753 325.636L362.214 325.767L362.247 324.902L355.786 324.771L355.753 325.636Z" fill="#BCBCBC"/>
<path d="M355.567 330.185L362.028 330.315L362.061 329.45L355.6 329.32L355.567 330.185Z" fill="#BCBCBC"/>
<path d="M355.479 332.452L361.94 332.583L361.973 331.718L355.512 331.587L355.479 332.452Z" fill="#BCBCBC"/>
<path d="M355.406 334.712L361.867 334.843L361.9 333.979L355.439 333.848L355.406 334.712Z" fill="#BCBCBC"/>
<path d="M355.206 339.27L361.667 339.4L361.701 338.535L355.239 338.405L355.206 339.27Z" fill="#BCBCBC"/>
<path d="M355.133 341.528L361.594 341.659L361.627 340.794L355.166 340.664L355.133 341.528Z" fill="#BCBCBC"/>
<path d="M355.046 343.798L361.507 343.929L361.54 343.064L355.079 342.933L355.046 343.798Z" fill="#BCBCBC"/>
<path d="M354.859 348.345L361.32 348.476L361.353 347.612L354.892 347.481L354.859 348.345Z" fill="#BCBCBC"/>
<path d="M354.773 350.614L361.234 350.745L361.267 349.88L354.806 349.749L354.773 350.614Z" fill="#BCBCBC"/>
<path d="M354.684 352.884L361.146 353.015L361.179 352.15L354.717 352.019L354.684 352.884Z" fill="#BCBCBC"/>
<path d="M354.538 357.402L360.999 357.532L361.032 356.667L354.571 356.537L354.538 357.402Z" fill="#BCBCBC"/>
<path d="M354.439 359.68L360.9 359.811L360.933 358.946L354.472 358.815L354.439 359.68Z" fill="#BCBCBC"/>
<path d="M354.369 361.934L360.83 362.065L360.863 361.2L354.402 361.069L354.369 361.934Z" fill="#BCBCBC"/>
<path d="M354.178 366.486L360.639 366.617L360.672 365.752L354.211 365.622L354.178 366.486Z" fill="#BCBCBC"/>
<path d="M354.105 368.747L360.566 368.878L360.599 368.013L354.138 367.882L354.105 368.747Z" fill="#BCBCBC"/>
<path d="M354.004 371.026L360.465 371.156L360.498 370.291L354.037 370.161L354.004 371.026Z" fill="#BCBCBC"/>
<path d="M353.83 375.564L360.291 375.694L360.324 374.829L353.863 374.699L353.83 375.564Z" fill="#BCBCBC"/>
<path d="M353.759 377.823L360.22 377.954L360.253 377.089L353.792 376.958L353.759 377.823Z" fill="#BCBCBC"/>
<path d="M353.671 380.093L360.132 380.224L360.165 379.359L353.704 379.228L353.671 380.093Z" fill="#BCBCBC"/>
<path d="M353.913 373.298L363.345 373.489L363.378 372.624L353.946 372.434L353.913 373.298Z" fill="#BCBCBC"/>
<path d="M353.566 382.374L362.997 382.564L363.03 381.7L353.599 381.509L353.566 382.374Z" fill="#BCBCBC"/>
<path d="M357.385 282.539L366.817 282.729L366.85 281.865L357.418 281.674L357.385 282.539Z" fill="#BCBCBC"/>
<path d="M357.046 291.608L366.477 291.799L366.51 290.934L357.079 290.743L357.046 291.608Z" fill="#BCBCBC"/>
<path d="M356.706 300.677L366.138 300.868L366.171 300.003L356.739 299.812L356.706 300.677Z" fill="#BCBCBC"/>
<path d="M356.343 309.766L365.774 309.957L365.807 309.092L356.376 308.901L356.343 309.766Z" fill="#BCBCBC"/>
<path d="M355.998 318.842L365.429 319.033L365.462 318.168L356.031 317.977L355.998 318.842Z" fill="#BCBCBC"/>
<path d="M355.658 327.912L365.09 328.103L365.123 327.238L355.691 327.047L355.658 327.912Z" fill="#BCBCBC"/>
<path d="M355.312 336.988L364.743 337.179L364.776 336.314L355.345 336.123L355.312 336.988Z" fill="#BCBCBC"/>
<path d="M354.955 346.07L364.387 346.261L364.42 345.396L354.988 345.205L354.955 346.07Z" fill="#BCBCBC"/>
<path d="M354.627 355.133L364.058 355.324L364.091 354.459L354.66 354.268L354.627 355.133Z" fill="#BCBCBC"/>
<path d="M354.261 364.222L363.692 364.413L363.725 363.548L354.294 363.357L354.261 364.222Z" fill="#BCBCBC"/>
<path d="M362.411 379.006L369.45 379.832L385.569 307.162L378.53 306.336L362.411 379.006Z" fill="#FFD41D"/>
<path d="M378.513 306.344L385.552 307.17L385.764 306.214L378.725 305.388L378.513 306.344Z" fill="#99735E"/>
<path d="M378.709 305.379L385.751 306.205L385.894 305.564C386.206 304.15 384.885 302.819 382.941 302.59C380.997 302.363 379.167 303.324 378.852 304.738L378.709 305.379Z" fill="#FFD41D"/>
<path d="M362.382 378.999L363.451 381.997L364.601 385.285L367.109 382.444L369.423 379.825L362.382 378.999Z" fill="#E59470"/>
<path d="M363.451 381.997L364.601 385.285L367.109 382.443C366.587 382.19 365.977 382.012 365.319 381.936C364.686 381.861 364.054 381.892 363.451 381.997Z" fill="#FFD41D"/>
<path d="M362.398 379.012L365.918 379.425L382.037 306.755L378.517 306.342L362.398 379.012Z" fill="#F7A616"/>
<path d="M364.157 379.219L367.678 379.632L383.797 306.962L380.276 306.549L364.157 379.219Z" fill="#FFB83B"/>
<path d="M328.408 304.758L321.368 305.59L337.598 378.252L344.639 377.42L328.408 304.758Z" fill="#FFD41D"/>
<path d="M344.585 377.393L337.545 378.226L337.758 379.181L344.798 378.349L344.585 377.393Z" fill="#99735E"/>
<path d="M344.826 378.362L337.787 379.194L337.93 379.835C338.246 381.249 340.078 382.209 342.023 381.979C343.967 381.749 345.286 380.416 344.971 379.002L344.826 378.362Z" fill="#E8613D"/>
<path d="M328.384 304.756L326.068 302.157L323.552 299.301L322.405 302.572L321.345 305.589L328.384 304.756Z" fill="#E59470"/>
<path d="M326.068 302.157L323.552 299.301L322.405 302.573C323.011 302.694 323.667 302.722 324.324 302.644C324.957 302.569 325.544 302.394 326.068 302.157Z" fill="#FFD41D"/>
<path d="M328.353 304.741L324.833 305.157L341.064 377.812L344.584 377.396L328.353 304.741Z" fill="#F7A616"/>
<path d="M326.641 304.973L323.121 305.389L339.351 378.051L342.871 377.635L326.641 304.973Z" fill="#FFB83B"/>
<path d="M354.397 293.297L347.274 293.575L352.728 367.084L359.851 366.805L354.397 293.297Z" fill="#4E9CE5"/>
<path d="M359.813 366.822L352.692 367.101L352.763 368.067L359.884 367.789L359.813 366.822Z" fill="#99735E"/>
<path d="M359.886 367.758L352.765 368.037L352.813 368.684C352.918 370.115 354.599 371.212 356.564 371.134C358.531 371.058 360.039 369.835 359.934 368.404L359.886 367.758Z" fill="#E8613D"/>
<path d="M354.378 293.292L352.458 290.527L350.377 287.491L348.755 290.654L347.256 293.57L354.378 293.292Z" fill="#E59470"/>
<path d="M352.458 290.527L350.376 287.491L348.754 290.656C349.338 290.823 349.988 290.902 350.651 290.876C351.291 290.85 351.901 290.722 352.458 290.527Z" fill="#92B6EA"/>
<path d="M354.386 293.307L350.824 293.446L356.268 366.955L359.829 366.816L354.386 293.307Z" fill="#82A5D8"/>
<path d="M352.626 293.358L349.064 293.498L354.508 367.007L358.07 366.868L352.626 293.358Z" fill="#92B6EA"/>
<path d="M343.128 299.295L331.722 300.303L335.483 322.826L346.889 321.818L343.128 299.295Z" fill="#362D70"/>
<path d="M346.923 321.794L335.517 322.803L344.185 374.667L355.591 373.659L346.923 321.794Z" fill="#C7D6E2"/>
<path d="M347.117 323.188L335.71 324.196L336.114 326.615L347.521 325.607L347.117 323.188Z" fill="#362D70"/>
<path d="M335.566 299.945L331.746 300.283L344.179 374.673L347.999 374.335L335.566 299.945Z" fill="#C7D6E2"/>
<path d="M380.852 343.275L374.6 391.716L374.125 395.487H335.423L328.697 343.275H380.852Z" fill="#378AD7"/>
<path d="M380.852 343.275L374.6 391.716H342.27L336.018 343.275H380.852Z" fill="#4E9CE5"/>
<path d="M914.43 372.528C914.43 372.528 894.57 364.07 890.264 347.469C890.264 347.469 908.971 350.288 918.347 372.528" fill="#69AAE6"/>
<path d="M922.266 372.528C922.266 372.528 942.126 364.07 946.432 347.469C946.432 347.469 927.725 350.288 918.349 372.528" fill="#69AAE6"/>
<path d="M916.269 371.169C916.269 371.169 901.949 358.065 906.175 341.452C906.175 341.452 922.22 348.996 919.923 372.198" fill="#69AAE6"/>
<path d="M920.896 371.222C920.896 371.222 934.785 357.875 930.02 341.34C930.02 341.34 914.226 349.158 917.276 372.314" fill="#69AAE6"/>
<path d="M939.516 369.159H896.244V395.485H939.516V369.159Z" fill="#5A89B5"/>
<path d="M939.518 369.159H931.015V395.485H939.518V369.159Z" fill="#4A84B9"/>
</g>
<g filter="url(#filter0_d_56_22115)">
<path d="M663.539 287.075C661.754 285.891 661.271 283.481 662.461 281.693C663.65 279.905 666.062 279.415 667.847 280.6L663.539 287.075ZM683.023 389.336C671.585 389.139 662.499 379.708 662.729 368.271C662.958 356.833 672.417 347.721 683.855 347.918C695.293 348.115 704.379 357.546 704.149 368.983C703.919 380.42 694.46 389.532 683.023 389.336ZM667.847 280.6C680.233 288.818 696.544 302.485 703.948 318.649C707.702 326.845 709.253 335.882 706.609 345.168C703.971 354.431 697.314 363.397 685.706 371.774L681.172 365.48C691.81 357.804 697.113 350.172 699.138 343.061C701.156 335.974 700.073 328.861 696.884 321.9C690.403 307.75 675.594 295.075 663.539 287.075L667.847 280.6Z" fill="#5277FF"/>
<path d="M444.541 288.72C446.326 287.536 446.809 285.126 445.619 283.338C444.43 281.55 442.018 281.06 440.233 282.245L444.541 288.72ZM425.057 390.981C436.495 390.784 445.581 381.353 445.351 369.916C445.122 358.478 435.663 349.366 424.225 349.563C412.787 349.76 403.702 359.191 403.931 370.628C404.161 382.065 413.62 391.177 425.057 390.981ZM440.233 282.245C427.847 290.463 411.536 304.13 404.132 320.294C400.378 328.49 398.827 337.527 401.472 346.813C404.109 356.076 410.766 365.042 422.375 373.419L426.908 367.125C416.27 359.449 410.967 351.817 408.942 344.706C406.924 337.619 408.007 330.506 411.196 323.545C417.677 309.395 432.486 296.72 444.541 288.72L440.233 282.245Z" fill="#5277FF"/>
<path d="M669.356 200.501V481.703C669.356 498.462 647.692 512.048 620.969 512.048H488.193C461.47 512.048 439.806 498.461 439.806 481.703V200.501H669.356Z" fill="#F2F2F2"/>
<path d="M620.97 512.049H488.193C461.471 512.049 439.806 498.457 439.806 481.693V513.077C439.806 524.353 454.381 533.497 472.355 533.497H636.808C654.781 533.497 669.356 524.353 669.356 513.077V481.693C669.356 498.457 647.692 512.049 620.97 512.049Z" fill="#868F96"/>
<path d="M669.356 103.658V155.308H439.806V103.658C439.806 67.397 486.664 38 544.464 38H564.698C622.497 38 669.356 67.397 669.356 103.658Z" fill="#3D8EDA"/>
<g opacity="0.21">
<path d="M469.836 140.378C466.283 140.378 463.404 138.572 463.404 136.343V122.645C461.206 103.685 465.919 88.5006 477.415 77.5135C483.285 71.903 490.923 67.4236 500.117 64.1994C509.222 61.0065 519.926 59.0254 531.933 58.3113C535.47 58.1008 538.608 59.7289 538.943 61.9475C539.278 64.1661 536.684 66.1353 533.147 66.3456C481.052 69.4443 473.452 98.43 476.251 122.2C476.262 122.299 476.268 122.398 476.268 122.498V136.343C476.268 138.572 473.388 140.378 469.836 140.378Z" fill="#F7F7F7"/>
</g>
<path d="M668.83 155.637H440.332V200.062H668.83V155.637Z" fill="#77BEFF"/>
<path d="M439.807 200.392H669.357V155.307H439.807V200.392ZM440.86 155.967H668.305V199.731H440.86V155.967Z" fill="white"/>
<path d="M649.29 155.637H459.865V200.062H649.29V155.637Z" fill="#77BEFF"/>
<path d="M459.336 200.392H649.814V155.307H459.336V200.392ZM460.388 155.967H648.761V199.731H460.388V155.967Z" fill="white"/>
<path d="M626.269 155.637H482.893V200.062H626.269V155.637Z" fill="#77BEFF"/>
<path d="M482.367 200.392H626.795V155.307H482.367V200.392ZM483.419 155.967H625.743V199.731H483.419V155.967Z" fill="white"/>
<path d="M603.938 155.637H505.217V200.062H603.938V155.637Z" fill="#77BEFF"/>
<path d="M504.693 200.392H604.468V155.307H504.693V200.392ZM505.746 155.967H603.415V199.731H505.746V155.967Z" fill="white"/>
<path d="M579.517 155.638H529.636V200.063H579.517V155.638Z" fill="#77BEFF"/>
<path d="M529.107 200.392H580.041V155.307H529.107V200.392ZM530.16 155.967H578.988V199.731H530.16V155.967Z" fill="white"/>
<path d="M555.455 155.308H554.403V200.393H555.455V155.308Z" fill="white"/>
<path d="M678.082 169.533H669.36V188.355H678.082C679.219 188.355 680.308 188.211 681.298 187.948C682.289 187.69 683.189 187.313 683.943 186.849C683.95 186.841 683.964 186.836 683.971 186.828C685.499 185.878 686.454 184.556 686.454 183.103V174.786C686.454 171.897 682.687 169.533 678.082 169.533Z" fill="#77BEFF"/>
<path d="M678.082 169.533H669.36V188.355H678.082C679.219 188.355 680.308 188.211 681.298 187.948C682.289 187.69 683.189 187.313 683.943 186.849C683.95 186.841 683.964 186.836 683.971 186.828C685.499 185.878 686.454 184.556 686.454 183.103V174.786C686.454 171.897 682.687 169.533 678.082 169.533Z" fill="#77BEFF"/>
<path d="M685.615 186.789C685.489 186.474 685.305 186.204 685.096 185.956C684.769 186.271 684.395 186.566 683.971 186.829C683.964 186.838 683.95 186.842 683.943 186.851C683.189 187.315 682.289 187.691 681.298 187.95C681.253 187.962 681.204 187.97 681.158 187.982C686.982 207.267 733.248 415.073 724.063 436.923C706.463 478.77 681.812 213.459 679.525 188.273C679.055 188.325 675.162 188.357 675.162 188.357C674.792 219.592 676.261 493.674 729.762 449.853C757.776 426.904 696.158 209.813 685.615 186.789Z" fill="#7A7A7A"/>
<path opacity="0.3" d="M685.091 185.956C685.945 185.133 686.45 184.154 686.45 183.103V174.787C686.45 171.898 682.682 169.534 678.077 169.534H669.356V155.308V103.658C669.356 67.397 622.497 38 564.698 38H554.581V533.497H636.807C654.78 533.497 669.356 524.353 669.356 513.077V481.693V188.356H675.157C674.788 219.592 676.256 493.673 729.758 449.853C757.771 426.904 696.153 209.812 685.61 186.788C685.484 186.473 685.3 186.203 685.091 185.956ZM724.058 436.923C706.458 478.769 681.807 213.458 679.52 188.272C680.086 188.209 680.633 188.112 681.154 187.981C686.977 207.267 733.243 415.072 724.058 436.923Z" fill="#77BEFF"/>
<g filter="url(#filter1_d_56_22115)">
<rect x="491.549" y="211.395" width="60.5857" height="85.4415" rx="30.2929" fill="white"/>
</g>
<rect x="511.744" y="231.59" width="31.0696" height="43.4975" rx="15.5348" fill="black"/>
<g filter="url(#filter2_d_56_22115)">
<rect x="558.349" y="211.395" width="60.5857" height="85.4415" rx="30.2929" fill="white"/>
</g>
<rect x="564.562" y="231.59" width="31.0696" height="43.4975" rx="15.5348" fill="black"/>
<path fill-rule="evenodd" clip-rule="evenodd" d="M536.668 362.107C534.848 363.927 534.848 366.878 536.668 368.698L547.886 379.916L535.187 392.616C534.057 393.746 533.585 395.376 533.936 396.935L549.016 463.933C550.108 468.782 557.018 468.782 558.109 463.933L573.19 396.935C573.54 395.376 573.068 393.746 571.938 392.616L559.239 379.917L570.458 368.698C572.278 366.878 572.278 363.927 570.458 362.107L556.858 348.507C555.038 346.687 552.087 346.687 550.267 348.507L536.668 362.107Z" fill="#3D8EDA"/>
<path d="M586.64 312.19C586.64 319.483 572.73 331.608 555.571 331.608C538.411 331.608 524.501 319.483 524.501 312.19C524.501 304.897 538.411 298.985 555.571 298.985C572.73 298.985 586.64 304.897 586.64 312.19Z" fill="#FF8C68"/>
</g>
</g>
<defs>
<filter id="filter0_d_56_22115" x="347.2" y="-7.64739" width="442.75" height="601.399" filterUnits="userSpaceOnUse" color-interpolation-filters="sRGB">
<feFlood flood-opacity="0" result="BackgroundImageFix"/>
<feColorMatrix in="SourceAlpha" type="matrix" values="0 0 0 0 0 0 0 0 0 0 0 0 0 0 0 0 0 0 127 0" result="hardAlpha"/>
<feOffset dy="7.30358"/>
<feGaussianBlur stdDeviation="26.4755"/>
<feComposite in2="hardAlpha" operator="out"/>
<feColorMatrix type="matrix" values="0 0 0 0 0.616667 0 0 0 0 0.642494 0 0 0 0 0.666667 0 0 0 1 0"/>
<feBlend mode="normal" in2="BackgroundImageFix" result="effect1_dropShadow_56_22115"/>
<feBlend mode="normal" in="SourceGraphic" in2="effect1_dropShadow_56_22115" result="shape"/>
</filter>
<filter id="filter1_d_56_22115" x="465.14" y="191.2" width="113.404" height="138.26" filterUnits="userSpaceOnUse" color-interpolation-filters="sRGB">
<feFlood flood-opacity="0" result="BackgroundImageFix"/>
<feColorMatrix in="SourceAlpha" type="matrix" values="0 0 0 0 0 0 0 0 0 0 0 0 0 0 0 0 0 0 127 0" result="hardAlpha"/>
<feOffset dy="6.21393"/>
<feGaussianBlur stdDeviation="13.2046"/>
<feComposite in2="hardAlpha" operator="out"/>
<feColorMatrix type="matrix" values="0 0 0 0 0 0 0 0 0 0 0 0 0 0 0 0 0 0 0.1 0"/>
<feBlend mode="normal" in2="BackgroundImageFix" result="effect1_dropShadow_56_22115"/>
<feBlend mode="normal" in="SourceGraphic" in2="effect1_dropShadow_56_22115" result="shape"/>
</filter>
<filter id="filter2_d_56_22115" x="531.939" y="191.2" width="113.404" height="138.26" filterUnits="userSpaceOnUse" color-interpolation-filters="sRGB">
<feFlood flood-opacity="0" result="BackgroundImageFix"/>
<feColorMatrix in="SourceAlpha" type="matrix" values="0 0 0 0 0 0 0 0 0 0 0 0 0 0 0 0 0 0 127 0" result="hardAlpha"/>
<feOffset dy="6.21393"/>
<feGaussianBlur stdDeviation="13.2046"/>
<feComposite in2="hardAlpha" operator="out"/>
<feColorMatrix type="matrix" values="0 0 0 0 0 0 0 0 0 0 0 0 0 0 0 0 0 0 0.1 0"/>
<feBlend mode="normal" in2="BackgroundImageFix" result="effect1_dropShadow_56_22115"/>
<feBlend mode="normal" in="SourceGraphic" in2="effect1_dropShadow_56_22115" result="shape"/>
</filter>
<clipPath id="clip0_56_22115">
<rect width="1100" height="519" rx="12" fill="white"/>
</clipPath>
</defs>
</svg>
