<svg width="109" height="118" viewBox="0 0 109 118" fill="none" xmlns="http://www.w3.org/2000/svg">
<path d="M84.8566 80.167C84.2821 79.7858 84.1268 79.0102 84.5097 78.4347C84.8926 77.8592 85.6687 77.7016 86.2432 78.0828L84.8566 80.167ZM91.1277 113.08C87.4463 113.017 84.5219 109.982 84.5959 106.3C84.6699 102.619 87.7141 99.6864 91.3955 99.7497C95.0769 99.813 98.0012 102.848 97.9273 106.53C97.8533 110.211 94.809 113.144 91.1277 113.08ZM86.2432 78.0828C90.2298 80.728 95.4796 85.1267 97.8627 90.3293C99.071 92.9671 99.5702 95.8757 98.719 98.8648C97.87 101.846 95.7274 104.732 91.9912 107.428L90.532 105.402C93.9559 102.932 95.6628 100.475 96.3146 98.1866C96.9641 95.9056 96.6154 93.6162 95.5891 91.3757C93.503 86.8215 88.7368 82.7417 84.8566 80.167L86.2432 78.0828Z" fill="#5277FF"/>
<path d="M14.3704 80.6968C14.9449 80.3156 15.1003 79.54 14.7174 78.9645C14.3345 78.3889 13.5584 78.2314 12.9839 78.6126L14.3704 80.6968ZM8.09936 113.61C11.7807 113.547 14.7051 110.511 14.6311 106.83C14.5572 103.149 11.5129 100.216 7.83153 100.279C4.15018 100.343 1.22581 103.378 1.29976 107.059C1.37372 110.741 4.41801 113.673 8.09936 113.61ZM12.9839 78.6126C8.99727 81.2578 3.74745 85.6565 1.36435 90.8591C0.156058 93.4969 -0.343132 96.4055 0.508068 99.3945C1.35708 102.376 3.49962 105.262 7.23585 107.958L8.69504 105.932C5.27116 103.461 3.56424 101.005 2.91248 98.7164C2.2629 96.4354 2.61162 94.146 3.63793 91.9055C5.72403 87.3513 10.4902 83.2714 14.3704 80.6968L12.9839 78.6126Z" fill="#5277FF"/>
<path d="M86.729 52.3027V142.81C86.729 148.204 79.7561 152.577 71.1553 152.577H28.4202C19.8193 152.577 12.8464 148.204 12.8464 142.81V52.3027H86.729Z" fill="#F2F2F2"/>
<path d="M86.729 21.1324V37.7566H12.8464V21.1324C12.8464 9.46165 27.9283 0 46.5315 0H53.044C71.6472 0 86.729 9.46165 86.729 21.1324Z" fill="#3D8EDA"/>
<g opacity="0.21">
<path d="M22.5119 32.9505C21.3685 32.9505 20.4417 32.369 20.4417 31.6518V27.2431C19.7343 21.1404 21.2514 16.2533 24.9514 12.717C26.8408 10.9113 29.2991 9.46951 32.2582 8.43178C35.1888 7.40414 38.6339 6.7665 42.4983 6.53666C43.6367 6.4689 44.6468 6.99292 44.7547 7.707C44.8626 8.42109 44.0274 9.05488 42.8892 9.12256C26.1219 10.1199 23.6759 19.4492 24.5766 27.0999C24.5804 27.1317 24.5822 27.1636 24.5822 27.1955V31.6517C24.582 32.369 23.6552 32.9505 22.5119 32.9505Z" fill="#F7F7F7"/>
</g>
<path d="M86.5598 37.8633H13.0159V52.1617H86.5598V37.8633Z" fill="#77BEFF"/>
<path d="M12.8469 52.2678H86.7295V37.7568H12.8469V52.2678ZM13.1857 37.9694H86.3908V52.0553H13.1857V37.9694Z" fill="white"/>
<path d="M80.271 37.8633H19.3031V52.1617H80.271V37.8633Z" fill="#77BEFF"/>
<path d="M19.1331 52.2678H80.44V37.7568H19.1331V52.2678ZM19.4718 37.9694H80.1012V52.0553H19.4718V37.9694Z" fill="white"/>
<path d="M72.8613 37.8633H26.7147V52.1617H72.8613V37.8633Z" fill="#77BEFF"/>
<path d="M26.5452 52.2678H73.0306V37.7568H26.5452V52.2678ZM26.8839 37.9694H72.6919V52.0553H26.8839V37.9694Z" fill="white"/>
<path d="M65.674 37.8633H33.8998V52.1617H65.674V37.8633Z" fill="#77BEFF"/>
<path d="M33.7308 52.2678H65.844V37.7568H33.7308V52.2678ZM34.0695 37.9694H65.5052V52.0553H34.0695V37.9694Z" fill="white"/>
<path d="M57.8141 37.8633H41.7595V52.1617H57.8141V37.8633Z" fill="#77BEFF"/>
<path d="M41.5896 52.2678H57.983V37.7568H41.5896V52.2678ZM41.9284 37.9694H57.6443V52.0553H41.9284V37.9694Z" fill="white"/>
<path d="M50.0695 37.7568H49.7307V52.2678H50.0695V37.7568Z" fill="white"/>
<path d="M89.5373 42.3354H86.7302V48.3934H89.5373C89.9033 48.3934 90.2537 48.3469 90.5725 48.2625C90.8914 48.1793 91.1811 48.0581 91.4236 47.9088C91.4259 47.906 91.4304 47.9046 91.4326 47.9018C91.9245 47.5961 92.2321 47.1706 92.2321 46.7029V44.026C92.2321 43.0962 91.0195 42.3354 89.5373 42.3354Z" fill="#77BEFF"/>
<path d="M89.5373 42.3354H86.7302V48.3934H89.5373C89.9033 48.3934 90.2537 48.3469 90.5725 48.2625C90.8914 48.1793 91.1811 48.0581 91.4236 47.9088C91.4259 47.906 91.4304 47.9046 91.4326 47.9018C91.9245 47.5961 92.2321 47.1706 92.2321 46.7029V44.026C92.2321 43.0962 91.0195 42.3354 89.5373 42.3354Z" fill="#77BEFF"/>
<path d="M91.9622 47.8891C91.9215 47.7878 91.8625 47.7009 91.7952 47.6211C91.6898 47.7226 91.5694 47.8173 91.433 47.9021C91.4307 47.9049 91.4262 47.9063 91.424 47.9091C91.1815 48.0584 90.8918 48.1796 90.5728 48.2627C90.5582 48.2666 90.5426 48.2693 90.5278 48.2731C92.4022 54.4803 107.293 121.364 104.337 128.397C98.6724 141.866 90.738 56.4731 90.002 48.3667C89.8507 48.3834 88.5978 48.3937 88.5978 48.3937C88.4788 58.4471 88.9515 146.662 106.171 132.559C115.188 125.172 95.3555 55.2995 91.9622 47.8891Z" fill="#7A7A7A"/>
<path opacity="0.3" d="M91.7933 47.6211C92.0681 47.3565 92.2305 47.0413 92.2305 46.7032V44.0264C92.2305 43.0965 91.0178 42.3358 89.5357 42.3358H86.7286V37.7571V21.1329C86.7286 9.46214 71.6468 0.000488281 53.0436 0.000488281H49.7873V159.48H76.2525C82.0373 159.48 86.7286 156.537 86.7286 152.908V142.806V48.3938H88.5959C88.4769 58.4472 88.9497 146.662 106.169 132.559C115.186 125.172 95.3536 55.2996 91.9603 47.8891C91.9196 47.7878 91.8606 47.7009 91.7933 47.6211ZM104.335 128.397C98.6704 141.866 90.736 56.4731 90 48.3667C90.1822 48.3466 90.3582 48.3153 90.5259 48.2731C92.4002 54.4803 107.291 121.364 104.335 128.397Z" fill="#77BEFF"/>
<g filter="url(#filter0_d_56_22877)">
<rect x="29.5002" y="55.8091" width="19.5" height="27.5" rx="9.75" fill="white"/>
</g>
<rect x="36.0002" y="62.3091" width="10" height="14" rx="5" fill="black"/>
<g filter="url(#filter1_d_56_22877)">
<rect x="51.0002" y="55.8091" width="19.5" height="27.5" rx="9.75" fill="white"/>
</g>
<rect x="53.0002" y="62.3091" width="10" height="14" rx="5" fill="black"/>
<path fill-rule="evenodd" clip-rule="evenodd" d="M44.0219 104.317C43.4361 104.903 43.4361 105.853 44.0219 106.439L47.6327 110.049L43.5453 114.137C43.1817 114.5 43.0297 115.025 43.1426 115.527L47.9964 137.091C48.3477 138.651 50.5718 138.651 50.9231 137.091L55.7768 115.527C55.8897 115.025 55.7377 114.5 55.3741 114.137L51.2867 110.049L54.8976 106.439C55.4834 105.853 55.4834 104.903 54.8976 104.317L50.5204 99.9401C49.9346 99.3543 48.9849 99.3543 48.3991 99.9401L44.0219 104.317Z" fill="#3D8EDA"/>
<path d="M60.106 88.2505C60.106 90.5977 55.6289 94.5005 50.106 94.5005C44.5832 94.5005 40.106 90.5977 40.106 88.2505C40.106 85.9033 44.5831 84.0005 50.106 84.0005C55.6288 84.0005 60.106 85.9033 60.106 88.2505Z" fill="#FF8C68"/>
<defs>
<filter id="filter0_d_56_22877" x="21.0002" y="49.3091" width="36.5" height="44.5" filterUnits="userSpaceOnUse" color-interpolation-filters="sRGB">
<feFlood flood-opacity="0" result="BackgroundImageFix"/>
<feColorMatrix in="SourceAlpha" type="matrix" values="0 0 0 0 0 0 0 0 0 0 0 0 0 0 0 0 0 0 127 0" result="hardAlpha"/>
<feOffset dy="2"/>
<feGaussianBlur stdDeviation="4.25"/>
<feComposite in2="hardAlpha" operator="out"/>
<feColorMatrix type="matrix" values="0 0 0 0 0 0 0 0 0 0 0 0 0 0 0 0 0 0 0.1 0"/>
<feBlend mode="normal" in2="BackgroundImageFix" result="effect1_dropShadow_56_22877"/>
<feBlend mode="normal" in="SourceGraphic" in2="effect1_dropShadow_56_22877" result="shape"/>
</filter>
<filter id="filter1_d_56_22877" x="42.5002" y="49.3091" width="36.5" height="44.5" filterUnits="userSpaceOnUse" color-interpolation-filters="sRGB">
<feFlood flood-opacity="0" result="BackgroundImageFix"/>
<feColorMatrix in="SourceAlpha" type="matrix" values="0 0 0 0 0 0 0 0 0 0 0 0 0 0 0 0 0 0 127 0" result="hardAlpha"/>
<feOffset dy="2"/>
<feGaussianBlur stdDeviation="4.25"/>
<feComposite in2="hardAlpha" operator="out"/>
<feColorMatrix type="matrix" values="0 0 0 0 0 0 0 0 0 0 0 0 0 0 0 0 0 0 0.1 0"/>
<feBlend mode="normal" in2="BackgroundImageFix" result="effect1_dropShadow_56_22877"/>
<feBlend mode="normal" in="SourceGraphic" in2="effect1_dropShadow_56_22877" result="shape"/>
</filter>
</defs>
</svg>
