<svg width="1000" height="1000" viewBox="0 0 1000 1000" fill="none" xmlns="http://www.w3.org/2000/svg">
<g clip-path="url(#clip0_195_45110)">
<path d="M243.122 871.033C244.117 875.26 248.35 877.88 252.577 876.885C256.804 875.89 259.424 871.657 258.429 867.43L243.122 871.033ZM47.0694 577.193C32.2642 595.002 34.6997 621.442 52.5093 636.247C70.3188 651.052 96.7583 648.617 111.563 630.807C126.369 612.998 123.933 586.558 106.124 571.753C88.314 556.948 61.8745 559.383 47.0694 577.193ZM258.429 867.43C243.923 805.816 226.145 760.267 198.897 719.061C171.708 677.947 135.371 641.589 84.4265 598.024L74.2063 609.976C124.777 653.221 159.802 688.451 185.78 727.735C211.698 766.929 228.892 810.591 243.122 871.033L258.429 867.43Z" fill="#5277FF"/>
<path d="M729.466 809.596C725.355 810.995 723.157 815.462 724.557 819.573C725.956 823.683 730.423 825.882 734.534 824.482L729.466 809.596ZM916.187 512.312C893.901 506.012 870.727 518.972 864.427 541.258C858.127 563.545 871.087 586.719 893.374 593.018C915.66 599.318 938.834 586.358 945.134 564.072C951.433 541.786 938.474 518.612 916.187 512.312ZM734.534 824.482C822.105 794.672 899.496 691.814 912.608 553.407L896.953 551.924C884.253 685.974 809.635 782.305 729.466 809.596L734.534 824.482Z" fill="#5277FF"/>
<path d="M855.639 381.195L851.09 432.941L781.434 1225.71C780.133 1240.51 768.507 1251.82 754.597 1251.82H266.27C252.36 1251.82 240.733 1240.51 239.433 1225.71L169.777 432.941L165.228 381.195H855.639Z" fill="white"/>
<g opacity="0.18">
<path d="M855.644 381.195L851.095 432.941L781.438 1225.71C780.137 1240.51 768.512 1251.82 754.601 1251.82H509.486V381.195H855.644Z" fill="#91C1E5"/>
</g>
<path d="M509.487 381.195V1251.82H369.867L333.897 432.941L331.623 381.195H509.487Z" fill="#EAEAEA"/>
<path opacity="0.43" d="M855.642 381.195L851.093 432.941H169.779L165.23 381.195H855.642Z" fill="#686868"/>
<path opacity="0.43" d="M855.642 381.195L851.093 432.941H169.779L165.23 381.195H855.642Z" fill="#D2D2D2"/>
<path d="M864.463 381.203H156.411C127.131 381.203 104.993 352.883 110.211 322.099L124.321 238.657C128.541 213.703 145.244 194.038 166.796 186.405C167.434 186.174 168.072 185.965 168.72 185.756L180.052 134.176L191.507 82.0564C202.107 33.841 240.321 0 284.154 0H736.731C780.564 0 818.778 33.841 829.368 82.0564L840.823 134.176L852.154 185.756C852.803 185.965 853.441 186.174 854.079 186.405C855.427 186.878 856.755 187.406 858.062 187.978C859.276 188.506 860.47 189.078 861.654 189.683C861.788 189.749 861.911 189.804 862.035 189.87C862.529 190.134 863.023 190.409 863.506 190.684C863.63 190.739 863.743 190.805 863.856 190.871C864.422 191.19 864.978 191.519 865.524 191.86C865.575 191.882 865.626 191.916 865.678 191.948C866.11 192.212 866.532 192.476 866.944 192.751C867.191 192.894 867.428 193.048 867.664 193.224C868.004 193.444 868.344 193.675 868.683 193.917C868.92 194.071 869.157 194.236 869.393 194.412C869.918 194.786 870.433 195.16 870.937 195.556C871.513 195.985 872.069 196.425 872.625 196.887C873.181 197.338 873.736 197.799 874.272 198.272C874.766 198.701 875.249 199.141 875.733 199.581C875.836 199.669 875.929 199.757 876.021 199.856C876.495 200.296 876.968 200.758 877.431 201.22C877.864 201.638 878.286 202.078 878.697 202.517C878.903 202.726 879.109 202.946 879.315 203.177C879.541 203.408 879.757 203.65 879.973 203.903C880.262 204.2 880.529 204.508 880.776 204.816C881.023 205.091 881.27 205.377 881.507 205.674C881.764 205.971 882.021 206.279 882.268 206.598C882.443 206.807 882.629 207.038 882.793 207.269C883.092 207.632 883.38 208.006 883.648 208.379C883.812 208.577 883.967 208.786 884.111 208.995C884.471 209.468 884.811 209.952 885.14 210.447C885.212 210.535 885.284 210.634 885.346 210.733C885.655 211.184 885.953 211.624 886.241 212.086C886.426 212.35 886.591 212.614 886.756 212.878C886.92 213.131 887.085 213.384 887.229 213.648C887.466 214.022 887.692 214.395 887.908 214.78C888.207 215.275 888.485 215.77 888.752 216.265C888.804 216.342 888.845 216.419 888.886 216.496C889.174 217.024 889.463 217.563 889.73 218.102C889.833 218.278 889.926 218.454 890.018 218.641C890.276 219.147 890.523 219.663 890.759 220.18C890.842 220.345 890.924 220.51 890.996 220.675C891.253 221.225 891.5 221.786 891.747 222.347C891.809 222.479 891.861 222.622 891.922 222.754C892.159 223.315 892.385 223.876 892.612 224.448C892.962 225.328 893.291 226.229 893.6 227.131C893.785 227.659 893.97 228.187 894.135 228.726C895.164 231.926 895.977 235.237 896.554 238.657L910.674 322.099C915.892 352.883 893.744 381.203 864.463 381.203Z" fill="#37434D"/>
<path d="M854.077 186.407H166.793C167.432 186.176 168.07 185.967 168.718 185.758L180.049 134.177H840.821L852.152 185.758C852.8 185.967 853.439 186.177 854.077 186.407Z" fill="#91C1E5"/>
<path opacity="0.64" d="M864.464 381.203H511.4V0H736.731C780.564 0 818.778 33.841 829.368 82.0564L840.823 134.176L852.155 185.756C852.803 185.965 853.441 186.174 854.079 186.405C855.427 186.878 856.755 187.406 858.062 187.978C859.277 188.495 860.481 189.067 861.654 189.683C861.788 189.749 861.911 189.804 862.035 189.87C862.529 190.134 863.023 190.409 863.507 190.684C863.63 190.739 863.743 190.805 863.856 190.871C864.423 191.19 864.978 191.519 865.524 191.86C865.575 191.882 865.627 191.916 865.678 191.948C866.11 192.212 866.532 192.476 866.944 192.751C867.191 192.894 867.428 193.048 867.665 193.224C868.004 193.444 868.344 193.675 868.683 193.917C868.92 194.071 869.157 194.236 869.394 194.412C869.918 194.786 870.433 195.16 870.937 195.556C871.514 195.985 872.069 196.425 872.625 196.887C873.181 197.338 873.737 197.799 874.272 198.272C874.766 198.701 875.25 199.141 875.733 199.581C875.836 199.669 875.929 199.757 876.022 199.856C876.495 200.296 876.968 200.758 877.432 201.22C877.864 201.638 878.286 202.078 878.697 202.517C878.903 202.726 879.109 202.946 879.315 203.177C879.541 203.408 879.758 203.65 879.974 203.903C880.262 204.2 880.529 204.508 880.776 204.816C881.034 205.091 881.27 205.377 881.507 205.674C881.764 205.971 882.022 206.279 882.269 206.598C882.444 206.807 882.629 207.038 882.794 207.269C883.092 207.632 883.38 208.006 883.648 208.379C883.812 208.577 883.967 208.786 884.111 208.995C884.471 209.468 884.811 209.952 885.14 210.447C885.212 210.535 885.284 210.634 885.346 210.733C885.655 211.184 885.953 211.624 886.241 212.086C886.427 212.35 886.591 212.614 886.756 212.878C886.921 213.131 887.085 213.384 887.23 213.648C887.466 214.022 887.693 214.395 887.909 214.78C888.207 215.275 888.485 215.77 888.753 216.265C888.804 216.342 888.845 216.419 888.886 216.496C889.175 217.024 889.463 217.563 889.73 218.102C889.833 218.278 889.926 218.454 890.019 218.641C890.276 219.147 890.523 219.663 890.76 220.18C890.842 220.345 890.924 220.51 890.996 220.675C891.254 221.225 891.501 221.786 891.748 222.347C891.809 222.479 891.861 222.622 891.923 222.754C892.159 223.315 892.386 223.876 892.612 224.448C892.962 225.328 893.291 226.229 893.6 227.131C893.785 227.659 893.971 228.187 894.135 228.726C895.165 231.926 895.978 235.237 896.554 238.657L910.674 322.099C915.892 352.883 893.744 381.203 864.464 381.203Z" fill="#91C1E5"/>
<g filter="url(#filter0_d_195_45110)">
<rect x="295.528" y="508.459" width="204.43" height="288.3" rx="102.215" fill="white"/>
</g>
<rect x="363.671" y="576.603" width="104.836" height="146.771" rx="52.4178" fill="black"/>
<g filter="url(#filter1_d_195_45110)">
<rect x="520.925" y="508.459" width="204.43" height="288.3" rx="102.215" fill="white"/>
</g>
<rect x="541.892" y="576.603" width="104.836" height="146.771" rx="52.4178" fill="black"/>
<path d="M427.457 836.06C437.056 807.242 476.094 797.917 512.255 798.796C548.417 799.674 586.443 807.242 595.145 840.135C605.504 879.292 556.715 875.905 510.41 874.779C464.104 873.654 414.198 875.869 427.457 836.06Z" fill="#FF8C68"/>
</g>
<defs>
<filter id="filter0_d_195_45110" x="206.418" y="440.316" width="382.651" height="466.521" filterUnits="userSpaceOnUse" color-interpolation-filters="sRGB">
<feFlood flood-opacity="0" result="BackgroundImageFix"/>
<feColorMatrix in="SourceAlpha" type="matrix" values="0 0 0 0 0 0 0 0 0 0 0 0 0 0 0 0 0 0 127 0" result="hardAlpha"/>
<feOffset dy="20.9672"/>
<feGaussianBlur stdDeviation="44.5553"/>
<feComposite in2="hardAlpha" operator="out"/>
<feColorMatrix type="matrix" values="0 0 0 0 0 0 0 0 0 0 0 0 0 0 0 0 0 0 0.1 0"/>
<feBlend mode="normal" in2="BackgroundImageFix" result="effect1_dropShadow_195_45110"/>
<feBlend mode="normal" in="SourceGraphic" in2="effect1_dropShadow_195_45110" result="shape"/>
</filter>
<filter id="filter1_d_195_45110" x="431.814" y="440.316" width="382.651" height="466.521" filterUnits="userSpaceOnUse" color-interpolation-filters="sRGB">
<feFlood flood-opacity="0" result="BackgroundImageFix"/>
<feColorMatrix in="SourceAlpha" type="matrix" values="0 0 0 0 0 0 0 0 0 0 0 0 0 0 0 0 0 0 127 0" result="hardAlpha"/>
<feOffset dy="20.9672"/>
<feGaussianBlur stdDeviation="44.5553"/>
<feComposite in2="hardAlpha" operator="out"/>
<feColorMatrix type="matrix" values="0 0 0 0 0 0 0 0 0 0 0 0 0 0 0 0 0 0 0.1 0"/>
<feBlend mode="normal" in2="BackgroundImageFix" result="effect1_dropShadow_195_45110"/>
<feBlend mode="normal" in="SourceGraphic" in2="effect1_dropShadow_195_45110" result="shape"/>
</filter>
<clipPath id="clip0_195_45110">
<rect width="1000" height="1000" rx="30" fill="white"/>
</clipPath>
</defs>
</svg>
