<svg width="116" height="31" viewBox="0 0 116 31" fill="none" xmlns="http://www.w3.org/2000/svg">
<path d="M11.61 17.49V22.5H9.06C4.76 22.5 2.61 20.37 2.61 16.11V10.56H0.54V5.67H2.61V1.59H8.52V5.67H11.58V10.56H8.52V16.2C8.52 16.66 8.62 16.99 8.82 17.19C9.04 17.39 9.4 17.49 9.9 17.49H11.61ZM30.327 5.67V22.5H24.417V20.1C23.917 20.86 23.227 21.48 22.347 21.96C21.467 22.42 20.457 22.65 19.317 22.65C17.357 22.65 15.807 22.01 14.667 20.73C13.547 19.43 12.987 17.67 12.987 15.45V5.67H18.837V14.7C18.837 15.66 19.087 16.42 19.587 16.98C20.107 17.52 20.787 17.79 21.627 17.79C22.487 17.79 23.167 17.52 23.667 16.98C24.167 16.42 24.417 15.66 24.417 14.7V5.67H30.327ZM54.4634 5.52C56.5834 5.52 58.2434 6.16 59.4434 7.44C60.6634 8.72 61.2734 10.47 61.2734 12.69V22.5H55.3934V13.47C55.3934 12.57 55.1434 11.87 54.6434 11.37C54.1434 10.87 53.4634 10.62 52.6034 10.62C51.7434 10.62 51.0634 10.87 50.5634 11.37C50.0634 11.87 49.8134 12.57 49.8134 13.47V22.5H43.9334V13.47C43.9334 12.57 43.6834 11.87 43.1834 11.37C42.7034 10.87 42.0334 10.62 41.1734 10.62C40.2934 10.62 39.6034 10.87 39.1034 11.37C38.6034 11.87 38.3534 12.57 38.3534 13.47V22.5H32.4734V5.67H38.3534V7.89C38.8734 7.17 39.5434 6.6 40.3634 6.18C41.2034 5.74 42.1634 5.52 43.2434 5.52C44.4834 5.52 45.5834 5.79 46.5434 6.33C47.5234 6.87 48.2934 7.63 48.8534 8.61C49.4534 7.69 50.2434 6.95 51.2234 6.39C52.2034 5.81 53.2834 5.52 54.4634 5.52ZM69.1748 8.01C69.6348 7.21 70.2848 6.59 71.1248 6.15C71.9648 5.69 72.9548 5.46 74.0948 5.46C75.4348 5.46 76.6448 5.81 77.7248 6.51C78.8248 7.21 79.6848 8.21 80.3048 9.51C80.9448 10.81 81.2648 12.33 81.2648 14.07C81.2648 15.81 80.9448 17.34 80.3048 18.66C79.6848 19.96 78.8248 20.96 77.7248 21.66C76.6448 22.36 75.4348 22.71 74.0948 22.71C72.9548 22.71 71.9648 22.49 71.1248 22.05C70.2848 21.59 69.6348 20.96 69.1748 20.16V22.5H63.2948V0.3H69.1748V8.01ZM75.2948 14.07C75.2948 12.97 74.9948 12.12 74.3948 11.52C73.8148 10.9 73.0948 10.59 72.2348 10.59C71.3748 10.59 70.6448 10.9 70.0448 11.52C69.4648 12.14 69.1748 12.99 69.1748 14.07C69.1748 15.17 69.4648 16.03 70.0448 16.65C70.6448 17.27 71.3748 17.58 72.2348 17.58C73.0948 17.58 73.8148 17.27 74.3948 16.65C74.9948 16.01 75.2948 15.15 75.2948 14.07ZM88.3655 0.3V22.5H82.4855V0.3H88.3655ZM108.634 5.67L97.954 30.51H91.564L95.584 21.78L88.684 5.67H95.224L98.764 15.21L102.184 5.67H108.634Z" fill="black"/>
<path d="M111.822 22.74C110.782 22.74 109.942 22.46 109.302 21.9C108.682 21.32 108.372 20.59 108.372 19.71C108.372 18.83 108.682 18.1 109.302 17.52C109.942 16.94 110.782 16.65 111.822 16.65C112.842 16.65 113.662 16.94 114.282 17.52C114.922 18.1 115.242 18.83 115.242 19.71C115.242 20.57 114.922 21.29 114.282 21.87C113.662 22.45 112.842 22.74 111.822 22.74Z" fill="#5277FF"/>
</svg>
