<svg width="574" height="277" viewBox="0 0 574 277" fill="none" xmlns="http://www.w3.org/2000/svg">
<path d="M27.09 65.31V77H21.14C11.1067 77 6.09 72.03 6.09 62.09V49.14H1.26V37.73H6.09V28.21H19.88V37.73H27.02V49.14H19.88V62.3C19.88 63.3733 20.1133 64.1433 20.58 64.61C21.0933 65.0767 21.9333 65.31 23.1 65.31H27.09ZM70.7629 37.73V77H56.9729V71.4C55.8062 73.1733 54.1962 74.62 52.1429 75.74C50.0896 76.8133 47.7329 77.35 45.0729 77.35C40.4996 77.35 36.8829 75.8567 34.2229 72.87C31.6096 69.8367 30.3029 65.73 30.3029 60.55V37.73H43.9529V58.8C43.9529 61.04 44.5362 62.8133 45.7029 64.12C46.9162 65.38 48.5029 66.01 50.4629 66.01C52.4696 66.01 54.0562 65.38 55.2229 64.12C56.3896 62.8133 56.9729 61.04 56.9729 58.8V37.73H70.7629ZM127.081 37.38C132.028 37.38 135.901 38.8733 138.701 41.86C141.548 44.8467 142.971 48.93 142.971 54.11V77H129.251V55.93C129.251 53.83 128.668 52.1967 127.501 51.03C126.335 49.8633 124.748 49.28 122.741 49.28C120.735 49.28 119.148 49.8633 117.981 51.03C116.815 52.1967 116.231 53.83 116.231 55.93V77H102.511V55.93C102.511 53.83 101.928 52.1967 100.761 51.03C99.6412 49.8633 98.0778 49.28 96.0712 49.28C94.0178 49.28 92.4078 49.8633 91.2412 51.03C90.0745 52.1967 89.4912 53.83 89.4912 55.93V77H75.7712V37.73H89.4912V42.91C90.7045 41.23 92.2678 39.9 94.1812 38.92C96.1412 37.8933 98.3812 37.38 100.901 37.38C103.795 37.38 106.361 38.01 108.601 39.27C110.888 40.53 112.685 42.3033 113.991 44.59C115.391 42.4433 117.235 40.7167 119.521 39.41C121.808 38.0567 124.328 37.38 127.081 37.38ZM161.408 43.19C162.481 41.3233 163.998 39.8767 165.958 38.85C167.918 37.7767 170.228 37.24 172.888 37.24C176.015 37.24 178.838 38.0567 181.358 39.69C183.925 41.3233 185.931 43.6567 187.378 46.69C188.871 49.7233 189.618 53.27 189.618 57.33C189.618 61.39 188.871 64.96 187.378 68.04C185.931 71.0733 183.925 73.4067 181.358 75.04C178.838 76.6733 176.015 77.49 172.888 77.49C170.228 77.49 167.918 76.9767 165.958 75.95C163.998 74.8767 162.481 73.4067 161.408 71.54V77H147.688V25.2H161.408V43.19ZM175.688 57.33C175.688 54.7633 174.988 52.78 173.588 51.38C172.235 49.9333 170.555 49.21 168.548 49.21C166.541 49.21 164.838 49.9333 163.438 51.38C162.085 52.8267 161.408 54.81 161.408 57.33C161.408 59.8967 162.085 61.9033 163.438 63.35C164.838 64.7967 166.541 65.52 168.548 65.52C170.555 65.52 172.235 64.7967 173.588 63.35C174.988 61.8567 175.688 59.85 175.688 57.33ZM206.186 25.2V77H192.466V25.2H206.186ZM253.479 37.73L228.559 95.69H213.649L223.029 75.32L206.929 37.73H222.189L230.449 59.99L238.429 37.73H253.479Z" fill="black"/>
<path d="M260.918 77.56C258.492 77.56 256.532 76.9067 255.038 75.6C253.592 74.2467 252.868 72.5433 252.868 70.49C252.868 68.4367 253.592 66.7333 255.038 65.38C256.532 64.0267 258.492 63.35 260.918 63.35C263.298 63.35 265.212 64.0267 266.658 65.38C268.152 66.7333 268.898 68.4367 268.898 70.49C268.898 72.4967 268.152 74.1767 266.658 75.53C265.212 76.8833 263.298 77.56 260.918 77.56Z" fill="#5277FF"/>
<path d="M25.0625 159.656V187.656H22.2188V159.656H25.0625ZM0.625 179.938C4.59375 177.547 6.60938 172.453 6.625 167.469V165.219H1.46875V162.812H14.2812V165.219H9.46875V167.469C9.46875 172.25 11.4062 177.047 15.3438 179.312L13.5625 181.5C10.8906 179.906 9.0625 177.047 8.07812 173.672C7.07812 177.328 5.17188 180.453 2.4375 182.156L0.625 179.938ZM12.2188 172V169.562H16.5625V160.25H19.375V186.25H16.5625V172H12.2188ZM52.7125 181.812V184.312H27.0875V181.812H38.3687V176.906H30.2125V168H46.65V164.062H30.15V161.625H49.5875V170.375H33.15V174.469H50.2437V176.906H41.3062V181.812H52.7125ZM66.45 161.375C69.9969 161.375 72.5906 163.516 72.6063 166.594C72.5906 169.688 69.9969 171.812 66.45 171.781C62.8719 171.812 60.2625 169.688 60.2938 166.594C60.2625 163.516 62.8719 161.375 66.45 161.375ZM58.9813 173.75C62.8094 173.75 68.9969 173.719 73.5438 173L73.7625 175.219C71.8719 175.594 69.7938 175.828 67.7313 175.969V185.375H64.9188V176.125C62.8406 176.203 60.9031 176.219 59.325 176.219L58.9813 173.75ZM62.9188 166.594C62.9344 168.375 64.3719 169.578 66.45 169.594C68.5125 169.578 69.95 168.375 69.95 166.594C69.95 164.828 68.5125 163.594 66.45 163.625C64.3719 163.594 62.9344 164.828 62.9188 166.594ZM70.2 180.188V177.875H75.2V160.219H78.0125V186.219H75.2V180.188H70.2ZM80.6375 187.656V159.656H83.45V187.656H80.6375ZM108.6 159.656V187.719H105.631V159.656H108.6ZM86.3812 171.562C86.3812 165.578 89.3969 161.766 93.6312 161.75C97.7875 161.766 100.85 165.578 100.85 171.562C100.85 177.609 97.7875 181.422 93.6312 181.406C89.3969 181.422 86.3812 177.609 86.3812 171.562ZM89.2562 171.562C89.2406 176.016 91.0219 178.75 93.6312 178.75C96.1937 178.75 97.975 176.016 97.975 171.562C97.975 167.172 96.1937 164.422 93.6312 164.406C91.0219 164.422 89.2406 167.172 89.2562 171.562ZM125.688 163.625C125.688 168.188 130.547 172.5 135.938 173.469L134.562 175.938C130.078 174.969 125.969 172.031 124.156 168.094C122.312 172.016 118.203 174.938 113.719 175.938L112.406 173.469C117.719 172.469 122.547 168.188 122.562 163.625V161.5H125.688V163.625ZM111.469 183.969V181.5H137.094V183.969H111.469ZM160.244 174.562V176.938H140.744V161.969H159.962V164.375H143.744V168.156H159.369V170.5H143.744V174.562H160.244ZM137.525 184.125V181.688H163.15V184.125H137.525ZM189.175 172.5V174.781H163.55V172.5H189.175ZM166.581 178.875V176.75H186.019V182.906H169.581V185.219H186.894V187.312H166.613V180.938H183.081V178.875H166.581ZM166.769 162.469V160.375H185.956V166.438H169.769V168.562H186.425V170.656H166.831V164.469H182.988V162.469H166.769ZM205.038 160.938C209.256 160.922 212.303 163.281 212.319 166.75C212.303 170.188 209.256 172.562 205.038 172.531C200.834 172.562 197.803 170.188 197.819 166.75C197.803 163.281 200.834 160.922 205.038 160.938ZM195.819 174.719C200.991 174.719 208.131 174.609 214.256 173.688L214.475 175.906C211.913 176.391 209.272 176.688 206.694 176.859V186.781H203.725V177.031C201.006 177.156 198.444 177.172 196.225 177.188L195.819 174.719ZM200.694 166.75C200.663 168.781 202.491 170.125 205.038 170.094C207.647 170.125 209.475 168.781 209.475 166.75C209.475 164.703 207.647 163.328 205.038 163.344C202.491 163.328 200.663 164.703 200.694 166.75ZM216.194 187.656V159.688H219.131V187.656H216.194ZM243.906 159.688V168.688H247.969V171.156H243.906V180.625H240.938V159.688H243.906ZM221.938 165.344V162.938H228.812V159.656H231.781V162.938H238.625V165.344H221.938ZM223.469 171.969C223.453 168.766 226.219 166.672 230.281 166.688C234.297 166.672 237.062 168.766 237.062 171.969C237.062 175.141 234.297 177.203 230.281 177.219C226.219 177.203 223.453 175.141 223.469 171.969ZM226.156 187.062V178.969H229.125V184.656H245.094V187.062H226.156ZM226.344 171.969C226.312 173.797 227.906 174.922 230.281 174.906C232.656 174.922 234.25 173.797 234.281 171.969C234.25 170.125 232.656 168.984 230.281 168.969C227.906 168.984 226.312 170.125 226.344 171.969ZM264.488 167.906C264.472 172.594 267.55 177.438 271.863 179.281L270.238 181.594C266.941 180.141 264.316 177.047 263.019 173.312C261.722 177.312 259.097 180.719 255.831 182.312L254.113 179.969C258.331 177.984 261.456 172.734 261.488 167.906V164.938H255.081V162.469H270.863V164.938H264.488V167.906ZM274.394 187.656V159.656H277.363V187.656H274.394ZM305.825 173.562V176H280.231V173.562H291.513V169.469H294.45V173.562H305.825ZM281.7 168.656C287.059 167.969 291.466 164.812 291.481 161.281V160.094H294.481V161.281C294.466 164.859 298.856 167.969 304.263 168.656L303.106 171C298.669 170.281 294.747 168.125 292.966 165.031C291.184 168.125 287.263 170.281 282.794 171L281.7 168.656ZM283.075 180.812V178.469H302.638V187.656H299.638V180.812H283.075ZM334.312 159.656V170.812H338.656V173.281H334.312V187.625H331.344V159.656H334.312ZM312.531 180.156C319.547 176.656 323.359 171.594 323.969 165.062H313.938V162.594H327C326.969 170.688 323.406 177.922 314.188 182.469L312.531 180.156ZM361.181 167.219V169.625H341.962V160.156H344.9V167.219H361.181ZM338.556 175.031V172.594H364.119V175.031H338.556ZM341.587 182.406C341.587 179.141 345.228 177.297 351.306 177.312C357.337 177.297 360.947 179.141 360.962 182.406C360.947 185.688 357.337 187.531 351.306 187.531C345.228 187.531 341.587 185.688 341.587 182.406ZM344.587 182.406C344.572 184.203 347.025 185.234 351.306 185.25C355.525 185.234 357.994 184.203 357.994 182.406C357.994 180.594 355.525 179.641 351.306 179.625C347.025 179.641 344.572 180.594 344.587 182.406ZM386.612 159.688V168.688H390.675V171.156H386.612V180.625H383.644V159.688H386.612ZM364.644 165.344V162.938H371.519V159.656H374.487V162.938H381.331V165.344H364.644ZM366.175 171.969C366.159 168.766 368.925 166.672 372.987 166.688C377.003 166.672 379.769 168.766 379.769 171.969C379.769 175.141 377.003 177.203 372.987 177.219C368.925 177.203 366.159 175.141 366.175 171.969ZM368.862 187.062V178.969H371.831V184.656H387.8V187.062H368.862ZM369.05 171.969C369.019 173.797 370.612 174.922 372.987 174.906C375.362 174.922 376.956 173.797 376.987 171.969C376.956 170.125 375.362 168.984 372.987 168.969C370.612 168.984 369.019 170.125 369.05 171.969ZM411.1 168.156V171.625H422.413V174H396.881V171.625H408.163V168.156H411.1ZM398.225 167.438C403.788 166.859 408.116 164.188 408.131 160.781V159.875H411.131V160.781C411.116 164.188 415.428 166.859 420.975 167.438L419.944 169.719C415.381 169.109 411.413 167.281 409.616 164.375C407.819 167.281 403.85 169.109 399.288 169.719L398.225 167.438ZM399.944 178.312V176.031H419.194V182.688H402.881V185.094H419.975V187.375H399.975V180.531H416.256V178.312H399.944ZM445.5 160.688V168.312H429V171.531H446.094V173.938H426.031V166.031H442.469V163.094H425.938V160.688H445.5ZM422.906 178.969V176.594H448.531V178.969H437.156V187.719H434.188V178.969H422.906ZM458.869 164.719C458.884 168.75 461.384 172.609 465.556 174.219L463.931 176.531C460.884 175.297 458.619 172.844 457.431 169.812C456.228 173.078 453.853 175.672 450.587 176.969L448.994 174.594C453.306 173 455.916 169.016 455.931 164.719V161.25H458.869V164.719ZM454.056 187.062V178.438H457.056V184.656H472.962V187.062H454.056ZM463.931 171.719V169.312H469.369V166.062H463.931V163.656H469.369V159.688H472.337V180.531H469.369V171.719H463.931Z" fill="black"/>
<path d="M50.5078 243.66V250.516H29.9414V267.684H21.5625V250.516H1.34766V243.66H50.5078ZM6.09375 227.84C6.06445 220.34 14.1504 215.535 25.7812 215.535C37.4121 215.535 45.5859 220.34 45.5859 227.84C45.5859 235.193 37.4121 239.939 25.7812 239.91C14.1504 239.939 6.06445 235.193 6.09375 227.84ZM14.7656 227.84C14.7363 231.414 18.9551 233.26 25.7812 233.289C32.6953 233.26 36.8555 231.414 36.8555 227.84C36.8555 224.178 32.6953 222.244 25.7812 222.215C18.9551 222.244 14.7363 224.178 14.7656 227.84ZM95.4961 213.836V267.742H87.1172V213.836H95.4961ZM53.0742 255.32V232.82H70.125V224.969H53.0742V218.23H78.7383V239.441H61.8047V248.406C69.7734 248.318 76.3945 247.879 83.7188 246.648L84.4219 253.445C75.9258 254.998 68.0156 255.291 57.9961 255.32H53.0742ZM126.598 218.172V244.305H100.523V218.172H126.598ZM106.676 266.746V249.109H115.113V260.008H143.707V266.746H106.676ZM108.844 237.742H118.277V224.852H108.844V237.742ZM133.512 253.035V213.895H141.949V229.07H148.922V235.984H141.949V253.035H133.512ZM165.316 217.352C173.871 217.322 180.316 222.918 180.375 230.711C180.316 238.533 173.871 244.1 165.316 244.07C156.85 244.1 150.258 238.533 150.258 230.711C150.258 222.918 156.85 217.322 165.316 217.352ZM148.207 250.223C157.67 250.252 170.824 250.105 182.191 248.523L182.836 254.617C171.059 256.902 158.461 257.02 149.145 257.02L148.207 250.223ZM158.637 230.711C158.637 234.725 161.566 236.834 165.316 236.805C169.154 236.834 172.113 234.725 172.172 230.711C172.113 226.785 169.184 224.617 165.316 224.617C161.537 224.617 158.637 226.785 158.637 230.711ZM185.062 267.742V213.836H193.441V267.742H185.062ZM252.422 213.895V253.094H243.984V213.895H252.422ZM206.777 239.266C216.123 236.248 219.551 228.895 219.551 221.98V216.824H228.34V221.98C228.281 228.748 231.533 235.574 240.645 238.387L236.367 245.008C230.361 243.074 226.318 239.324 223.975 234.49C221.572 239.705 217.412 243.865 211.172 245.887L206.777 239.266ZM215.977 266.746V249.227H224.531V260.008H253.77V266.746H215.977ZM301.277 213.836V242.781H292.84V213.836H301.277ZM256.805 228.836C256.775 221.248 263.221 215.945 271.688 215.945C280.125 215.945 286.57 221.248 286.57 228.836C286.57 236.219 280.125 241.521 271.688 241.551C263.221 241.521 256.775 236.219 256.805 228.836ZM265.008 267.039V245.008H273.27V249.52H292.84V245.008H301.277V267.039H265.008ZM265.008 228.836C265.008 232.586 267.791 234.607 271.688 234.637C275.467 234.607 278.221 232.586 278.191 228.836C278.221 225.115 275.467 222.977 271.688 222.977C267.791 222.977 265.008 225.115 265.008 228.836ZM273.27 260.242H292.84V256.023H273.27V260.242ZM325.289 225.262C325.26 234.988 328.658 244.686 337.594 248.992L332.555 255.672C326.93 252.947 323.268 248.025 321.1 241.932C318.814 248.494 314.859 253.797 308.824 256.727L303.668 249.871C313.16 245.594 316.822 235.34 316.852 225.262V217.82H325.289V225.262ZM339.176 267.625V213.836H347.613V234.227H355.23V241.316H347.613V267.625H339.176ZM399.75 213.895V254.441H391.254V250.574H381.234V244.891H391.254V213.895H399.75ZM353.637 237.391C363.451 237.303 376.693 237.156 387.973 235.75L388.441 241.727C384.398 242.43 380.209 242.928 376.078 243.279V253.328H368.637V260.008H400.863V266.746H360.199V250.574H367.582V243.777C362.953 243.982 358.529 244.012 354.574 244.012L353.637 237.391ZM357.504 225.32C357.504 219.607 363.07 215.594 371.039 215.594C378.861 215.594 384.516 219.607 384.516 225.32C384.516 231.121 378.861 234.871 371.039 234.871C363.1 234.871 357.504 231.121 357.504 225.32ZM365.473 225.32C365.473 227.693 367.729 228.836 371.039 228.836C374.232 228.836 376.488 227.693 376.547 225.32C376.488 222.947 374.232 221.746 371.039 221.746C367.729 221.746 365.473 222.947 365.473 225.32ZM414.797 257.547L409.582 274.48H402.727L405.539 257.547H414.797ZM470.906 213.836V245.242H462.527V233.289H453.738V226.492H462.527V213.836H470.906ZM427.898 244.07V216.883H452.566V223.445H436.219V227.078H450.809V233.523H436.219V237.156C443.484 237.156 448.494 236.893 454.207 235.984L454.852 242.664C448.084 243.807 441.932 244.07 432.117 244.07H427.898ZM434.461 267.039V247.41H470.906V267.039H434.461ZM442.957 260.301H462.703V254.148H442.957V260.301ZM488.707 214.773V218.055H508.688V214.773H517.008V232.938H480.445V214.773H488.707ZM474.234 241.844V235.34H523.277V241.844H474.234ZM479.801 267.332V252.742H509.039V250.574H479.801V244.422H517.418V258.543H488.121V261.004H518.707V267.332H479.801ZM488.707 226.668H508.688V224.09H488.707V226.668ZM568.324 213.836V267.742H559.945V213.836H568.324ZM525.902 255.32V232.82H542.953V224.969H525.902V218.23H551.566V239.441H534.633V248.406C542.602 248.318 549.223 247.879 556.547 246.648L557.25 253.445C548.754 254.998 540.844 255.291 530.824 255.32H525.902Z" fill="black"/>
</svg>
