<svg width="1920" height="517" viewBox="0 0 1920 517" fill="none" xmlns="http://www.w3.org/2000/svg">
<rect width="1920" height="516" transform="translate(0 0.0849609)" fill="#5277FF"/>
<path d="M640.281 157.288V160.374H625.984V172.405H622.352V160.374H608.25V157.288H640.281ZM611.727 146.507C611.746 141.741 616.785 138.733 624.188 138.733C631.59 138.733 636.668 141.741 636.648 146.507C636.668 151.214 631.59 154.202 624.188 154.202C616.785 154.202 611.746 151.214 611.727 146.507ZM615.555 146.507C615.535 149.417 618.992 151.233 624.188 151.233C629.402 151.233 632.84 149.417 632.859 146.507C632.84 143.558 629.402 141.722 624.188 141.702C618.992 141.722 615.535 143.558 615.555 146.507ZM671.922 137.405V172.483H668.211V137.405H671.922ZM644.812 143.577V140.569H661.219V153.343H648.641V160.999C654.324 160.979 659.266 160.706 665.125 159.749L665.477 162.796C659.285 163.831 654.012 164.065 647.82 164.085H644.852V150.374H657.43V143.577H644.812ZM706.023 139.476V142.522H692.938V146.351H705.047V149.241H692.938V153.304C699.93 153.304 704.012 153.167 708.758 152.366L709.148 155.335C704.09 156.194 699.734 156.292 692.078 156.272H689.188V139.476H706.023ZM693.211 171.976V159.905H716.219V171.976H693.211ZM696.883 168.968H712.586V162.796H696.883V168.968ZM712.508 158.265V137.444H716.219V158.265H712.508ZM761.492 137.405V172.405H757.938V154.476H753.445V170.608H749.969V138.108H753.445V151.429H757.938V137.405H761.492ZM733.172 163.499V141.546H736.883V160.237C740.105 160.198 743.641 159.944 747.625 159.163L748.016 162.405C743.211 163.265 739.207 163.519 735.438 163.499H733.172ZM796.219 137.405V172.405H792.664V137.405H796.219ZM766.492 152.522C766.492 144.944 769.461 140.198 774.031 140.218C778.289 140.198 781.16 144.241 781.59 150.804H785.555V138.069H789.109V170.687H785.555V153.812H781.609C781.277 160.647 778.367 164.886 774.031 164.866C769.461 164.886 766.492 160.12 766.492 152.522ZM769.93 152.522C769.93 158.089 771.512 161.37 774.031 161.351C776.609 161.37 778.211 158.089 778.211 152.522C778.211 146.937 776.609 143.675 774.031 143.694C771.512 143.675 769.93 146.937 769.93 152.522ZM813.289 146.312C813.289 152.718 816.883 159.104 822.234 161.507L819.969 164.476C816.004 162.483 812.996 158.538 811.453 153.753C809.91 158.792 806.863 163.05 802.82 165.14L800.477 162.132C805.906 159.534 809.52 152.796 809.539 146.312V140.335H813.289V146.312ZM818.367 152.054V149.046H826.18V137.405H829.852V172.483H826.18V152.054H818.367ZM875.047 137.405V172.405H871.492V137.405H875.047ZM844.5 162.757C849.461 159.769 851.98 153.401 852 147.171V144.358H845.555V141.351H861.57V144.358H855.555V147.171C855.555 153.147 857.977 159.144 862.898 161.976L860.672 164.71C857.332 162.718 855.047 159.144 853.816 154.925C852.566 159.495 850.184 163.401 846.766 165.53L844.5 162.757ZM858.992 152.835V149.788H864.422V138.147H867.938V170.647H864.422V152.835H858.992ZM911.609 165.101V168.226H879.578V165.101H893.68V158.968H883.484V147.835H904.031V142.913H883.406V139.866H907.703V150.804H887.156V155.921H908.523V158.968H897.352V165.101H911.609ZM923.016 139.554C927.449 139.554 930.691 142.229 930.711 146.077C930.691 149.944 927.449 152.601 923.016 152.562C918.543 152.601 915.281 149.944 915.32 146.077C915.281 142.229 918.543 139.554 923.016 139.554ZM913.68 155.022C918.465 155.022 926.199 154.983 931.883 154.085L932.156 156.858C929.793 157.327 927.195 157.62 924.617 157.796V169.554H921.102V157.991C918.504 158.089 916.082 158.108 914.109 158.108L913.68 155.022ZM918.602 146.077C918.621 148.304 920.418 149.808 923.016 149.827C925.594 149.808 927.391 148.304 927.391 146.077C927.391 143.87 925.594 142.327 923.016 142.366C920.418 142.327 918.621 143.87 918.602 146.077ZM927.703 163.069V160.179H933.953V138.108H937.469V170.608H933.953V163.069H927.703ZM940.75 172.405V137.405H944.266V172.405H940.75ZM977.703 137.405V172.483H973.992V137.405H977.703ZM949.93 152.288C949.93 144.808 953.699 140.042 958.992 140.022C964.188 140.042 968.016 144.808 968.016 152.288C968.016 159.847 964.188 164.612 958.992 164.593C953.699 164.612 949.93 159.847 949.93 152.288ZM953.523 152.288C953.504 157.854 955.73 161.272 958.992 161.272C962.195 161.272 964.422 157.854 964.422 152.288C964.422 146.8 962.195 143.362 958.992 143.343C955.73 143.362 953.504 146.8 953.523 152.288ZM1001.06 142.366C1001.06 148.069 1007.14 153.46 1013.88 154.671L1012.16 157.757C1006.55 156.546 1001.41 152.874 999.148 147.952C996.844 152.854 991.707 156.507 986.102 157.757L984.461 154.671C991.102 153.421 997.137 148.069 997.156 142.366V139.71H1001.06V142.366ZM983.289 167.796V164.71H1015.32V167.796H983.289ZM1046.26 156.038V159.007H1021.88V140.296H1045.91V143.304H1025.63V148.03H1045.16V150.96H1025.63V156.038H1046.26ZM1017.86 167.991V164.944H1049.89V167.991H1017.86ZM1091.18 137.405V155.413H1087.51V137.405H1091.18ZM1062.31 152.288C1067.78 150.472 1071.12 145.882 1071.14 141.038V138.343H1074.93V141.038C1074.91 145.726 1078.27 149.983 1083.64 151.663L1081.8 154.554C1077.72 153.226 1074.66 150.472 1073.07 146.917C1071.49 150.745 1068.37 153.792 1064.19 155.218L1062.31 152.288ZM1068.21 160.022V157.093H1091.22V165.843H1071.92V169.085H1092.39V172.054H1068.33V163.03H1087.55V160.022H1068.21ZM1109.03 145.726C1109.03 150.14 1112.33 154.202 1117.7 155.882L1115.91 158.812C1111.88 157.542 1108.86 154.886 1107.25 151.468C1105.73 155.12 1102.7 157.991 1098.56 159.358L1096.77 156.468C1102.12 154.749 1105.36 150.433 1105.36 145.726V144.905H1097.74V141.897H1105.36V137.64H1109.07V141.897H1116.65V144.905H1109.03V145.726ZM1103.21 171.663V161.194H1106.92V168.655H1126.88V171.663H1103.21ZM1115.44 151.038V148.03H1122.23V137.444H1125.95V163.499H1122.23V151.038H1115.44ZM1158.6 137.405V151.585H1164.23V154.671H1158.6V172.405H1154.93V137.405H1158.6ZM1131.14 145.921V142.874H1139.77V137.874H1143.48V142.874H1151.88V145.921H1131.14ZM1132.94 156.624C1132.94 151.858 1136.61 148.499 1141.65 148.499C1146.67 148.499 1150.34 151.858 1150.36 156.624C1150.34 161.429 1146.67 164.769 1141.65 164.788C1136.61 164.769 1132.94 161.429 1132.94 156.624ZM1136.49 156.624C1136.47 159.671 1138.66 161.702 1141.65 161.663C1144.62 161.702 1146.79 159.671 1146.8 156.624C1146.79 153.636 1144.62 151.565 1141.65 151.546C1138.66 151.565 1136.47 153.636 1136.49 156.624ZM1195.01 137.405V172.405H1191.26V137.405H1195.01ZM1166.26 163.03C1175.55 158.597 1180.11 152.288 1180.83 144.124H1167.94V141.155H1184.58C1184.58 151.409 1180.22 160.276 1168.21 166.038L1166.26 163.03ZM1220.83 144.202C1220.83 147.522 1223.48 150.921 1227.86 152.405L1226.26 155.14C1222.84 154.007 1220.42 151.741 1219.13 149.007C1217.86 151.956 1215.44 154.495 1212.04 155.804L1210.32 152.991C1214.7 151.312 1217.29 147.64 1217.31 144.202V144.085H1211.22V141.155H1217.31V137.562H1220.83V141.155H1226.84V144.085H1220.83V144.202ZM1216.61 160.296V157.483H1240.09V165.921H1220.36V169.163H1241.41V171.976H1216.69V163.187H1236.45V160.296H1216.61ZM1229.03 155.765V138.069H1232.59V145.14H1236.57V137.444H1240.09V156.038H1236.57V148.147H1232.59V155.765H1229.03ZM1273.8 137.444V163.187H1270.12V137.444H1273.8ZM1246.57 142.835V139.866H1262.66V150.296H1250.28V155.335C1256.71 155.296 1261.1 155.101 1266.3 154.163L1266.69 157.21C1261.18 158.167 1256.53 158.362 1249.58 158.382H1246.65V147.483H1258.99V142.835H1246.57ZM1250.67 171.663V161.155H1254.38V168.655H1274.77V171.663H1250.67ZM1292.27 147.718C1292.25 153.577 1296.1 159.632 1301.49 161.937L1299.46 164.827C1295.34 163.011 1292.06 159.144 1290.44 154.476C1288.82 159.476 1285.54 163.733 1281.45 165.726L1279.3 162.796C1284.58 160.315 1288.48 153.753 1288.52 147.718V144.007H1280.52V140.921H1300.24V144.007H1292.27V147.718ZM1304.66 172.405V137.405H1308.37V172.405H1304.66Z" fill="white"/>
<path d="M453.023 199.155V230.386H445.582V217.964H436.441V211.87H445.582V199.155H453.023ZM410.602 228.862V202.202H434.977V208.062H418.043V212.456H433.336V218.198H418.043V222.769C425.865 222.71 430.992 222.476 436.91 221.479L437.555 227.456C430.729 228.628 424.693 228.862 414.762 228.862H410.602ZM417.164 251.89V232.671H453.023V251.89H417.164ZM424.664 245.913H445.699V238.647H424.664V245.913ZM473.531 200.034V203.784H494.918V200.034H502.359V217.964H466.148V200.034H473.531ZM459.938 226.694V220.894H508.57V226.694H459.938ZM465.562 235.308V229.858H502.652V243.335H472.945V246.499H504.059V252.124H465.621V238.12H495.27V235.308H465.562ZM473.531 212.397H494.918V209.175H473.531V212.397ZM556.5 199.155V252.593H549.059V199.155H556.5ZM514.605 209.644V203.608H539.977V224.175H522.398V233.96C530.543 233.901 537.428 233.491 545.25 232.202L545.895 238.237C537.135 239.79 529.195 240.112 519.469 240.112H514.664V218.257H532.359V209.644H514.605ZM612.398 223.062V228.628H563.59V223.062H612.398ZM569.156 236.421V231.265H606.539V243.862H576.656V246.909H608.121V252.007H569.215V239.116H599.156V236.421H569.156ZM569.566 205.19V200.093H606.48V212.632H577.125V215.503H607.418V220.542H569.684V207.886H598.98V205.19H569.566ZM677.965 226.636V232.495H629.215V226.636H649.84V223.354H635.309V200.444H672.281V206.187H642.809V209.175H671.051V214.565H642.809V217.612H672.75V223.354H657.34V226.636H677.965ZM634.898 243.687C634.898 238.062 641.637 234.897 653.59 234.956C665.338 234.897 672.105 238.062 672.164 243.687C672.105 249.429 665.338 252.505 653.59 252.476C641.637 252.505 634.898 249.429 634.898 243.687ZM642.398 243.687C642.34 245.972 645.914 246.968 653.59 246.968C661.09 246.968 664.635 245.972 664.664 243.687C664.635 241.46 661.09 240.435 653.59 240.464C645.914 240.435 642.34 241.46 642.398 243.687ZM706.91 207.3V213.218H681.129V207.3H690.387V200.62H697.77V207.3H706.91ZM682.359 228.276C682.359 220.864 687.34 215.649 694.137 215.62C700.963 215.649 705.826 220.864 705.855 228.276C705.826 235.718 700.963 240.991 694.137 240.991C687.34 240.991 682.359 235.718 682.359 228.276ZM688.922 228.276C688.922 232.349 691.031 234.663 694.137 234.663C697.125 234.663 699.264 232.349 699.293 228.276C699.264 224.263 697.125 221.831 694.137 221.831C691.031 221.831 688.922 224.263 688.922 228.276ZM708.902 250.19V200.21H715.875V220.835H720.211V199.155H727.301V252.476H720.211V226.812H715.875V250.19H708.902ZM764.215 212.397C764.186 221.538 766.705 230.21 774.234 234.194L769.84 240.112C765.211 237.593 762.252 233.286 760.494 228.013C758.59 233.901 755.367 238.823 750.562 241.694L745.875 236.245C753.873 231.47 756.92 221.948 756.949 212.925V203.726H764.215V212.397ZM774.293 250.015V199.917H781.324V219.956H785.953V199.155H793.102V252.476H785.953V225.933H781.324V250.015H774.293ZM847.535 240.405V246.558H798.727V240.405H819.293V232.378H804.352V214.448H834.527V208.589H804.293V202.612H841.91V220.308H811.852V226.284H843.141V232.378H826.734V240.405H847.535ZM899.332 225.112V231.089H879.117V240.347H871.559V231.089H850.523V225.112H899.332ZM855.562 211.226C855.562 204.458 863.297 200.21 874.898 200.151C886.441 200.21 894.146 204.458 894.176 211.226C894.146 218.022 886.441 222.241 874.898 222.241C863.297 222.241 855.562 218.022 855.562 211.226ZM856.324 251.538V235.601H863.883V245.503H893.941V251.538H856.324ZM863.648 211.226C863.619 214.478 868.014 216.235 874.898 216.265C881.783 216.235 886.148 214.478 886.148 211.226C886.148 207.827 881.783 206.069 874.898 206.069C868.014 206.069 863.619 207.827 863.648 211.226ZM936.949 213.687C936.92 222.3 941.373 231.528 950.309 235.249L946.266 241.108C939.996 238.442 935.66 233.14 933.258 226.694C930.855 233.696 926.432 239.556 920.133 242.456L915.855 236.538C924.703 232.583 929.273 222.71 929.273 213.687V210.405H917.965V204.312H948.082V210.405H936.949V213.687ZM953.355 252.476V199.155H960.914V252.476H953.355ZM1016.75 225.112V231.089H968.121V225.112H988.688V218.022H996.07V225.112H1016.75ZM970.641 215.386C982.418 213.892 988.541 207.798 988.57 201.792V200.034H996.188V201.792C996.158 208.032 1002.13 213.892 1014.18 215.386L1011.3 221.187C1002.28 219.839 995.66 216.06 992.291 210.728C988.893 216.03 982.271 219.868 973.277 221.187L970.641 215.386ZM973.512 240.64V234.839H1010.84V252.476H1003.39V240.64H973.512ZM1075.88 199.155V219.604H1083.43V225.757H1075.88V252.358H1068.38V199.155H1075.88ZM1033.22 237.417C1045.85 231.089 1052.64 222.593 1054.05 210.698H1036.27V204.604H1061.64C1061.58 220.542 1055.37 234.341 1037.44 243.159L1033.22 237.417ZM1128.9 212.515V218.491H1091.81V199.976H1099.25V212.515H1128.9ZM1085.66 229.155V223.062H1134.41V229.155H1085.66ZM1091.23 242.397C1091.23 236.099 1098.26 232.524 1109.92 232.495C1121.49 232.524 1128.43 236.099 1128.49 242.397C1128.43 248.755 1121.49 252.3 1109.92 252.3C1098.26 252.3 1091.23 248.755 1091.23 242.397ZM1098.84 242.397C1098.81 245.181 1102.54 246.587 1109.92 246.616C1117.15 246.587 1120.96 245.181 1120.99 242.397C1120.96 239.556 1117.15 238.354 1109.92 238.296C1102.54 238.354 1098.81 239.556 1098.84 242.397ZM1157.67 206.421C1157.64 213.54 1161.3 220.132 1169.86 222.769L1165.93 228.628C1160.19 226.636 1156.29 222.974 1154.04 218.169C1151.7 223.735 1147.39 228.101 1140.97 230.269L1137.05 224.292C1146.16 221.362 1150.08 214.214 1150.11 206.772V201.909H1157.67V206.421ZM1145.89 242.163C1145.89 235.601 1152.87 231.763 1164.23 231.792C1175.63 231.763 1182.6 235.601 1182.63 242.163C1182.6 248.755 1175.63 252.505 1164.23 252.476C1152.87 252.505 1145.89 248.755 1145.89 242.163ZM1153.34 242.163C1153.34 245.122 1157.17 246.675 1164.23 246.675C1171.32 246.675 1175.16 245.122 1175.19 242.163C1175.16 239.116 1171.32 237.593 1164.23 237.593C1157.17 237.593 1153.34 239.116 1153.34 242.163ZM1165 215.034V208.94H1175.02V199.155H1182.46V230.386H1175.02V215.034H1165ZM1213.69 199.917C1225.96 199.917 1233.05 203.14 1233.08 208.999C1233.05 214.946 1225.96 218.14 1213.69 218.14C1201.38 218.14 1194.23 214.946 1194.23 208.999C1194.23 203.14 1201.38 199.917 1213.69 199.917ZM1189.37 226.577V220.659H1238V226.577H1189.37ZM1195 235.132V229.683H1232.09V243.276H1202.38V246.499H1233.49V252.124H1195.05V238.062H1224.7V235.132H1195ZM1202.09 208.999C1202.06 211.606 1205.87 212.632 1213.69 212.632C1221.57 212.632 1225.35 211.606 1225.35 208.999C1225.35 206.626 1221.57 205.366 1213.69 205.366C1205.87 205.366 1202.06 206.626 1202.09 208.999ZM1282.24 203.55V229.155H1256.64V203.55H1282.24ZM1262.79 251.538V234.253H1270.23V245.562H1299.29V251.538H1262.79ZM1264.02 223.296H1274.86V209.526H1264.02V223.296ZM1289.86 238.062V199.155H1297.36V214.507H1304.57V220.659H1297.36V238.062H1289.86ZM1356.54 219.37V225.464H1348.98V252.358H1341.48V199.155H1348.98V219.37H1356.54ZM1308.61 239.351V204.253H1316.05V233.169C1322.88 233.052 1330.2 232.407 1337.91 230.854L1338.67 237.065C1329.73 238.882 1321.09 239.351 1313.24 239.351H1308.61ZM1407.57 240.171V246.265H1358.77V240.171H1379.33V230.327H1363.92V202.554H1371.42V210.815H1394.68V202.554H1402.12V230.327H1386.77V240.171H1407.57ZM1371.42 224.351H1394.68V216.792H1371.42V224.351ZM1427.73 212.573C1427.7 221.216 1430.1 230.122 1437.4 234.78L1433.36 240.581C1428.73 237.798 1425.83 233.169 1424.13 227.72C1422.22 233.755 1419.03 238.823 1414.2 241.753L1409.62 236.245C1417.54 231.353 1420.46 221.948 1420.46 212.925V203.726H1427.73V212.573ZM1431.77 223.237V217.144H1438.69V199.917H1445.66V250.015H1438.69V223.237H1431.77ZM1449.7 252.476V199.155H1456.85V252.476H1449.7ZM1511.29 240.112V246.265H1462.48V240.112H1473.38V227.046C1469.24 224.556 1466.75 220.776 1466.75 216.089C1466.75 207.446 1475.19 201.763 1486.79 201.733C1498.34 201.763 1506.86 207.446 1506.89 216.089C1506.86 220.688 1504.46 224.409 1500.45 226.899V240.112H1511.29ZM1474.14 216.089C1474.14 221.304 1479.15 224.526 1486.79 224.526C1494.32 224.526 1499.48 221.304 1499.51 216.089C1499.48 210.728 1494.32 207.622 1486.79 207.651C1479.15 207.622 1474.14 210.728 1474.14 216.089ZM1480.76 240.112H1492.89V229.741C1490.98 230.122 1488.93 230.327 1486.79 230.327C1484.65 230.327 1482.63 230.122 1480.76 229.771V240.112Z" fill="white"/>
<rect x="852" y="322.085" width="216" height="64" rx="32" fill="white"/>
<path d="M901.473 348.876C901.473 352.44 903.047 356.322 906.941 357.909L905.062 360.668C902.449 359.582 900.728 357.482 899.739 354.918C898.75 357.738 896.993 360.058 894.368 361.229L892.366 358.471C896.248 356.762 897.884 352.648 897.884 348.876V347.997H893.294V345.141H905.965V347.997H901.473V348.876ZM907.869 365.429V343.017H911.409V365.429H907.869ZM932.332 343.993V345.824C932.344 347.558 932.344 349.45 931.832 351.952H934.676V354.76H914.192V351.952H928.279C928.719 349.901 928.804 348.266 928.816 346.776H916.658V343.993H932.332ZM916.585 365.185V356.933H932.186V365.185H916.585ZM920.027 362.377H928.694V359.667H920.027V362.377ZM950.35 347.777C950.337 351.916 951.912 356.042 955.892 357.665L953.816 360.497C951.302 359.374 949.617 357.287 948.616 354.687C947.627 357.567 945.882 359.875 943.147 361.083L941.048 358.153C945.149 356.469 946.761 352.172 946.785 347.777V344.677H950.35V347.777ZM956.673 365.478V343.017H960.213V365.478H956.673ZM975.765 344.237V347.045H971.48C971.614 349.462 973.03 351.964 976.595 353.1L974.812 355.81C972.371 355.028 970.711 353.515 969.734 351.61C968.733 353.698 967.012 355.358 964.437 356.176L962.581 353.466C966.243 352.318 967.745 349.621 967.891 347.045H963.509V344.237H975.765ZM965.633 360.204V357.421H980.843V365.429H977.327V360.204H965.633ZM977.327 356.542V343.017H980.843V348.314H983.748V351.22H980.843V356.542H977.327ZM1002.38 343.017V351.635H1005.55V354.54H1002.38V365.429H998.909V343.017H1002.38ZM984.48 349.071V346.288H989.339V343.383H992.854V346.288H997.591V349.071H984.48ZM985.286 355.541C985.262 352.379 987.74 350.133 991.097 350.146C994.368 350.133 996.871 352.379 996.883 355.541C996.871 358.703 994.368 360.937 991.097 360.937C987.74 360.937 985.262 358.703 985.286 355.541ZM988.655 355.541C988.631 357.189 989.656 358.092 991.097 358.08C992.488 358.092 993.501 357.189 993.514 355.541C993.501 353.93 992.488 352.99 991.097 352.978C989.656 352.99 988.631 353.93 988.655 355.541ZM1025.13 343.017V365.429H1021.57V343.017H1025.13ZM1006.21 358.91C1011.91 356.225 1014.3 352.904 1014.8 348.07H1007.48V345.336H1018.39C1018.38 352.245 1016.19 357.873 1008.04 361.693L1006.21 358.91Z" fill="#5277FF"/>
</svg>
